<svg id="Capa_1" enable-background="new 0 0 512 512" height="512" viewBox="0 0 512 512" width="512" xmlns="http://www.w3.org/2000/svg"><g><g><g clip-rule="evenodd" fill-rule="evenodd"><path d="m175 504.5h162c16.5 0 30-13.5 30-30l.001-102.296c-28.85 27.566-67.949 44.496-111.002 44.496-43.052 0-82.15-16.93-111-44.498v102.298c.001 16.5 13.501 30 30.001 30zm81-409.201c43.052 0 82.151 16.93 111 44.498v-102.297c0-16.5-13.5-30-30-30h-162c-16.5 0-30 13.5-30 30l-.001 102.296c28.85-27.566 67.948-44.497 111.001-44.497z" fill="#ecc87d"/><path d="m367 407.46c11.608 0 30 2.29 30-15v-59.302c-7.966 14.527-18.112 27.689-29.998 39.046zm0-267.666c11.886 11.357 22.033 24.519 30 39.047v-59.301c0-17.29-18.391-15-30-15zm-251.999 39.047c7.966-14.527 18.113-27.688 30-39.044v-35.257c-11.608 0-30-2.29-30 15zm0 213.619c0 17.289 18.391 15 30 15v-35.255c-11.886-11.357-22.033-24.519-30-39.047z" fill="#ecc87d"/><path d="m256 416.701c88.698 0 160.701-71.916 160.701-160.701s-72.003-160.701-160.701-160.701c-89.811 0-160.701 72.995-160.701 160.701 0 88.784 72.003 160.701 160.701 160.701zm0-30c-72.184 0-130.701-58.517-130.701-130.701s58.517-130.701 130.701-130.701 130.701 58.517 130.701 130.701-58.517 130.701-130.701 130.701z" fill="#f9ee92"/><path d="m256 386.701c72.184 0 130.701-58.517 130.701-130.701s-58.517-130.701-130.701-130.701-130.701 58.517-130.701 130.701 58.517 130.701 130.701 130.701zm-67.5-175.701h135v90h-135z" fill="#a4a1a3"/><path d="m125.299 256c0 76.764 65.702 136.723 141.95 130.223-66.916-5.704-119.45-61.829-119.45-130.223s52.534-124.519 119.451-130.223c-76.248-6.5-141.951 53.459-141.951 130.223z" fill="#7a7979"/><path d="m175 504.5h22.5c-16.5 0-30-13.5-30-30v-84.347c-8.034-5.311-15.564-11.322-22.5-17.95v102.297c0 16.5 13.5 30 30 30zm22.5-497h-22.5c-16.5 0-30 13.5-30 30l-.001 102.296c6.936-6.628 14.467-12.639 22.5-17.949l.001-84.347c0-16.5 13.499-30 30-30z" fill="#d99460"/></g><g><path d="m337 45h-15v-15h15zm-30 0h-15v-15h15z" fill="#fff"/></g><path clip-rule="evenodd" d="m188.5 211h135v90h-135z" fill="#d56a4e" fill-rule="evenodd"/></g><g><path d="m279.812 497h15v15h-15z"/><path d="m424.201 256c0-28.503-7.136-55.367-19.701-78.916v-57.544c0-12.407-10.093-22.5-22.5-22.5h-7.5v-59.54c0-20.678-16.822-37.5-37.5-37.5h-162c-20.677 0-37.5 16.822-37.5 37.5v59.54h-7.5c-12.406 0-22.5 10.093-22.5 22.5v57.543c-12.565 23.549-19.701 50.414-19.701 78.917s7.136 55.368 19.701 78.917v57.543c0 12.407 10.093 22.5 22.5 22.5h7.5v59.54c0 20.678 16.822 37.5 37.5 37.5h89.812v-15h-89.812c-12.407 0-22.5-10.093-22.5-22.5v-86.004c28.56 22.359 64.5 35.704 103.5 35.704s74.94-13.345 103.5-35.704v86.004c0 12.407-10.093 22.5-22.5 22.5h-27.188v15h27.188c20.677 0 37.5-16.822 37.5-37.5v-59.54h7.5c12.406 0 22.5-10.093 22.5-22.5v-57.544c12.565-23.549 19.701-50.413 19.701-78.916zm-42.201-143.96c4.135 0 7.5 3.364 7.5 7.5v34.268c-4.618-6.018-9.627-11.721-15-17.06v-24.708zm-207-97.04h162c12.406 0 22.5 10.093 22.5 22.5v86.004c-28.56-22.36-64.5-35.705-103.5-35.705s-74.94 13.345-103.5 35.704v-86.003c0-12.407 10.093-22.5 22.5-22.5zm-52.5 104.54c0-4.136 3.364-7.5 7.5-7.5h7.5v24.709c-5.372 5.339-10.382 11.041-15 17.059zm15 280.42h-7.5c-4.135 0-7.5-3.364-7.5-7.5v-34.268c4.618 6.018 9.627 11.72 15 17.059zm-34.701-143.96c0-84.475 68.726-153.201 153.201-153.201s153.201 68.726 153.201 153.201-68.726 153.201-153.201 153.201-153.201-68.726-153.201-153.201zm286.701 136.46c0 4.136-3.364 7.5-7.5 7.5h-7.5v-24.709c5.373-5.339 10.382-11.041 15-17.06z"/><path d="m256 117.799c-46.552 0-89.687 23.225-115.383 62.125l12.516 8.268c22.911-34.685 61.367-55.393 102.867-55.393 67.933 0 123.201 55.268 123.201 123.201s-55.268 123.201-123.201 123.201-123.201-55.268-123.201-123.201c0-19.563 4.451-38.266 13.229-55.59l-13.38-6.78c-9.854 19.445-14.85 40.429-14.85 62.37 0 76.204 61.997 138.201 138.201 138.201s138.202-61.997 138.202-138.201-61.997-138.201-138.201-138.201z"/><path d="m331 203.5h-150v105h150zm-28.356 15-46.644 38.53-46.644-38.53zm-106.644 75v-66.577l60 49.563 60-49.563v66.577z"/></g></g></svg>