<svg id="Capa_1" enable-background="new 0 0 512 512" height="512" viewBox="0 0 512 512" width="512" xmlns="http://www.w3.org/2000/svg"><g><g><g clip-rule="evenodd" fill-rule="evenodd"><path d="m145.772 339.344 64.587 65.596v52.499h195.049v-84.41l29.957-49.957c0-80.085 0-160.171 0-240.256 0-16.5-13.5-30-30-30s-30 13.5-30 30v182.376c0 16.5-13.5 30-30 30s-30-13.5-30-30c0 16.5-13.5 30-30 30s-30-13.5-30-30c0-75.898 0-151.796 0-227.693 0-16.5-13.5-30-30-30s-30 13.5-30 30v240.176l-69.71-98.453c-16.218-22.905-66.942-3.707-42.426 42.426z" fill="#f5d9ab"/><path d="m285.365 295.193c16.5 0 30-13.5 30-30v-102.752c0-16.5-13.5-30-30-30s-30 13.5-30 30v102.752c0 16.501 13.5 30 30 30z" fill="#f5d9ab"/><path d="m315.365 265.193c0 16.5 13.5 30 30 30s30-13.5 30-30c0-34.251 0-68.501 0-102.752 0-16.5-13.5-30-30-30s-30 13.5-30 30z" fill="#f5d9ab"/><path d="m195.36 457.44h225.048v47.06h-225.048z" fill="#d56a4e"/><path d="m145.772 339.344 64.587 65.596v52.499h22.5v-59.999l-72.087-73.096-55.044-102.694c-14.059-26.229-3.593-43.77 11.015-49.78-20.451-9.404-54.472 10.344-33.515 49.78zm210.842-46.354c-10.968-4.474-18.75-15.269-18.75-27.796 0-34.251 0-68.501 0-102.752 0-12.527 7.782-23.323 18.75-27.796-19.442-7.931-41.249 6.429-41.249 27.796v102.752c0 21.366 21.808 35.726 41.249 27.796zm-60 0c-10.968-4.474-18.75-15.269-18.75-27.796 0-34.251 0-68.501 0-102.752 0-12.527 7.782-23.323 18.75-27.796-19.442-7.931-41.249 6.429-41.249 27.796v102.752c0 21.366 21.808 35.726 41.249 27.796zm-59.999-283.286c-10.968 4.474-18.75 15.269-18.75 27.796v247.676h-22.5v-247.676c0-16.499 13.5-30 30-30 3.973 0 7.771.785 11.25 2.204z" fill="#f0b582"/><path d="m195.36 457.44h22.5v47.06h-22.5z" fill="#ce3f29"/></g><g><path d="m394.062 338.073h-15v-15h15zm-30 0h-15v-15h15z" fill="#fff"/></g></g><g><path d="m442.865 325.149v-242.332c0-20.678-16.822-37.5-37.5-37.5s-37.5 16.822-37.5 37.5v49.645c-6.272-4.719-14.064-7.52-22.5-7.52-12.254 0-23.153 5.909-30 15.026-6.847-9.117-17.746-15.026-30-15.026-8.436 0-16.228 2.801-22.5 7.52v-94.962c0-20.678-16.822-37.5-37.5-37.5-20.677 0-37.5 16.822-37.5 37.5v37.5h15v-37.5c0-12.407 10.093-22.5 22.5-22.5s22.5 10.093 22.5 22.5v227.693c0 20.678 16.822 37.5 37.5 37.5 12.253 0 23.152-5.907 30-15.024 6.848 9.117 17.747 15.024 30 15.024 20.678 0 37.5-16.822 37.5-37.5v-182.376c0-12.407 10.094-22.5 22.5-22.5s22.5 10.093 22.5 22.5v238.18l-29.956 49.957v78.986h-180.05v-48.072l-65.977-67.007-62.031-116.731c-8.827-16.61-7.314-30.706 4.045-37.706 7.841-4.833 19.873-5.008 25.637 3.133l70.569 99.665 1.256.794c8.626 5.45 16.983 10.197 25.066 14.788 34.659 19.685 59.7 33.908 60.176 77.748l14.998-.162c-.567-52.462-31.708-70.149-67.766-90.628-6.82-3.874-13.839-7.86-20.967-12.247v-183.515h-15v164.106l-56.089-79.216c-9.794-13.831-29.888-17.008-45.749-7.235-8.285 5.106-13.972 13.12-16.013 22.565-2.299 10.635-.081 22.394 6.591 34.95l63.057 118.659 63.197 64.185v41.926h-15v62.06h150.049v-15h-135.048v-32.061h210.048v32.061h-29.999v15h44.999v-62.061h-14.999v-74.834zm-157.5-37.456c-12.406 0-22.5-10.093-22.5-22.5v-102.752c0-12.407 10.094-22.5 22.5-22.5s22.5 10.093 22.5 22.5v102.752c0 12.407-10.094 22.5-22.5 22.5zm82.5-22.5c0 12.407-10.094 22.5-22.5 22.5s-22.5-10.093-22.5-22.5v-102.752c0-12.407 10.094-22.5 22.5-22.5s22.5 10.093 22.5 22.5z"/><path d="m352.909 497h15v15h-15z"/></g></g></svg>