<svg id="Capa_1" enable-background="new 0 0 511.998 511.998" height="512" viewBox="0 0 511.998 511.998" width="512" xmlns="http://www.w3.org/2000/svg"><g><g clip-rule="evenodd" fill-rule="evenodd"><path d="m268.806 346.191c10.13-4.794 17.193-15.099 17.193-27.13 0-8.493-3.529-16.162-9.201-21.62-5.393-5.19-12.723-8.381-20.799-8.381-4.583 0-8.925 1.028-12.81 2.865-10.161 4.805-17.19 15.15-17.19 27.135 0 16.569 13.432 30 30 30 4.571.001 8.915-1.027 12.807-2.869z" fill="#e5ecf5"/><ellipse cx="91.5" cy="319.061" fill="#e5ecf5" rx="84" ry="84" transform="matrix(.16 -.987 .987 .16 -238.097 358.271)"/><ellipse cx="91.5" cy="319.061" fill="#b4d8f2" rx="54.001" ry="54.001" transform="matrix(.16 -.987 .987 .16 -238.097 358.271)"/><circle cx="420.498" cy="319.061" fill="#e5ecf5" r="84"/><ellipse cx="420.498" cy="319.061" fill="#b4d8f2" rx="54.001" ry="54.001" transform="matrix(.924 -.383 .383 .924 -90.091 185.205)"/><path d="m145.183 141.578 28.151 2.368 28.151 2.368c8.221.691 15.513-5.469 16.204-13.69l.226-2.693c.691-8.221-5.469-15.513-13.69-16.204l-56.301-4.736c-8.221-.691-15.513 5.469-16.204 13.69l-.226 2.693c-.693 8.22 5.468 15.512 13.689 16.204z" fill="#ecc87d"/></g><path d="m420.498 227.561c-11.307 0-22.14 2.067-32.146 5.835l-45.763-96.943h46.479c8.271 0 15 6.729 15 15s-6.729 15-15 15v15c16.542 0 30-13.458 30-30s-13.458-30-30-30h-70.147l21.245 45.003h-147.913l-6.584-13.947 15.185 1.277c.639.054 1.273.08 1.902.08 11.561 0 21.419-8.891 22.405-20.615l.227-2.693c.502-5.972-1.361-11.794-5.248-16.394s-9.315-7.41-15.287-7.912l-56.301-4.736c-12.375-1.035-23.268 8.173-24.308 20.538l-.226 2.691c-.502 5.972 1.361 11.794 5.247 16.394s9.315 7.41 15.287 7.912l23.843 2.005 10.519 22.282-43.364 65.546c-13.076-7.213-28.091-11.324-44.051-11.324-50.453 0-91.5 41.047-91.5 91.5 0 23.015 8.577 45.011 24.152 61.936 15.479 16.82 36.498 27.19 59.187 29.198l1.322-14.941c-18.959-1.678-36.528-10.348-49.472-24.414-13.018-14.147-20.188-32.536-20.188-51.778 0-42.182 34.317-76.5 76.5-76.5 12.904 0 25.064 3.224 35.738 8.89l-8.323 12.581c-8.26-4.132-17.567-6.471-27.415-6.471-33.911 0-61.5 27.589-61.5 61.5s27.589 61.5 61.5 61.5c31.372 0 57.314-23.616 61.027-54h15.101c-1.611 16.48-8.501 31.982-19.817 44.279-12.943 14.065-30.513 22.736-49.472 24.414l1.322 14.941c22.688-2.008 43.708-12.377 59.187-29.198 13.873-15.075 22.176-34.177 23.829-54.436h36.577c3.484 17.096 18.636 30 36.745 30 3.067 0 6.046-.378 8.901-1.076l6.332 13.413h-18.166v15h60.001v-15h-25.248l-9.359-19.826c9.125-6.847 15.04-17.75 15.04-30.011 0-7.891-2.456-15.217-6.635-21.265l77.348-80.402 10.584 22.421c-27.355 15.837-45.798 45.427-45.798 79.245 0 50.453 41.047 91.5 91.5 91.5s91.5-41.047 91.5-91.5-41.048-91.499-91.501-91.499zm-281.531-101.561.226-2.691c.328-3.908 3.615-6.872 7.469-6.872.21 0 .421.009.634.027l56.302 4.736c1.979.167 3.786 1.105 5.086 2.645 1.301 1.539 1.926 3.477 1.759 5.457l-.227 2.693c-.346 4.121-3.994 7.191-8.103 6.845l-56.301-4.735c-4.122-.348-7.192-3.982-6.845-8.105zm.772 133.741c15.407 12.553 25.851 30.97 27.889 51.82h-15.101c-1.911-15.641-9.71-29.48-21.115-39.234zm-27.029 51.82c-.776-2.189-1.88-4.224-3.256-6.043l13.607-20.567c7.439 6.888 12.626 16.169 14.327 26.61zm-13.71 7.5c0 4.136-3.364 7.5-7.5 7.5s-7.5-3.364-7.5-7.5 3.364-7.5 7.5-7.5 7.5 3.364 7.5 7.5zm-7.5 46.5c-25.641 0-46.5-20.86-46.5-46.5s20.859-46.5 46.5-46.5c6.79 0 13.238 1.475 19.058 4.102l-13.609 20.57c-1.746-.436-3.571-.671-5.45-.671-12.406 0-22.5 10.094-22.5 22.5s10.094 22.5 22.5 22.5c9.777 0 18.114-6.271 21.21-15h24.678c-3.597 22.085-22.8 38.999-45.887 38.999zm127.754-54h-36.563c-2.125-26.061-15.214-49.068-34.64-64.384l38.354-57.972 47.134 99.845c-7.214 5.413-12.421 13.361-14.285 22.511zm52.577 23.469-9.05-19.171-13.564 6.403 9.056 19.184c-.748.075-1.506.115-2.274.115-12.406 0-22.5-10.093-22.5-22.5s10.094-22.5 22.5-22.5 22.5 10.093 22.5 22.5c0 6.238-2.553 11.89-6.668 15.969zm4.222-47.633c-5.805-3.689-12.681-5.837-20.054-5.837-3.067 0-6.046.378-8.901 1.076l-47.764-101.181h147.912l10.113 21.425zm144.445 108.164c-42.183 0-76.5-34.318-76.5-76.5 0-27.833 14.946-52.235 37.229-65.621l6.445 13.652c-17.215 10.912-28.675 30.121-28.675 51.969 0 33.912 27.589 61.5 61.501 61.5 15.774 0 30.773-5.966 42.234-16.798l-10.303-10.901c-8.665 8.189-20.005 12.7-31.932 12.7-25.641 0-46.501-20.86-46.501-46.5 0-15.858 7.984-29.88 20.138-38.277l10.531 22.307c-4.115 4.08-6.668 9.731-6.668 15.969 0 12.406 10.094 22.5 22.5 22.5s22.5-10.094 22.5-22.5-10.094-22.5-22.5-22.5c-.767 0-1.526.039-2.274.115l-10.531-22.308c4.071-1.168 8.363-1.807 12.804-1.807 25.641 0 46.5 20.86 46.5 46.5 0 7.342-1.662 14.367-4.941 20.879l13.398 6.745c4.342-8.624 6.543-17.918 6.543-27.625 0-33.912-27.589-61.5-61.5-61.5-6.73 0-13.205 1.102-19.271 3.109l-6.444-13.65c8.041-2.879 16.696-4.459 25.714-4.459 42.183 0 76.5 34.318 76.5 76.5s-34.314 76.501-76.497 76.501zm7.5-76.5c0 4.136-3.364 7.5-7.5 7.5s-7.5-3.364-7.5-7.5 3.364-7.5 7.5-7.5 7.5 3.364 7.5 7.5z"/></g></svg>