<svg id="Capa_1" enable-background="new 0 0 512 512" height="512" viewBox="0 0 512 512" width="512" xmlns="http://www.w3.org/2000/svg"><g><g><g clip-rule="evenodd" fill-rule="evenodd"><path d="m109.25 308.1h293.5v-112.498h-293.5zm53.662-290.605c19.889 73.249 166.287 73.249 186.175 0l-31.821-9.995c-6.473 48.688-116.058 48.689-122.532 0z" fill="#d56a4e"/><path d="m109.25 504.5h293.5v-196.4h-293.5zm.001-308.898h293.499v50.648h94.25l-7.5-143.501c-1.722-32.955-28.517-50.112-60-60l-80.412-25.255c-19.889 73.249-166.287 73.249-186.175 0l-80.413 25.255c-31.483 9.888-58.278 27.046-60 60l-7.5 143.501h94.25v-50.648z" fill="#b4d8f2"/><path d="m194.734 7.5c6.473 48.689 116.058 48.688 122.532 0z" fill="#6e91ef"/><path d="m109.25 195.602h22.5v112.499h-22.5z" fill="#ce3f29"/><path d="m67.466 48.246c-24.569 10.451-43.527 26.959-44.966 54.503l-7.5 143.501h22.5l7.5-143.501c.91-17.417 9.607-38.34 22.466-54.503zm41.784 456.254h22.5v-196.4h-22.5zm0-308.898h22.5v-37.499h-22.5z" fill="#6e91ef"/></g><g><path d="m418.264 78.526-14.312-4.495 4.494-14.311 14.312 4.495zm-28.622-8.989-14.311-4.495 4.494-14.311 14.311 4.495z" fill="#fff"/></g></g><g><path d="m496.989 102.357c-1.632-31.217-23.582-53.68-65.242-66.763l-113.331-35.594h-124.832l-84.737 26.614 4.494 14.311 44.813-14.074c6.339 15.859 18.599 29.047 35.858 38.435 17.362 9.444 39.377 14.646 61.988 14.646 22.61 0 44.625-5.202 61.987-14.646 17.259-9.389 29.519-22.577 35.858-38.435l73.408 23.055c35.558 11.167 53.469 28.581 54.758 53.236l7.087 135.609h-78.849v-80.648h-15v30h-278.499v-30h-15v80.648h-78.848l7.087-135.61c1.288-24.655 19.2-42.068 54.758-53.235l14.283-4.486-4.494-14.311-14.283 4.486c-41.661 13.083-63.611 35.545-65.242 66.762l-7.913 151.393h94.652v258.25h218.5v-15h-203.5v-181.4h278.499v181.4h-29.999v15h44.999v-258.25h94.653zm-189.935-87.357c-7.998 14.717-30.635 21.517-51.053 21.517-20.42 0-43.057-6.799-51.055-21.517zm-51.054 49.931c-33.56 0-70.981-13.243-83.474-42.595l16.899-5.307c3.685 9.996 11.395 18.354 22.716 24.46 11.991 6.467 27.567 10.028 43.86 10.028s31.869-3.562 43.859-10.028c11.321-6.105 19.03-14.463 22.715-24.459l16.898 5.307c-12.493 29.351-49.914 42.594-83.473 42.594zm-139.25 235.669v-97.499h278.499v97.499z"/><path d="m335.25 497h15v15h-15z"/></g></g></svg>