<svg id="Capa_1" enable-background="new 0 0 512 512" height="512" viewBox="0 0 512 512" width="512" xmlns="http://www.w3.org/2000/svg"><g><g><g clip-rule="evenodd" fill-rule="evenodd"><path d="m22.5 436h467c8.25 0 15-6.75 15-15v-330c0-8.25-6.75-15-15-15h-467c-8.25 0-15 6.75-15 15v330c0 8.25 6.75 15 15 15zm44.999-150c0-57.99 47.01-105 105-105s105 47.01 105 105-47.01 105-105 105c-57.989.001-105-47.009-105-105zm317.001-119.997v-30h60v30zm-294.501-.004c-12.427 0-22.5-10.074-22.5-22.5s10.073-22.5 22.5-22.5c12.426 0 22.5 10.074 22.5 22.5s-10.073 22.5-22.5 22.5zm234.502 180.002h45v45h-45zm0-104.999v-45h45v45zm74.999 0v-45h45v45zm0 29.999h45v45h-45zm-74.999 0h45v45h-45zm74.999 75h45v45h-45z" fill="#a4a1a3"/><path d="m67.499 286c0 57.99 47.01 105 105 105s105-47.01 105-105-47.01-105-105-105c-57.989 0-105 47.01-105 105zm52.501 0c0-28.984 23.516-52.5 52.5-52.5s52.5 23.516 52.5 52.5-23.516 52.5-52.5 52.5-52.5-23.516-52.5-52.5z" fill="#a4a1a3"/><path d="m120 286c0 28.984 23.516 52.5 52.5 52.5s52.5-23.516 52.5-52.5-23.516-52.5-52.5-52.5c-28.984.001-52.5 23.517-52.5 52.5zm52.499 22.5c-12.426 0-22.5-10.073-22.5-22.5s10.074-22.5 22.5-22.5c12.427 0 22.5 10.073 22.5 22.5s-10.073 22.5-22.5 22.5z" fill="#f9ee92"/><circle cx="172.499" cy="286" fill="#ecc87d" r="22.5"/><circle cx="89.999" cy="143.499" fill="#f9ee92" r="22.5"/><path d="m324.501 241.002h45v-45h-45zm0 149.999h45v-45h-45zm74.999 0h45v-45h-45zm-74.999-75h45v-45h-45zm74.999 0h45v-45h-45zm0-74.999h45v-45h-45z" fill="#f9ee92"/><path d="m384.5 136.003h60v30h-60z" fill="#e5ecf5"/><path d="m22.5 436h22.5c-8.25 0-15-6.75-15-15v-330c0-8.25 6.75-15 15-15h-22.5c-8.25 0-15 6.75-15 15v330c0 8.25 6.75 15 15 15z" fill="#7a7979"/><path d="m67.499 286c0 62.598 54.277 111.001 116.25 104.399-52.7-5.614-93.75-50.21-93.75-104.399s41.051-98.785 93.75-104.399c-61.973-6.601-116.25 41.801-116.25 104.399z" fill="#7a7979"/><path d="m324.501 241.002h22.5v-45h-22.5zm0 149.999h22.5v-45h-22.5zm74.999 0h22.5v-45h-22.5zm-74.999-75h22.5v-45h-22.5zm74.999 0h22.5v-45h-22.5zm0-74.999h22.5v-45h-22.5z" fill="#ecc87d"/></g><g><path d="m482 151h-15v-15h15zm0-30h-15v-15h15z" fill="#fff"/></g></g><g><path d="m429.5 428.5h15v15h-15z"/><path d="m489.5 68.5h-467c-12.406 0-22.5 10.094-22.5 22.5v330c0 12.406 10.094 22.5 22.5 22.5h392v-15h-392c-4.136 0-7.5-3.364-7.5-7.5v-330c0-4.136 3.364-7.5 7.5-7.5h467c4.136 0 7.5 3.364 7.5 7.5v330c0 4.136-3.364 7.5-7.5 7.5h-30v15h30c12.406 0 22.5-10.094 22.5-22.5v-330c0-12.406-10.094-22.5-22.5-22.5z"/><path d="m172.5 398.5c62.033 0 112.5-50.467 112.5-112.5s-50.467-112.5-112.5-112.5c-27.075 0-53.238 9.758-73.67 27.476l9.827 11.332c17.705-15.353 40.378-23.808 63.843-23.808 53.762 0 97.5 43.738 97.5 97.5s-43.738 97.5-97.5 97.5-97.5-43.738-97.5-97.5c0-23.466 8.455-46.14 23.808-63.844l-11.332-9.827c-17.719 20.432-27.476 46.595-27.476 73.671 0 62.033 50.467 112.5 112.5 112.5z"/><path d="m392 323.501h60v-60h-60zm15-45h30v30h-30z"/><path d="m392 398.5h60v-60h-60zm15-45h30v30h-30z"/><path d="m377.001 263.501h-60v60h60zm-15 45h-30v-30h30z"/><path d="m377 173.503h75v-45h-75zm15-30h45v15h-45z"/><path d="m392 248.502h60v-60h-60zm15-45h30v30h-30z"/><path d="m377.001 188.502h-60v60h60zm-15 45h-30v-30h30z"/><path d="m317.001 398.5h60v-60h-60zm15-45h30v30h-30z"/><path d="m119.999 143.5c0-16.542-13.458-30-30-30s-30 13.458-30 30 13.458 30 30 30 30-13.458 30-30zm-45 0c0-8.271 6.729-15 15-15s15 6.729 15 15-6.729 15-15 15-15-6.729-15-15z"/><path d="m287.002 128.502h15v15h-15z"/><path d="m287.002 158.502h15v15h-15z"/><path d="m317.001 128.502h15v15h-15z"/><path d="m317.001 158.502h15v15h-15z"/><path d="m347.001 158.502h15v15h-15z"/><path d="m347.001 128.502h15v15h-15z"/><path d="m232.5 286c0-33.084-26.916-60-60-60s-60 26.916-60 60 26.916 60 60 60 60-26.916 60-60zm-105 0c0-24.813 20.187-45 45-45s45 20.187 45 45-20.187 45-45 45-45-20.187-45-45z"/><path d="m202.5 286c0-16.542-13.458-30-30-30s-30 13.458-30 30 13.458 30 30 30 30-13.458 30-30zm-45 0c0-8.271 6.729-15 15-15s15 6.729 15 15-6.729 15-15 15-15-6.729-15-15z"/></g></g></svg>