<svg id="Capa_1" enable-background="new 0 0 512 512" height="512" viewBox="0 0 512 512" width="512" xmlns="http://www.w3.org/2000/svg"><g><g><g clip-rule="evenodd" fill-rule="evenodd"><path d="m197.781 227.183h116.438v217.317h-116.438z" fill="#ecc87d"/><path d="m149.603 504.5h212.794c6.501 0 11.822-7.094 11.822-15.762v-321.555h-236.438v321.555c0 8.669 5.321 15.762 11.822 15.762zm48.178-60v-217.317h116.438v217.317z" fill="#b4d8f2"/><path d="m137.781 167.183h236.438c0-17.339-14.186-31.525-31.525-31.525h-173.388c-17.339 0-31.525 14.186-31.525 31.525z" fill="#b4d8f2"/><path d="m169.306 135.658h173.388v-11.516c0-26.008-21.279-47.287-47.287-47.287h-9.263-60.287-9.263c-26.008 0-47.287 21.279-47.287 47.287z" fill="#ecc87d"/><path d="m225.856 76.855h60.287v-53.593c0-8.669-7.093-15.762-15.762-15.762h-28.762c-8.669 0-15.762 7.093-15.762 15.762v53.593z" fill="#e5ecf5"/><path d="m197.781 227.183h22.5v217.317h-22.5z" fill="#d99460"/><path d="m149.603 504.5h22.5c-6.501 0-11.822-7.093-11.822-15.762v-321.555h-22.5v321.555c0 8.669 5.321 15.762 11.822 15.762z" fill="#6e91ef"/><path d="m137.781 167.183h22.5c0-17.339 14.186-31.525 31.525-31.525h-22.5c-17.339 0-31.525 14.186-31.525 31.525z" fill="#6e91ef"/><path d="m169.306 135.658h22.5l.001-11.516c0-26.008 21.279-47.287 47.287-47.287h-13.237-9.263c-26.008 0-47.287 21.279-47.287 47.287z" fill="#d99460"/><path d="m225.856 76.855h22.5v-53.593c0-8.669 7.093-15.762 15.762-15.762h-22.5c-8.669 0-15.762 7.093-15.762 15.762z" fill="#b0c5e0"/></g><g><path d="m351.719 234.683h-15v-15h15zm0-30h-15v-15h15z" fill="#fff"/></g></g><g><path d="m248.5 34.678h15v15h-15z"/><path d="m302.397 497h15v15h-15z"/><path d="m190.281 452h131.438v-232.317h-131.438zm15-217.317h101.438v202.317h-101.438z"/><path d="m396.223 159.683h-15.235c-3.033-15.513-15.281-27.761-30.794-30.794v-4.746c0-30.21-24.578-54.788-54.788-54.788h-1.763v-46.093c0-12.826-10.435-23.262-23.262-23.262h-28.762c-12.827 0-23.262 10.436-23.262 23.262v46.093h-1.763c-9.436 0-18.76 2.468-26.963 7.138l7.42 13.036c5.947-3.385 12.705-5.174 19.543-5.174h78.813c21.939 0 39.788 17.849 39.788 39.788v4.016h-158.389v-4.016c0-9.882 3.693-19.377 10.399-26.736l-11.087-10.104c-9.229 10.127-14.312 23.21-14.312 36.839v4.746c-15.513 3.033-27.761 15.281-30.794 30.794h-15.235v15h14.504v314.055c0 12.827 8.668 23.262 19.322 23.262h137.794v-15h-137.794c-1.523 0-4.322-3.137-4.322-8.262v-314.054h221.438v314.055c0 5.125-2.798 8.262-4.322 8.262h-30v15h30c10.654 0 19.322-10.436 19.322-23.262v-314.055h14.504zm-162.867-136.421c0-4.556 3.707-8.262 8.262-8.262h28.762c4.556 0 8.262 3.707 8.262 8.262v46.093h-45.287v-46.093zm-64.05 119.896h173.389c10.628 0 19.661 6.94 22.819 16.525h-219.028c3.159-9.585 12.191-16.525 22.82-16.525z"/></g></g></svg>