<svg id="Capa_1" enable-background="new 0 0 512.035 512.035" height="512" viewBox="0 0 512.035 512.035" width="512" xmlns="http://www.w3.org/2000/svg"><g><g><g clip-rule="evenodd" fill-rule="evenodd"><path d="m64.757 255.25c0 136.169 117.939 202.18 229.638 186.28 4.345-12.713 15.528-27.693 30.754-53.378l12.735-56.7-7.8-1.752c-8.161-1.833-13.386-10.085-11.553-18.245-74.109-32.684-41.503-131.873 42.165-107.267 5.044-30.496 10.073-60.492 17.615-90.549-95.874-90.365-313.554-32.937-313.554 141.611zm306.966 166.569c-.832-7.023-1.746-14.894-2.577-23.786l12.735-56.7 7.8 1.752c8.194 1.841 16.405-3.358 18.246-11.553 46.284 19.738.487 79.785-36.204 90.287zm-208.106-147.02c20.632 1.801 35.898 19.984 34.098 40.616-1.801 20.631-19.986 35.896-40.618 34.096-20.633-1.801-35.899-19.984-34.098-40.616s19.986-35.897 40.618-34.096zm93.006 53.115c20.631 1.8 35.896 19.984 34.096 40.616-1.801 20.631-19.985 35.896-40.616 34.096-20.631-1.801-35.896-19.985-34.096-40.616 1.801-20.631 19.985-35.896 40.616-34.096zm27.188-175.629c-1.801 20.631-19.985 35.896-40.616 34.096s-35.896-19.984-34.096-40.615c1.801-20.631 19.985-35.897 40.616-34.095 20.632 1.8 35.896 19.984 34.096 40.614zm-90.598 58.579c-1.801 20.631-19.984 35.896-40.615 34.096s-35.896-19.984-34.096-40.615c1.801-20.631 19.985-35.896 40.615-34.096 20.632 1.8 35.896 19.984 34.096 40.615z" fill="#b4d8f2"/><path d="m216.007 362.01c-1.801 20.631 13.465 38.815 34.096 40.616 20.631 1.8 38.815-13.465 40.616-34.096s-13.465-38.815-34.096-40.616c-20.631-1.8-38.815 13.465-40.616 34.096z" fill="#ce3f29"/><path d="m122.999 308.894c-1.801 20.631 13.465 38.815 34.098 40.616 20.632 1.801 38.818-13.465 40.618-34.096 1.801-20.631-13.465-38.815-34.098-40.616-20.632-1.8-38.817 13.465-40.618 34.096z" fill="#d56a4e"/><path d="m152.598 244.96c20.631 1.8 38.815-13.464 40.615-34.096 1.8-20.631-13.465-38.815-34.096-40.615-20.631-1.801-38.815 13.465-40.615 34.096-1.8 20.63 13.465 38.814 34.096 40.615z" fill="#ecc87d"/><path d="m243.195 186.381c20.631 1.801 38.815-13.464 40.616-34.096 1.8-20.631-13.465-38.815-34.096-40.615-20.631-1.801-38.815 13.464-40.616 34.095-1.799 20.632 13.465 38.816 34.096 40.616z" fill="#f9ee92"/><path d="m64.757 255.25c0 127.466 103.346 193.451 208.177 188.323-96.627-4.665-185.677-70.001-185.677-188.323 0-114.562 93.772-178.671 185.331-183.656-97.996-5.2-207.831 59.667-207.831 183.656z" fill="#6e91ef"/><path d="m388.574 311.536 33.54-117.533c60.505-212.029-1.377-249.437-43.802-80.365-4.935 19.666-9.606 42.125-13.791 67.429l-6.749 40.809-12.154 73.488-1.04 6.289z" fill="#ecc87d"/><path d="m387.02 181.067c4.185-25.303 8.856-47.763 13.791-67.429 13.124-52.301 28.106-84.82 40.755-98.547-12.009-23.549-40.44 7.626-63.255 98.547-4.935 19.666-9.606 42.125-13.791 67.429-6.648 40.196-13.295 80.391-19.944 120.586l21.723 4.879c6.665-41.838 13.808-83.661 20.721-125.465z" fill="#d99460"/><path d="m322.464 502.99c61.191-26.405 54.416-33.55 47.904-92.967-.414-3.779-.827-7.769-1.222-11.989l-43.997-9.882c-15.226 25.685-26.409 40.665-30.754 53.378-5.97 17.468.969 30.658 28.069 61.46z" fill="#f9ee92"/><path d="m389.68 343.085c8.912 2.002 17.657-4.338 18.541-13.396.733-7.525-4.302-14.708-11.849-16.402l-59.596-13.386c-8.194-1.84-16.405 3.358-18.246 11.553-1.833 8.161 3.392 16.412 11.553 18.246z" fill="#ecc87d"/><path d="m324.459 342.196h58.112v45.093h-58.112z" fill="#ecc87d" transform="matrix(.219 -.976 .976 .219 -79.836 629.727)"/><path d="m347.258 302.255-10.481-2.354c-8.194-1.84-16.405 3.358-18.246 11.553-1.833 8.161 3.392 16.412 11.553 18.246l21.558 4.842c-12.138-6.58-15.857-24.365-4.384-32.287z" fill="#d99460"/><path d="m325.149 388.151 21.455 4.819 12.699-56.708-21.419-4.811z" fill="#d99460"/><path d="m322.464 502.99c6.031-2.603 11.393-5.017 16.169-7.313-21.829-25.705-27.213-38.128-21.738-54.147 4.087-11.96 14.227-25.926 28.09-48.923l-19.836-4.455c-15.226 25.685-26.409 40.665-30.754 53.378-5.97 17.468.969 30.658 28.069 61.46z" fill="#ecc87d"/></g><g><path d="m410.521 145.162-14.635-3.287 3.287-14.636 14.635 3.287zm-67.454-10.99h-15v-15h15zm-29.999-15h-15v-15h15zm104.027-3.281-14.635-3.287 3.287-14.636 14.635 3.287z" fill="#fff"/></g></g><g><path d="m415.749 327.033c-.201-3.859-1.378-7.634-3.515-11.008-3.267-5.159-8.315-8.73-14.217-10.055l-.052-.012 31.361-109.898c27.867-97.656 33.353-172.744 13.973-191.294-4.738-4.537-10.775-5.893-17.002-3.819-17.978 5.991-36.803 42.79-52.15 99.194-48.913-38.725-124.564-47.558-192.669-21.486l5.363 14.009c65.75-25.172 138.679-15.615 183.154 23.572-4.745 19.386-9.086 40.711-12.873 63.607l-2.494 15.08c-18.078-3.836-34.983-2.423-49.3 4.2-14.944 6.913-26.261 19.156-31.863 34.473-5.565 15.212-4.948 31.84 1.738 46.819 6.685 14.977 18.91 27.197 35.495 35.605.537 9.923 7.581 18.713 17.743 20.995l.482.108-10.829 48.214c-4.744 7.97-9.102 14.922-12.961 21.076-7.071 11.276-12.618 20.146-16.108 28.247-58.924 7.225-117.959-9.311-158.68-44.645-38.002-32.975-58.088-79.577-58.088-134.768 0-69.7 36.911-126.899 101.268-156.932l-6.343-13.593c-32.184 15.019-59.165 37.35-78.027 64.581-21.167 30.557-31.898 66.201-31.898 105.944 0 59.668 21.874 110.188 63.258 146.097 37.15 32.237 88.263 49.986 141.347 49.986 7.681 0 15.405-.381 23.133-1.135-.099 1.581-.116 3.171-.007 4.79.791 11.768 6.1 23.692 31.846 52.956l3.6 4.091 5.003-2.159c7.839-3.383 14.229-6.31 19.533-8.948l-6.68-13.431c-3.896 1.938-8.438 4.053-13.787 6.418-17.423-20.179-23.94-30.884-24.549-39.933-.672-10.003 6.313-21.143 17.888-39.598 3.309-5.275 6.976-11.124 10.959-17.727l33.407 7.504c.776 7.667 1.59 14.517 2.323 20.697 4.279 36.039 4.546 44.074-13.811 55.757l8.055 12.654c25.956-16.52 24.958-33.576 21.103-66.358 11.694-4.709 23.787-13.335 33.974-24.381 12.723-13.795 20.189-28.771 21.022-42.168.893-14.337-5.872-25.997-19.125-33.326zm15.289-311.855c.91-.305 1.194-.241 1.888.424 4.162 3.983 8.348 19.619 6.451 50.573-2.043 33.328-10.507 76.818-24.476 125.77l-31.596 110.721-30.173-6.777 18.788-113.599c8.307-50.223 19.255-93.156 31.66-124.156 11.523-28.792 21.993-41.135 27.458-42.956zm-143.488 223.572c10.164-27.783 38.72-34.455 64.621-28.975l-13.697 82.82-.052-.012c-9.086-2.04-18.145 1.688-23.343 8.749-21.158-11.988-37.53-35.241-27.529-62.582zm38.299 74.348c.812-3.61 4.026-6.069 7.581-6.069.563 0 1.134.062 1.704.189l59.596 13.387c1.992.447 3.708 1.67 4.831 3.444s1.495 3.848 1.048 5.84c-.451 2.009-1.671 3.73-3.436 4.847-1.763 1.117-3.839 1.483-5.849 1.032l-59.597-13.386c-4.109-.923-6.801-5.175-5.878-9.284zm47.071 33.909-9.448 42.065-29.362-6.595 9.448-42.065zm46.984 12.424c-1.105 17.766-21.243 41.857-41.845 51.9-.45-4.022-.901-8.295-1.333-12.825l10.829-48.212.482.108c1.663.374 3.34.559 5.006.559 4.262 0 8.453-1.208 12.154-3.553 2.376-1.504 4.396-3.404 6.034-5.58 6.278 4.348 9.137 10.149 8.673 17.603z"/><path d="m164.27 267.327c-24.714-2.146-46.584 16.197-48.742 40.915-1.045 11.974 2.636 23.638 10.364 32.844s18.579 14.851 30.554 15.896c1.325.115 2.64.172 3.945.172 23.059 0 42.754-17.694 44.796-41.087 2.157-24.718-16.199-46.582-40.917-48.74zm25.974 47.435c-1.438 16.478-16.015 28.715-32.495 27.276-7.983-.697-15.217-4.46-20.37-10.597-5.152-6.137-7.605-13.913-6.909-21.895 1.361-15.596 14.49-27.391 29.864-27.391.87 0 1.748.038 2.63.115 16.481 1.438 28.718 16.015 27.28 32.492z"/><path d="m159.769 162.777c-24.718-2.147-46.582 16.198-48.739 40.915-1.045 11.974 2.635 23.638 10.363 32.844s18.578 14.851 30.552 15.896c1.324.115 2.639.172 3.945.172 23.057 0 42.752-17.694 44.794-41.087 2.158-24.718-16.197-46.583-40.915-48.74zm25.972 47.435c-1.438 16.479-16.011 28.721-32.491 27.276-7.983-.697-15.216-4.46-20.368-10.597s-7.605-13.913-6.908-21.895c1.361-15.596 14.489-27.391 29.861-27.391.87 0 1.748.038 2.63.115 16.479 1.438 28.714 16.014 27.276 32.492z"/><path d="m208.535 361.358c-2.157 24.718 16.198 46.582 40.916 48.739 1.334.116 2.665.174 3.989.174 10.554 0 20.675-3.671 28.854-10.538 9.206-7.728 14.851-18.578 15.896-30.551 1.046-11.974-2.635-23.638-10.363-32.844-7.728-9.205-18.578-14.851-30.552-15.896-24.723-2.15-46.582 16.198-48.74 40.916zm67.803-15.375c5.152 6.137 7.605 13.913 6.908 21.896-.696 7.982-4.459 15.215-10.597 20.367-6.137 5.152-13.908 7.607-21.895 6.909-16.478-1.438-28.714-16.014-27.276-32.492 1.361-15.597 14.489-27.392 29.861-27.392.87 0 1.749.038 2.63.115 7.984.696 15.218 4.46 20.369 10.597z"/><path d="m291.283 152.937c2.156-24.717-16.198-46.581-40.916-48.738-11.979-1.042-23.638 2.635-32.844 10.363s-14.851 18.578-15.896 30.552c-2.157 24.718 16.198 46.582 40.915 48.739 1.335.116 2.666.174 3.99.174 10.553 0 20.675-3.671 28.854-10.538 9.207-7.727 14.852-18.578 15.897-30.552zm-25.541 19.064c-6.137 5.152-13.915 7.605-21.895 6.908-16.478-1.438-28.714-16.014-27.276-32.492.696-7.982 4.46-15.215 10.597-20.367 5.453-4.578 12.199-7.024 19.235-7.024.882 0 1.771.039 2.66.116 16.478 1.438 28.714 16.013 27.276 32.491-.695 7.983-4.459 15.216-10.597 20.368z"/><path d="m258.803 223.838-13.174-7.173c-15.087 27.707-10.117 60.611.886 79.459l12.954-7.563c-9.232-15.815-12.426-43.126-.666-64.723z"/></g></g></svg>