<svg id="Capa_1" enable-background="new 0 0 512 512" height="512" viewBox="0 0 512 512" width="512" xmlns="http://www.w3.org/2000/svg"><g><g><g clip-rule="evenodd" fill-rule="evenodd"><path d="m7.5 235.333h151.137c19.807-33.083 55.998-55.23 97.362-55.23s77.555 22.147 97.362 55.23h151.139v-76.833c0-8.25-6.75-15-15-15h-108.5-250-33.5-60-15c-8.25 0-15 6.75-15 15z" fill="#ecc87d"/><path d="m131 143.5h250l-22.5-60c-2.896-7.725-6.751-15-15-15h-175c-8.249 0-12.104 7.277-15 15zm-108.5 300h467c8.25 0 15-6.75 15-15v-193.167h-151.138c10.182 17.007 16.035 36.903 16.035 58.167 0 23.178-6.954 44.731-18.889 62.688l12.192 12.192c8.751 8.75 8.751 23.069 0 31.819-8.751 8.751-23.069 8.751-31.82 0l-12.192-12.192c-17.957 11.935-39.511 18.889-62.689 18.889-62.628 0-113.397-50.77-113.397-113.397 0-21.263 5.853-41.16 16.035-58.167h-151.137v193.168c0 8.25 6.75 15 15 15z" fill="#a4a1a3"/><path d="m172.603 293.5c0-46.059 37.338-83.397 83.397-83.397s83.397 37.338 83.397 83.397-37.338 83.397-83.397 83.397-83.397-37.338-83.397-83.397zm-30 0c0 62.628 50.77 113.397 113.397 113.397s113.397-50.77 113.397-113.397c0-21.263-5.853-41.16-16.035-58.167-19.807-33.083-55.998-55.23-97.362-55.23s-77.555 22.147-97.362 55.23c-10.182 17.007-16.035 36.903-16.035 58.167z" fill="#d56a4e"/><circle cx="256" cy="293.5" fill="#b4d8f2" r="83.397"/><path d="m37.5 143.5h60v-15c0-8.25-6.75-15-15-15h-30.001c-8.25 0-15 6.75-15 15v15z" fill="#e5ecf5"/><path d="m37.5 143.5h22.5v-15c0-8.25 6.75-15 15-15h-22.5c-8.25 0-15 6.75-15 15z" fill="#b0c5e0"/><path d="m131 143.5h22.5l22.5-60c2.896-7.723 6.751-15 15-15h-22.5c-8.249 0-12.104 7.277-15 15z" fill="#7a7979"/><path d="m172.603 293.5c0 46.059 37.338 83.397 83.397 83.397 3.816 0 7.57-.262 11.25-.758-40.738-5.494-72.147-40.396-72.147-82.639s31.41-77.145 72.147-82.639c-3.68-.496-7.434-.758-11.25-.758-46.059 0-83.397 37.338-83.397 83.397z" fill="#6e91ef"/><path d="m7.5 235.333h22.5v-76.833c0-8.25 6.75-15 15-15h-7.5-15c-8.25 0-15 6.75-15 15z" fill="#d99460"/><path d="m444.5 143.5h30v-15c0-8.25-6.75-15-15-15h-15z" fill="#e5ecf5"/><path d="m444.5 143.5h-30v-15c0-8.25 6.75-15 15-15h15z" fill="#b0c5e0"/><path d="m330.881 400.2c8.751 8.751 23.069 8.75 31.82 0s8.751-23.069 0-31.819l-12.192-12.192c-8.379 12.607-19.213 23.441-31.82 31.82z" fill="#d56a4e"/><path d="m7.5 235.333v193.167c0 8.25 6.75 15 15 15h22.5c-8.25 0-15-6.75-15-15v-193.167z" fill="#7a7979"/></g><g><path d="m482 181h-15v-15h15zm-30 0h-15v-15h15z" fill="#fff"/></g></g><g><path d="m199.5 98.5h113v15h-113z"/><path d="m429.5 436h15v15h-15z"/><path d="m489.5 136h-7.5v-7.5c0-12.406-10.093-22.5-22.499-22.5h-30.001c-12.406 0-22.5 10.093-22.5 22.499v7.5h-20.802l-20.675-55.134c-2.038-5.432-7.45-19.865-22.023-19.865h-130v15h130c2.021 0 4.472.783 7.978 10.133l18.7 49.867h-228.356l18.7-49.868c3.505-9.349 5.957-10.132 7.978-10.132h29.999v-15h-29.999c-14.574 0-19.985 14.433-22.022 19.866l-20.676 55.134h-20.802v-7.5c0-12.406-10.094-22.5-22.5-22.5h-30.001c-12.406 0-22.499 10.094-22.499 22.5v7.5h-7.5c-12.406 0-22.5 10.093-22.5 22.5v270c0 12.407 10.094 22.5 22.5 22.5h392v-15h-392c-4.136 0-7.5-3.364-7.5-7.5v-185.667h131.247c-7.147 15.42-11.145 32.584-11.145 50.667 0 66.663 54.234 120.897 120.897 120.897 22.473 0 43.529-6.171 61.575-16.896l8.002 8.002c5.649 5.649 13.184 8.76 21.214 8.76 8.031 0 15.564-3.111 21.212-8.76 5.649-5.648 8.761-13.182 8.761-21.213s-3.111-15.564-8.76-21.213l-8.002-8.002c10.725-18.046 16.896-39.102 16.896-61.575 0-18.083-3.998-35.247-11.145-50.667h131.248v185.667c0 4.135-3.364 7.5-7.5 7.5h-30v15h30c12.406 0 22.5-10.093 22.5-22.5v-270c0-12.407-10.094-22.5-22.5-22.5zm-22.5-7.5v7.5h-15v-15h7.501c4.135 0 7.499 3.364 7.499 7.5zm-45 0c0-4.135 3.364-7.499 7.5-7.499h7.5v15h-15zm-377 0c0-4.135 3.364-7.499 7.499-7.499h30.001c4.136 0 7.5 3.364 7.5 7.499v7.5h-45zm312.397 245.184c2.815 2.816 4.366 6.583 4.366 10.606s-1.551 7.791-4.367 10.607c-2.815 2.815-6.582 4.366-10.605 4.366-4.024 0-7.791-1.55-10.606-4.366l-6.002-6.002c7.915-6.169 15.044-13.298 21.213-21.213zm-101.397 25.713c-58.393 0-105.897-47.505-105.897-105.897s47.505-105.897 105.897-105.897 105.897 47.505 105.897 105.897-47.504 105.897-105.897 105.897zm101.461-171.564c-21.571-33.215-58.991-55.23-101.461-55.23s-79.89 22.016-101.461 55.23h-139.539v-69.333c0-4.135 3.364-7.5 7.5-7.5h467c4.136 0 7.5 3.364 7.5 7.5v69.333z"/><path d="m256 202.603c-50.121 0-90.897 40.776-90.897 90.897s40.776 90.897 90.897 90.897 90.897-40.776 90.897-90.897-40.776-90.897-90.897-90.897zm0 166.794c-41.85 0-75.897-34.047-75.897-75.897s34.047-75.897 75.897-75.897 75.897 34.047 75.897 75.897-34.047 75.897-75.897 75.897z"/></g></g></svg>