<svg id="Capa_1" enable-background="new 0 0 512.316 512.316" height="512" viewBox="0 0 512.316 512.316" width="512" xmlns="http://www.w3.org/2000/svg"><g><g><g clip-rule="evenodd" fill-rule="evenodd"><path d="m149.456 306.476c64.808-10.563 148.539-10.557 213.367 0-8.357-97.496 12.777-175.762-106.684-231.735-119.461 55.973-98.327 134.239-106.683 231.735zm106.683-55.739c-24.853 0-45-20.147-45-45s20.147-45 45-45 45 20.147 45 45-20.147 45-45 45z" fill="#fff"/><path d="m362.822 306.477c49.901 8.127 88.602 22.506 98.851 43.129l-1.13-61.96c4.653-116.378-88.799-212.905-204.404-212.905 119.461 55.973 98.327 134.239 106.683 231.736z" fill="#a4a1a3"/><circle cx="256.139" cy="205.737" fill="#f9ee92" r="45"/><path d="m256.139 74.741c12.767 0 25.249 1.165 37.348 3.392 1.964-21.931-15.254-40.892-37.348-40.892-22.095 0-39.312 18.961-37.348 40.892 12.099-2.227 24.581-3.392 37.348-3.392z" fill="#ce3f29"/><path d="m256.188 298.556c-46.76-.004-183.486 6.806-205.474 51.05-16.214 32.627-43.075 75.419-43.075 112.222 1.287 11.388 9.092 16.569 27.93 9.681 75.135-27.471 148.677-41.498 220.619-42.112 71.942.614 145.484 14.641 220.619 42.112 18.839 6.888 26.643 1.707 27.93-9.681 0-36.803-26.861-79.595-43.076-112.222-21.987-44.244-158.713-51.055-205.473-51.05z" fill="#d56a4e"/><path d="m149.462 306.656c-49.901 8.127-88.602 22.506-98.851 43.129l1.13-61.96c-4.652-116.378 88.799-212.905 204.405-212.905-119.461 55.973-98.327 134.24-106.684 231.736z" fill="#a4a1a3"/><path d="m7.639 461.828c1.267 11.212 8.852 16.407 27.063 9.992-21.349-17.926 40.243-126.94 50.994-148.505-12.359 5.114-28.748 13.752-34.982 26.291-5.828 11.726-13.03 24.766-19.867 38.368-10.976 21.839-23.208 48.916-23.208 73.854z" fill="#ce3f29"/><path d="m73.489 329.083c-11.067 6.009-19.005 12.91-22.877 20.703l1.13-61.96c-4.653-116.379 88.798-212.906 204.404-212.906-41.396 5.784-185.772 57.354-181.905 212.905z" fill="#7a7979"/><path d="m211.139 205.737c0 29.571 27.99 50.856 56.25 43.582-19.409-4.995-33.75-22.614-33.75-43.582s14.341-38.587 33.75-43.582c-28.259-7.274-56.25 14.012-56.25 43.582z" fill="#ecc87d"/></g><g><path d="m415.092 210.526h-15v-15h15zm-15.001-29.999h-15v-15h15z" fill="#fff"/></g></g><g><path d="m470.642 350.532c-.585-1.095-1.099-2.057-1.503-2.821l-1.094-59.986c2.269-58.231-18.687-113.413-59.022-155.393-29.737-30.949-67.07-51.631-107.982-60.369-.645-10.197-4.743-19.986-11.71-27.605-8.495-9.291-20.593-14.619-33.192-14.619s-24.697 5.328-33.192 14.618c-6.977 7.63-11.076 17.437-11.712 27.65-25.649 5.521-50.085 15.773-72.177 30.431l8.293 12.499c22.452-14.898 47.515-24.898 73.812-29.6-72.129 46.324-74.261 105.61-76.669 173.036-.483 13.511-.982 27.429-2.052 41.723-35.005 6.15-65.602 15.73-83.895 29.606l.697-41.971-.009-.216c-1.313-32.05 5.226-64.166 18.91-92.876 13.229-27.755 33.1-52.402 57.466-71.275l-9.186-11.858c-26.211 20.303-47.588 46.818-61.821 76.68-14.699 30.84-21.739 65.318-20.365 99.727l-.994 59.802c-.514.968-1.203 2.246-1.995 3.715-38.051 70.573-49.126 108.854-35.91 124.124 6.54 7.557 17.576 8.565 32.805 2.999 70.89-25.919 141.303-39.886 209.282-41.513 67.856-1.625 135.207 9.001 200.215 31.577l4.921-14.17c-66.711-23.167-135.847-34.065-205.495-32.403-69.619 1.666-141.645 15.938-214.075 42.42-8.16 2.984-14.409 3.471-16.312 1.273-1.181-1.365-6.283-10.124 9.332-48.621 9.531-23.499 22.302-47.184 28.439-58.567 1.474-2.733 2.447-4.539 2.978-5.606 6.764-13.611 31.142-25.798 68.644-34.316 35.692-8.107 81.873-12.572 130.034-12.572 48.189 0 94.411 4.468 130.15 12.581 37.541 8.522 61.938 20.706 68.698 34.308.432.868 1.237 2.375 2.456 4.657 5.584 10.451 18.66 34.926 28.428 59.087 12.497 30.909 13.107 46.147 9.832 49.804-1.363 1.521-6.387 1.925-16.07-1.947-4.136-1.653-8.428-3.315-12.759-4.939l-5.267 14.045c4.23 1.586 8.421 3.208 12.457 4.822 6.84 2.735 12.84 4.102 17.973 4.102 6.25 0 11.214-2.027 14.841-6.077 13.469-15.042 2.303-53.891-36.205-125.966zm-236.626-296.05c5.744-6.281 13.601-9.741 22.123-9.741s16.379 3.459 22.123 9.741c3.877 4.239 6.384 9.321 7.384 14.785-9.688-1.333-19.537-2.026-29.507-2.026-9.936 0-19.791.693-29.511 2.045.997-5.471 3.507-10.56 7.388-14.804zm-76.367 243.192c.918-13.313 1.387-26.215 1.835-38.764 1.354-37.934 2.524-70.695 15.258-100.121 13.592-31.41 39.508-55.538 81.397-75.738 41.89 20.2 67.805 44.328 81.397 75.738 12.733 29.426 13.903 62.187 15.258 100.121.448 12.547.917 25.449 1.835 38.76-32.108-4.611-66.8-6.614-98.52-6.614-31.7 0-66.372 2.004-98.46 6.618zm212.187 2.417c-1.07-14.292-1.569-28.207-2.052-41.716-2.409-67.455-4.541-126.762-76.76-173.094 40.695 7.192 77.901 26.969 107.182 57.445 37.533 39.063 57.009 90.423 54.842 144.62l-.008.218.768 42.12c-18.312-13.871-48.938-23.446-83.972-29.593z"/><path d="m256.195 391.883c-70.486.568-143.195 13.435-216.106 38.242l4.831 14.2c71.391-24.29 142.515-36.887 211.396-37.442 71.348-.572 142.1 11.752 210.357 36.639l5.138-14.093c-69.948-25.503-142.499-38.145-215.616-37.546z"/><path d="m256.139 153.237c-28.949 0-52.5 23.551-52.5 52.5s23.551 52.5 52.5 52.5 52.5-23.551 52.5-52.5-23.551-52.5-52.5-52.5zm0 90c-20.678 0-37.5-16.822-37.5-37.5s16.822-37.5 37.5-37.5 37.5 16.822 37.5 37.5-16.822 37.5-37.5 37.5z"/></g></g></svg>