<svg id="Capa_1" enable-background="new 0 0 512 512" height="512" viewBox="0 0 512 512" width="512" xmlns="http://www.w3.org/2000/svg"><g><g><g clip-rule="evenodd" fill-rule="evenodd"><path d="m121 239.998h135c8.25 0 15 6.752 15 15v45c0 8.244-6.756 15-15 15h-52.5l-45 37.499v-37.499h-37.5v99.503h270v-219.502h-45v37.5l-45-37.5h-45c-8.243 0-15-6.753-15-15v-45c0-8.248 6.75-15 15-15h135v-82.499c0-16.497-13.499-30-30-30h-52.5l-15 30h-75l-15-30h-52.5c-16.5 0-30 13.5-30 30z" fill="#b4d8f2"/><path d="m151 504.5h210c16.498 0 30-13.502 30-30v-59.999h-270v59.999c0 16.5 13.502 30 30 30zm90-45c0-8.284 6.716-15 15-15s15 6.716 15 15-6.716 15-15 15c-8.285 0-15-6.716-15-15z" fill="#e5ecf5"/><ellipse cx="256" cy="459.5" fill="#eef4f9" rx="15" ry="15" transform="matrix(.532 -.847 .847 .532 -269.276 431.909)"/><path d="m158.5 352.497 44.999-37.499h52.501c8.244 0 15-6.756 15-15v-45c0-8.248-6.75-15-15-15h-150c-8.25 0-15 6.752-15 15v45c0 8.247 6.756 15 15 15h52.5z" fill="#d56a4e"/><path d="m256 194.999h45l44.999 37.5v-37.5h60c8.244 0 15-6.756 15-15v-45c0-8.248-6.75-15-15-15h-149.999c-8.25 0-15 6.752-15 15v45c0 8.247 6.757 15 15 15z" fill="#f9ee92"/><path d="m218.5 37.5h75l15-30h-105z" fill="#e5ecf5"/><path d="m121 239.998h22.5v-202.498c0-16.5 13.5-30 30-30h-22.5c-16.5 0-30 13.5-30 30zm22.499 75h-22.499v99.503h22.5v-99.503z" fill="#6e91ef"/><path d="m151 504.5h22.5c-16.498 0-30-13.5-30-30v-59.999h-22.5v59.999c0 16.5 13.502 30 30 30z" fill="#b0c5e0"/><path d="m128.5 239.998h-22.5c-8.25 0-15 6.752-15 15v45c0 8.247 6.756 15 15 15h22.5c-8.243 0-15-6.753-15-15v-45c0-8.249 6.75-15 15-15z" fill="#ce3f29"/><path d="m278.5 119.999h-22.5c-8.25 0-15 6.752-15 15v45c0 8.247 6.756 15 15 15h22.5c-8.243 0-15-6.753-15-15v-45c0-8.248 6.75-15 15-15z" fill="#ecc87d"/></g><g><path d="m361 82.5h-15v-15h15zm0-30h-15v-15h15z" fill="#fff"/></g></g><g><path d="m256 437c-12.406 0-22.5 10.093-22.5 22.5s10.093 22.5 22.5 22.5 22.5-10.093 22.5-22.5-10.094-22.5-22.5-22.5zm0 30c-4.136 0-7.5-3.364-7.5-7.5s3.364-7.5 7.5-7.5 7.5 3.364 7.5 7.5-3.365 7.5-7.5 7.5z"/><path d="m248.5 497h15v15h-15z"/><path d="m406 112.5h-7.5v-75c0-20.678-16.822-37.5-37.5-37.5h-210c-20.678 0-37.5 16.822-37.5 37.5v22.5h15v-22.5c0-12.407 10.093-22.5 22.5-22.5h47.865l14.999 30h84.271l14.999-30h47.866c12.407 0 22.5 10.093 22.5 22.5v75h-127.5c-12.407 0-22.5 10.093-22.5 22.5v45c0 12.407 10.093 22.5 22.5 22.5h42.285l55.214 46.012v-46.012h30v204.502h-255v-84.503h22.501v46.012l55.215-46.012h49.785c12.407 0 22.5-10.094 22.5-22.5v-45c0-12.406-10.093-22.5-22.5-22.5h-127.5v-157.499h-15v157.499h-7.5c-12.406 0-22.5 10.093-22.5 22.5v45c0 12.406 10.093 22.5 22.5 22.5h7.5v152.001c0 20.678 16.822 37.5 37.5 37.5h82.5v-15h-82.5c-12.407 0-22.5-10.093-22.5-22.5v-52.499h255v52.499c0 12.407-10.093 22.5-22.5 22.5h-82.5v15h82.5c20.678 0 37.5-16.822 37.5-37.5v-272.001h7.5c12.406 0 22.5-10.093 22.5-22.5v-45c0-12.406-10.094-22.499-22.5-22.499zm-117.135-82.5h-65.73l-7.5-15h80.73zm-190.365 269.998v-45c0-4.135 3.364-7.5 7.5-7.5h150c4.136 0 7.5 3.364 7.5 7.5v45c0 4.136-3.364 7.5-7.5 7.5h-55.215l-34.785 28.986v-28.987h-60c-4.135.001-7.5-3.364-7.5-7.499zm315-119.999c0 4.136-3.364 7.5-7.5 7.5h-67.5v28.987l-34.784-28.987h-47.716c-4.136 0-7.5-3.364-7.5-7.5v-45c0-4.135 3.364-7.5 7.5-7.5h150c4.135 0 7.5 3.364 7.5 7.5z"/><path d="m353.5 149.999h15v15h-15z"/><path d="m323.5 149.999h15v15h-15z"/><path d="m293.5 149.999h15v15h-15z"/><path d="m173.5 269.998h15v15h-15z"/><path d="m143.5 269.998h15v15h-15z"/><path d="m203.5 269.998h15v15h-15z"/></g></g></svg>