<svg id="Capa_1" enable-background="new 0 0 512.015 512.015" height="512" viewBox="0 0 512.015 512.015" width="512" xmlns="http://www.w3.org/2000/svg"><g><g><g clip-rule="evenodd" fill-rule="evenodd"><path d="m25.269 408.591c-28.117 14.88-24.389 62.309 22.461 55.693-6.616 46.85 40.814 50.578 55.694 22.462 13.379-25.281 10.489-54.238 2.479-80.634-26.397-8.01-55.353-10.901-80.634 2.479z" fill="#d56a4e"/><path d="m32.477 237.404c16.991 55.193 49.014 99.578 85.794 135.126l135.499-135.499c5.834-5.834 15.379-5.833 21.213.001 5.833 5.833 5.833 15.379 0 21.213l-134.382 134.381c33.696 28.292 69.508 50.029 100.42 66.549 72.966-38.995 173.224-107.043 208.544-221.772 14.507-47.123.026-94.564-29.516-124.226-7.215-7.245-15.329-13.428-24.138-18.288-42.937-23.687-102.397-15.916-154.89 53.839-107.359-142.664-243.863-26.054-208.544 88.676z" fill="#d56a4e"/><path d="m420.05 113.178 40.947-40.947-21.213-21.213-43.873 43.872c8.81 4.86 16.924 11.043 24.139 18.288z" fill="#ecc87d"/><path d="m487.891 99.124 14.999-90-90 15z" fill="#f9ee92"/><path d="m274.983 258.244c5.833-5.833 5.834-15.379 0-21.213s-15.38-5.834-21.213-.001l-164.8 164.801c6.132 1.211 11.843 2.736 16.933 4.281 1.544 5.089 3.069 10.8 4.279 16.934z" fill="#f9ee92"/><path d="m107.619 383.182-18.649 18.65c6.132 1.211 11.843 2.736 16.933 4.281 1.544 5.089 3.069 10.8 4.279 16.934l18.651-18.651c-1.518-5.461-3.245-10.896-4.892-16.322-5.425-1.647-10.861-3.373-16.322-4.892z" fill="#ecc87d"/><path d="m32.477 237.404c16.991 55.193 49.014 99.578 85.794 135.126l13.484-13.484c-45.987-46.836-66.632-88.681-76.779-121.642-22.393-72.74 24.292-146.216 88.817-153.901-75.588-8.951-136.241 72.934-111.316 153.901zm120.98 142.366-12.856 12.856c33.696 28.292 69.508 50.029 100.42 66.549 3.874-2.07 7.828-4.227 11.841-6.464-40.759-25.061-73.336-49.524-99.405-72.941z" fill="#ce3f29"/><path d="m25.269 408.591c-27.928 14.78-24.429 61.665 21.533 55.81-23.612-9.441-21.4-41.873.967-53.71 12.376-6.55 25.633-9.199 39.04-9.258-20.807-3.787-42.244-3.054-61.54 7.158z" fill="#ce3f29"/><path d="m501.834 9.3-88.944 14.824 26.894 26.893z" fill="#ecc87d"/></g><g><path d="m389.391 146.949h-15v-15h15zm-30-15h-15v-15h15z" fill="#fff"/></g></g><g><path d="m185.082 333.145h15v15h-15z" transform="matrix(.707 -.707 .707 .707 -184.466 235.949)"/><path d="m492.892 114.733 19.123-114.733-114.733 19.122 31.895 31.895-34.693 34.693c-23.965-11.631-50.335-13.57-76.411-5.585-27.649 8.466-53.535 27.429-77.054 56.424-13.162-16.198-27.225-29.398-41.9-39.313l-8.397 12.429c15.548 10.505 30.455 25.165 44.308 43.573l5.993 7.963 5.993-7.963c23.143-30.753 48.528-50.527 75.451-58.771 22.996-7.042 46.218-5.113 67.162 5.575 21.624 11.035 39.072 30.454 49.133 54.681 10.521 25.335 11.813 53.915 3.638 80.472-15.318 49.759-44.967 95.524-88.119 136.024-30.718 28.83-67.796 54.839-113.257 79.439-34.305-18.562-63.613-37.795-89.273-58.574l30.227-30.227-10.606-10.606-57.031 57.031c-.401-1.442-.815-2.889-1.258-4.349l-1.164-3.835-3.835-1.164c-1.46-.443-2.907-.857-4.349-1.258l155.342-155.342c2.924-2.924 7.683-2.924 10.606 0 2.924 2.924 2.924 7.682-.001 10.606l-66.489 66.49 10.606 10.606 66.489-66.49c8.773-8.772 8.774-23.046.002-31.819-8.774-8.773-23.048-8.773-31.821 0l-130.232 130.231c-38-38.151-64.431-80.762-78.592-126.76-13.843-44.968.19-94.533 34.921-123.338 30.102-24.966 68.005-28.417 103.994-9.468l6.988-13.272c-21.435-11.286-43.39-15.675-65.258-13.047-19.946 2.397-39.068 10.78-55.299 24.242-18.468 15.317-32.652 36.936-39.941 60.872-7.77 25.517-7.68 52.636.26 78.425 14.888 48.362 42.574 93.056 82.321 132.954l-21.216 21.216c-24.803-4.167-46.482-1.436-64.654 8.181-17.083 9.041-25.692 29.042-20.024 46.525 2.696 8.316 8.269 14.915 16.115 19.083 6.194 3.29 13.46 4.916 21.746 4.848-.063 8.265 1.558 15.552 4.848 21.746 4.167 7.846 10.766 13.418 19.083 16.115 3.624 1.175 7.353 1.736 11.073 1.736 14.228 0 28.285-8.218 35.452-21.761 9.617-18.171 12.348-39.85 8.181-64.654l22.846-22.846c27.571 22.476 59.18 43.141 96.407 63.036l3.535 1.889 3.535-1.889c48.256-25.79 87.503-53.146 119.986-83.632 45.078-42.307 76.096-90.267 92.19-142.548 9.202-29.892 7.739-62.082-4.12-90.639-5.52-13.292-13.044-25.309-22.127-35.624l30.511-30.51zm-396.097 368.504c-4.898 9.255-16.952 16.56-28.641 12.772-10.531-3.414-15.268-14.596-12.997-30.677l1.394-9.869-9.869 1.394c-16.08 2.27-27.262-2.466-30.676-12.997-3.791-11.691 3.517-23.743 12.772-28.641 19.086-10.102 42.371-11.11 71.079-3.061 8.049 28.709 7.039 51.993-3.062 71.079zm396.971-464.989-10.878 65.267-54.39-54.389zm-73.877 84.484c-3.797-3.355-7.79-6.445-11.962-9.251l31.857-31.857 10.607 10.607z"/></g></g></svg>