<svg id="Capa_1" enable-background="new 0 0 511.999 511.999" height="512" viewBox="0 0 511.999 511.999" width="512" xmlns="http://www.w3.org/2000/svg"><g><g><g clip-rule="evenodd" fill-rule="evenodd"><path d="m399.853 399.499h74.999l15-119.998-45-204.502c-3.546-16.113-15.51-22.109-30-30l-68.852-37.499c0 48.43-47.718 69.915-90.001 69.915s-90.001-21.486-90-69.915l-68.853 37.5c-14.49 7.892-26.454 13.885-30 30l-44.999 204.501 15 119.999h74.999v45c0 8.25 6.75 15 15 15h257.708c8.25 0 15-6.75 15-15v-45.001zm-226.354-173.499c0-45.564 36.937-82.5 82.5-82.5s82.5 36.937 82.5 82.5c0 45.564-36.937 82.5-82.5 82.5s-82.5-36.937-82.5-82.5z" fill="#f9ee92"/><path d="m52.146 444.499h59.999v-45h-74.999v30c0 8.25 6.752 15 15 15z" fill="#d56a4e"/><path d="m127.145 459.499v30c0 8.25 6.753 15 15 15h227.708c8.247 0 15-6.75 15-15v-30z" fill="#d56a4e"/><path d="m255.999 47.49c24.236 0 60.001-10.162 60.001-39.99h-120.001c0 29.828 35.764 39.99 60 39.99z" fill="#ecc87d"/><path d="m346 7.5h-30c0 29.828-35.765 39.991-60.001 39.991s-60-10.163-60-39.991h-30c0 48.43 47.718 69.915 90.001 69.915s90-21.486 90-69.915z" fill="#717f99"/><path d="m459.852 444.499h-59.999v-44.999l74.999-.001v30c0 8.25-6.751 15-15 15z" fill="#d56a4e"/><path d="m168.545 25.867c-1.649-5.629-2.546-11.744-2.546-18.367l-68.853 37.5c-14.49 7.892-26.454 13.885-30 30l-44.999 204.501 15 119.999h21.562l-14.063-112.499 45-204.502c3.546-16.115 15.509-22.108 30-30z" fill="#ecc87d"/><path d="m346 7.5h-30c0 29.828-35.765 39.991-60.001 39.991s-60-10.163-60-39.991h-30c0 48.43 47.718 69.915 90.001 69.915s90-21.486 90-69.915z" fill="#d56a4e"/><path d="m52.146 444.499h22.5c-8.248 0-15-6.75-15-15v-30h-22.5v30c0 8.25 6.752 15 15 15z" fill="#ce3f29"/><path d="m112.146 444.499c0 8.25 6.75 15 15 15h22.5c-8.25 0-15-6.75-15-15v-300.744h-22.5z" fill="#ecc87d"/><path d="m127.145 459.499v30c0 8.25 6.753 15 15 15h22.5c-8.247 0-15-6.75-15-15v-30z" fill="#ce3f29"/><path d="m173.499 226c0 45.564 36.937 82.5 82.5 82.5s82.5-36.937 82.5-82.5c0-45.564-36.937-82.5-82.5-82.5s-82.5 36.936-82.5 82.5zm30 0c0-29.004 23.495-52.5 52.5-52.5s52.5 23.496 52.5 52.5-23.496 52.5-52.5 52.5-52.5-23.496-52.5-52.5z" fill="#d56a4e"/><circle cx="255.999" cy="226" fill="#f9ee92" r="52.5"/><path d="m203.499 226c0 33.709 31.186 58.395 63.75 51.289-23.594-5.148-41.25-26.147-41.25-51.289s17.656-46.141 41.25-51.289c-32.563-7.106-63.75 17.579-63.75 51.289z" fill="#ecc87d"/></g><g><path d="m400.301 79.682-13.174-7.173 7.174-13.174 13.174 7.173zm-26.347-14.347-13.174-7.173 7.172-13.174 13.174 7.173z" fill="#fff"/></g></g><g><path d="m452.177 73.388c-4.159-18.902-17.808-26.318-32.257-34.169l-72.011-39.219h-183.82l-70.53 38.413-1.484.807c-14.448 7.85-28.094 15.265-32.253 34.167l-20.888 94.925 14.649 3.224 20.888-94.925c2.567-11.671 10.258-16.328 24.765-24.211l60.225-32.799c3.058 18.854 13.409 34.773 30.402 46.507 17.563 12.128 41.051 18.808 66.137 18.808s48.573-6.679 66.137-18.808c16.993-11.733 27.344-27.653 30.402-46.507l60.221 32.797c14.51 7.884 22.2 12.542 24.769 24.213l44.722 203.241-14.021 112.148h-60.878v-248.245h-15v300.744c0 4.136-3.364 7.5-7.5 7.5h-257.706c-4.136 0-7.5-3.364-7.5-7.5v-300.744h-15v248.245h-60.878l-14.019-112.147 20.609-93.664-14.648-3.224-20.887 94.925-.278 1.261 15.103 120.816v29.533c0 12.406 10.094 22.5 22.5 22.5h53.789c2.264 6.382 7.328 11.446 13.71 13.71v23.79c0 12.406 10.093 22.5 22.499 22.5h152.709v-15h-152.71c-4.135 0-7.499-3.364-7.499-7.5v-22.5h242.707v22.5c0 4.136-3.364 7.5-7.499 7.5h-30v15h30c12.406 0 22.499-10.094 22.499-22.5v-23.79c6.382-2.263 11.446-7.328 13.71-13.71h53.789c12.406 0 22.5-10.093 22.5-22.5v-29.533l15.103-120.816zm-144.81-58.388c-1.999 6.346-6.655 11.725-13.94 16.041-9.601 5.688-23.243 8.95-37.428 8.95s-27.827-3.262-37.428-8.95c-7.284-4.316-11.94-9.694-13.94-16.041zm-51.368 54.916c-51.987 0-77.993-27.215-81.949-54.916h15.162c2.23 11.745 9.734 21.849 21.713 28.945 12.022 7.123 28.029 11.045 45.073 11.045s33.051-3.923 45.073-11.045c11.979-7.097 19.484-17.2 21.713-28.945h15.255c-4.688 37.666-44.7 54.916-82.04 54.916zm-211.352 359.584v-22.5h59.999v29.999h-52.499c-4.136 0-7.5-3.364-7.5-7.499zm415.205 7.499h-52.499v-29.999h59.999v22.5c0 4.135-3.364 7.499-7.5 7.499z"/><path d="m309.854 496.999h15v15h-15z"/><path d="m345.999 226c0-49.626-40.374-90-90-90s-90 40.374-90 90 40.374 90 90 90 90-40.375 90-90zm-165 0c0-41.355 33.645-75 75-75s75 33.645 75 75-33.645 75-75 75-75-33.646-75-75z"/><path d="m315.999 226c0-33.084-26.916-60-60-60s-60 26.916-60 60 26.916 60 60 60 60-26.916 60-60zm-52.5 18.106 18.552 18.551c-5.42 3.863-11.725 6.555-18.552 7.706zm-15 26.257c-6.826-1.151-13.131-3.842-18.552-7.706l18.552-18.551zm52.5-44.363c0 9.704-3.098 18.693-8.342 26.052l-29.158-29.158v-41.257c21.255 3.582 37.5 22.105 37.5 44.363zm-52.5-44.364v41.257l-29.158 29.158c-5.245-7.358-8.342-16.347-8.342-26.052 0-22.257 16.246-40.78 37.5-44.363z"/></g></g></svg>