<svg id="Capa_1" enable-background="new 0 0 512.046 512.046" height="512" viewBox="0 0 512.046 512.046" width="512" xmlns="http://www.w3.org/2000/svg"><g><g><g clip-rule="evenodd" fill-rule="evenodd"><path d="m259.149 226.133c-34.557-11.611-72.658-3.602-84.725 41.452-16.928 63.204-52.331 31.93-86.534 77.602-32.308 43.142-14.435 106.018 43.877 140.991 58.899 33.976 122.539 19.049 144.55-30.149 23.302-52.085-21.234-67.834 25.785-113.337 31.001-30.001 25.018-66.483-4.932-94.192l-47.104 82.252c3.555 9.822 2.869 21.095-2.841 30.802-10.173 17.294-32.438 23.066-49.731 12.893-17.294-10.173-23.066-32.438-12.893-49.731 5.71-9.707 15.23-15.784 25.542-17.448z" fill="#b4d8f2"/><path d="m234.332 311.821c-17.247-10.146-39.547-4.421-49.732 12.893-10.173 17.293-4.4 39.559 12.893 49.731 17.293 10.173 39.559 4.401 49.731-12.893 10.193-17.326 4.368-39.578-12.892-49.731z" fill="#6e91ef"/><path d="m336.184 98.598-126.041 208.667c8.059-1.301 16.603.093 24.189 4.556 7.587 4.463 12.956 11.253 15.734 18.93l121.149-211.547z" fill="#ecc87d"/><path d="m336.184 98.598 35.031 20.607 62.128-68.224-67.714-39.832z" fill="#ecc87d"/><path d="m232.559 310.842 121.141-201.941 29.445-87.449-17.516-10.303-29.445 87.449c-42.014 69.556-84.027 139.112-126.041 208.668 7.437-1.201 15.286-.107 22.416 3.576z" fill="#d99460"/><path d="m189.424 282.585c9.605-35.865 35.708-48.255 63.387-45.96l.096-.16 6.241-10.332c-34.557-11.611-72.658-3.602-84.725 41.452-16.928 63.204-52.331 31.93-86.534 77.602-28.35 37.858-18.059 90.912 24.291 126.973-29.385-34.722-33.921-79.083-9.289-111.973 34.203-45.672 69.606-14.398 86.533-77.602z" fill="#6e91ef"/></g><g><path d="m376.775 49.423h15v15.001h-15z" fill="#fff" transform="matrix(.507 -.862 .862 .507 140.38 359.285)"/></g></g><g><path d="m439.981 96.485 7.605-12.929-21.986-12.934 19.508-21.422-83.639-49.2-9.246 27.459-21.734-12.785-7.605 12.929 24.448 14.382-5.501 16.338-21.999-12.941-7.605 12.929 24.713 14.538-7.601 22.575-73.596 121.842c-15.733-4.318-30.974-4.552-44.395-.616l4.221 14.394c9.596-2.813 20.542-2.907 32.061-.344l-42.217 69.893c-.166.041-.333.073-.498.116-11.332 2.938-20.842 10.113-26.778 20.203-5.936 10.091-7.586 21.889-4.648 33.221 2.938 11.333 10.113 20.842 20.204 26.778 6.825 4.015 14.432 6.07 22.147 6.07 3.69 0 7.406-.47 11.073-1.421 11.332-2.938 20.842-10.113 26.776-20.203 5.937-10.09 7.588-21.889 4.65-33.221-.043-.166-.096-.328-.141-.493l40.554-70.814c10.62 11.982 16.277 24.894 16.421 37.763.154 13.795-5.997 26.82-18.286 38.711-29.462 28.513-26.139 48.24-22.925 67.317 2.306 13.682 4.689 27.829-4.49 48.347-9.546 21.337-27.982 36.148-51.912 41.705l3.393 14.611c28.609-6.643 50.703-24.468 62.211-50.19 11.033-24.661 8.016-42.573 5.591-56.965-3.034-18.01-5.227-31.022 18.564-54.046 15.15-14.663 23.054-31.834 22.854-49.659-.202-17.95-8.356-35.553-23.616-51.221l70.757-123.554 16.04-17.614 24.687 14.522 7.605-12.929-21.973-12.925 11.607-12.746zm-70.192-74.188 51.789 30.464-51.809 56.892-24.535-14.433zm-81.357 226.369-25.181-14.817 12.651-20.944 24.691 14.527zm-32.938-1.977 25.482 14.995-12.24 21.372-25.964-15.306zm28.163-46.624 12.681-20.994 23.899 14.059-12.19 21.286zm20.436-33.834 12.683-20.997 23.106 13.592-12.19 21.286zm20.439-33.838 14.238-23.573 22.252 13.09-13.686 23.898zm-83.772 225.357c-3.903 6.637-10.158 11.356-17.612 13.289-7.454 1.932-15.213.846-21.851-3.058s-11.357-10.16-13.29-17.613c-1.932-7.454-.846-15.214 3.059-21.851s10.159-11.356 17.613-13.289c2.412-.625 4.855-.935 7.283-.935 5.074 0 10.078 1.352 14.567 3.993 6.638 3.904 11.357 10.16 13.289 17.613 1.933 7.454.847 15.214-3.058 21.851zm-2.625-52.393c-4.641-2.73-9.645-4.542-14.797-5.43l11.68-19.337 26.265 15.484-11.213 19.579c-3.279-4.072-7.294-7.566-11.935-10.296z"/><path d="m162.14 382.515h15v78.562h-15z" transform="matrix(.507 -.862 .862 .507 -279.931 354.152)"/><path d="m135.571 479.713c-29.243-17.556-49.149-43.594-54.618-71.445-4.144-21.103.452-41.909 12.94-58.585 13.475-17.992 26.998-22.782 40.076-27.415 18.235-6.459 37.093-13.139 47.699-52.743 4.091-15.274 11.551-26.445 22.173-33.204l-8.053-12.655c-13.891 8.839-23.516 22.962-28.608 41.979-8.565 31.98-21.004 36.386-38.22 42.484-13.757 4.873-30.879 10.938-47.073 32.563-15.066 20.119-20.626 45.144-15.653 70.467 6.288 32.027 28.769 61.715 61.676 81.451l.11.065c22.104 12.75 45.501 19.373 68.201 19.372 2.942 0 5.875-.111 8.79-.335l-1.148-14.956c-22.352 1.715-45.968-4.178-68.292-17.043z"/></g></g></svg>