<svg id="Capa_1" enable-background="new 0 0 512.002 512.002" height="512" viewBox="0 0 512.002 512.002" width="512" xmlns="http://www.w3.org/2000/svg"><g><g><g clip-rule="evenodd" fill-rule="evenodd"><path d="m7.501 361.187c.1 8.165 6.812 14.815 14.999 14.815h467.002c8.187 0 14.899-6.65 14.999-14.815l.001-45.185h-497.001z" fill="#e5ecf5"/><path d="m7.502 316.002h497v-255.185c-.1-8.165-6.811-14.815-14.999-14.815h-467.002c-8.188 0-14.899 6.649-14.999 14.815zm158.499-135c0-49.706 40.294-90 90-90s90 40.294 90 90-40.294 90-90 90-90-40.294-90-90z" fill="#b4d8f2"/><path d="m135.999 436.001c-8.242 0-15 6.757-15 15v15h270.002v-15c0-8.25-6.757-15-15-15z" fill="#e5ecf5"/><path d="m7.501 361.187c.1 8.165 6.812 14.815 14.999 14.815h22.5c-8.187 0-14.899-6.649-14.999-14.815v-45.185h-22.5z" fill="#b0c5e0"/><path d="m7.501 316.002h22.499v-255.185c.1-8.166 6.81-14.815 14.999-14.815h-22.499c-8.188 0-14.899 6.649-14.999 14.815z" fill="#6e91ef"/><path d="m135.999 436.001c-8.244 0-15 6.755-15 15v15h22.5v-15c0-8.244 6.755-15 15-15z" fill="#b0c5e0"/><path d="m218.501 436.001h74.999l-22.5-59.999h-29.999z" fill="#e5ecf5"/><path d="m166.001 181.002c0 49.706 40.294 90 90 90s90-40.294 90-90-40.294-90-90-90-90 40.294-90 90zm64.687 38.071v-75l65.625 37.5z" fill="#d56a4e"/><path d="m230.688 219.073 65.625-37.5-65.625-37.5z" fill="#f9ee92"/><path d="m166.001 181.002c0 54.327 47.634 95.989 101.25 89.301-44.396-5.536-78.75-43.406-78.75-89.301 0-45.896 34.355-83.765 78.75-89.301-53.616-6.688-101.25 34.974-101.25 89.301z" fill="#ce3f29"/></g><g><path d="m482.002 113.502h-15v-15h15zm0-30h-15v-15h15z" fill="#fff"/></g></g><g><path d="m489.502 38.502h-467.002c-12.407 0-22.5 10.093-22.5 22.5v22.5h15v-22.5c0-4.135 3.365-7.5 7.5-7.5h467.002c4.135 0 7.5 3.365 7.5 7.5v247.5h-482.002v-210.001h-15v262.5c0 12.407 10.093 22.5 22.5 22.5h207.679l-16.875 44.999h-77.304c-12.407 0-22.5 10.093-22.5 22.5v22.5h195.001v-15h-180.001v-7.5c0-4.135 3.365-7.5 7.5-7.5h240.002c4.135 0 7.5 3.364 7.5 7.5v7.5h-30v15h45v-22.5c0-12.406-10.093-22.5-22.5-22.5h-77.304l-16.875-44.999h207.679c12.407 0 22.5-10.093 22.5-22.5v-300c0-12.406-10.093-22.499-22.5-22.499zm-206.824 389.999h-53.354l16.875-44.999h19.605zm206.824-59.999h-467.002c-4.135 0-7.5-3.365-7.5-7.5v-37.5h482.002v37.5c0 4.135-3.365 7.5-7.5 7.5z"/><path d="m323.501 458.5h15v15h-15z"/><path d="m248.501 338.502h15v15h-15z"/><path d="m223.188 131.15v100.847l88.243-50.423zm15 25.847 43.008 24.576-43.008 24.576z"/><path d="m353.501 181.002c0-53.762-43.738-97.5-97.5-97.5s-97.5 43.738-97.5 97.5 43.738 97.5 97.5 97.5 97.5-43.738 97.5-97.5zm-180 0c0-45.491 37.009-82.5 82.5-82.5s82.5 37.009 82.5 82.5-37.009 82.5-82.5 82.5-82.5-37.009-82.5-82.5z"/></g></g></svg>