<svg id="Capa_1" enable-background="new 0 0 512 512" height="512" viewBox="0 0 512 512" width="512" xmlns="http://www.w3.org/2000/svg"><g><g><circle clip-rule="evenodd" cx="256" cy="256" fill="#ecc87d" fill-rule="evenodd" r="248.5"/><path clip-rule="evenodd" d="m267.25 504.235c-132.02-5.884-237.25-114.764-237.25-248.235s105.23-242.351 237.25-248.235c-141.489-6.31-259.75 106.445-259.75 248.235s118.261 254.545 259.75 248.235z" fill="#d99460" fill-rule="evenodd"/><g><path d="m346 67.5h-15v-15h15zm-30-15h-15v-15h15z" fill="#fff"/></g></g><g><path d="m437.019 74.981c-48.352-48.352-112.639-74.981-181.019-74.981-101.14 0-193.021 59.754-234.077 152.23l13.709 6.086c10.975-24.721 25.812-46.954 43.607-66.125 39.794 42.869 62.355 97.848 64.135 156.308h-128.246c.804-26.357 5.833-52.131 15.009-76.719l-14.053-5.244c-10.672 28.6-16.084 58.7-16.084 89.464 0 68.38 26.629 132.667 74.981 181.019s112.639 74.981 181.019 74.981 132.667-26.629 181.019-74.981 74.981-112.639 74.981-181.019-26.629-132.667-74.981-181.019zm-188.519 391.659v30.233c-59.615-1.811-115.518-25.166-158.72-66.369 42.665-45.724 66.812-104.504 68.603-167.004h90.117v158.14h15v-158.14h90.117c1.791 62.5 25.937 121.28 68.603 167.004-43.202 41.202-99.105 64.558-158.72 66.369v-30.233zm-169.257-46.837c-39.792-42.861-62.339-97.789-64.116-156.303h128.246c-1.779 58.458-24.338 113.434-64.13 156.303zm184.257-404.676c59.615 1.811 115.518 25.166 158.72 66.369-42.665 45.724-66.812 104.504-68.603 167.004h-90.117zm105.126 248.373h128.246c-1.777 58.514-24.323 113.442-64.116 156.303-39.791-42.869-62.35-97.845-64.13-156.303zm0-15c1.78-58.458 24.339-113.434 64.13-156.303 39.793 42.861 62.339 97.789 64.116 156.303zm-278.831-166.988c42.281-40.214 98.524-64.516 158.705-66.387v233.375h-90.117c-1.791-62.493-25.932-121.266-68.588-166.988z"/><path d="m248.5 436.64h15v15h-15z"/></g></g></svg>