<svg id="Capa_1" enable-background="new 0 0 512 512" height="512" viewBox="0 0 512 512" width="512" xmlns="http://www.w3.org/2000/svg"><g><g><g clip-rule="evenodd" fill-rule="evenodd"><path d="m161.72 410.22c0 51.854 42.426 94.28 94.281 94.28s94.28-42.426 94.28-94.28v-12.138c0 8.25-6.75 15-15 15h-15c-8.25 0-15-6.75-15-15v-5.56h-98.56v5.56c0 8.25-6.75 15-15 15h-15c-8.25 0-15-6.75-15-15v12.138zm45-47.698c49.713 0 22.882-20 49.28-20s-.433 20 49.28 20v-5.56c0-8.25 6.75-15 15-15h15c8.25 0 15 6.75 15 15v-201.923c0 8.25-6.75 15-15 15h-15c-8.25 0-15-6.75-15-15v-5.56c-49.713 0-22.882 20-49.28 20s.433-20-49.28-20v5.56c0 8.25-6.75 15-15 15h-15c-8.25 0-15-6.75-15-15v201.923c0-8.25 6.75-15 15-15h15c8.25 0 15 6.75 15 15zm-45-260.741c0-51.855 42.426-94.281 94.28-94.281s94.28 42.426 94.28 94.28v12.138c0-8.25-6.75-15-15-15h-15c-8.25 0-15 6.75-15 15v5.56h-98.56v-5.56c0-8.25-6.75-15-15-15h-15c-8.25 0-15 6.75-15 15z" fill="#f9ee92"/><path d="m320.28 413.082h15c8.25 0 15-6.75 15-15v-41.12c0-8.25-6.75-15-15-15h-15c-8.25 0-15 6.75-15 15v41.12c0 8.25 6.75 15 15 15zm-143.56-314.163h15c8.25 0 15 6.75 15 15v41.12c0 8.25-6.75 15-15 15h-15c-8.25 0-15-6.75-15-15v-41.12c0-8.251 6.749-15 15-15zm143.56 0h15c8.25 0 15 6.75 15 15v41.12c0 8.25-6.75 15-15 15h-15c-8.25 0-15-6.75-15-15 0-13.707 0-27.414 0-41.12 0-8.251 6.75-15 15-15zm-143.56 314.163h15c8.25 0 15-6.75 15-15 0-13.707 0-27.414 0-41.12 0-8.25-6.75-15-15-15h-15c-8.25 0-15 6.75-15 15v41.12c0 8.25 6.749 15 15 15z" fill="#a4a1a3"/><path d="m206.72 119.478h98.56v30c-49.713 0-22.882 20-49.28 20s.433-20-49.28-20zm0 273.044h98.56v-30c-49.713 0-22.882-20-49.28-20s.433 20-49.28 20z" fill="#d56a4e"/><path d="m161.72 410.22c0 51.854 42.426 94.28 94.281 94.28 3.806 0 7.559-.235 11.25-.679-45.673-5.494-81.57-43.975-82.983-90.739h-7.547c-8.25 0-15-6.75-15-15v12.138zm22.499-240.182h-7.5c-8.25 0-15-6.75-15-15v201.923c0-8.25 6.75-15 15-15h7.5zm-22.499-68.257c0-51.855 42.426-94.281 94.28-94.281 3.806 0 7.559.235 11.25.679-45.673 5.494-81.57 43.975-82.983 90.739h-7.547c-8.25 0-15 6.75-15 15z" fill="#ecc87d"/><path d="m320.28 341.962h15s-7.501 1.333-7.501 15v41.12c0 13.667 7.501 15 7.501 15h-15c-8.25 0-15-6.75-15-15v-41.12c0-8.25 6.75-15 15-15zm0-243.043h15s-7.501 1.333-7.501 15v41.12c0 13.667 7.501 15 7.501 15h-15c-8.25 0-15-6.75-15-15v-41.12c0-8.251 6.75-15 15-15zm-143.56 0h15s-7.501 1.333-7.501 15v41.12c0 13.667 7.501 15 7.501 15h-15c-8.25 0-15-6.75-15-15v-41.12c0-8.251 6.749-15 15-15zm0 243.043h15s-7.501 1.333-7.501 15v41.12c0 13.667 7.501 15 7.501 15h-15c-8.25 0-15-6.75-15-15v-41.12c0-8.25 6.749-15 15-15z" fill="#7a7979"/><path d="m206.72 392.522h22.5v-32.31c-4.894 1.413-11.978 2.31-22.5 2.31zm0-273.044h22.5v32.311c-4.894-1.413-11.978-2.311-22.5-2.311z" fill="#ce3f29"/></g><g><path d="m308.499 67.5h-15v-15h15zm-29.999-15h-15v-15h15z" fill="#fff"/></g></g><g><path d="m256 0c-24.101 0-47.521 8.667-65.945 24.405l9.742 11.405c15.711-13.419 35.671-20.81 56.203-20.81 44.73 0 81.661 34.018 86.288 77.542-2.207-.725-4.561-1.123-7.008-1.123h-15c-11.752 0-21.423 9.059-22.411 20.56h-83.738c-.988-11.501-10.659-20.56-22.411-20.56h-15c-2.436 0-4.78.394-6.978 1.113 1.869-17.212 8.896-33.615 20.288-46.954l-11.406-9.741c-15.737 18.426-24.404 41.845-24.404 65.944v308.439c0 56.121 45.658 101.78 101.78 101.78s101.78-45.659 101.78-101.78v-131.72h-15v57.252c-2.347-.833-4.871-1.29-7.5-1.29h-15c-11.692 0-21.326 8.965-22.397 20.381-7.542-.388-13.011-1.414-16.289-3.068-2.402-1.213-2.928-2.33-4.077-4.777-2.847-6.06-6.853-11.977-21.517-11.977s-18.67 5.917-21.517 11.977c-1.149 2.447-1.674 3.563-4.077 4.777-3.278 1.654-8.746 2.68-16.288 3.068-1.072-11.416-10.706-20.381-22.397-20.381h-15c-2.629 0-5.153.458-7.5 1.29v-159.504c2.347.833 4.871 1.29 7.5 1.29h15c11.692 0 21.326-8.965 22.397-20.381 7.542.388 13.011 1.414 16.288 3.068 2.403 1.213 2.928 2.33 4.077 4.777 2.847 6.06 6.853 11.977 21.517 11.977s18.67-5.917 21.517-11.977c1.149-2.447 1.675-3.563 4.077-4.777 3.278-1.654 8.747-2.68 16.289-3.068 1.072 11.416 10.706 20.381 22.397 20.381h15c2.629 0 5.153-.458 7.5-1.29v57.252h15v-131.72c0-56.121-45.658-101.78-101.78-101.78zm0 497c-44.73 0-81.661-34.018-86.288-77.542 2.207.725 4.561 1.123 7.008 1.123h15c11.752 0 21.423-9.059 22.411-20.56h83.738c.988 11.501 10.659 20.56 22.411 20.56h15c2.447 0 4.801-.398 7.008-1.123-4.627 43.524-41.558 77.542-86.288 77.542zm56.78-140.038c0-4.136 3.364-7.5 7.5-7.5h15c4.136 0 7.5 3.364 7.5 7.5v41.12c0 4.135-3.364 7.5-7.5 7.5h-15c-4.136 0-7.5-3.364-7.5-7.5zm-64.72-3.586c.621-1.321 1.022-2.141 1.362-2.374.239-.164 1.682-.98 6.578-.98s6.339.817 6.578.98c.34.233.741 1.052 1.362 2.374 3.764 8.011 9.325 15.27 33.84 16.469v15.177h-83.56v-15.177c24.515-1.199 30.076-8.458 33.84-16.469zm-71.34-3.914h15c4.136 0 7.5 3.364 7.5 7.5v41.12c0 4.135-3.364 7.5-7.5 7.5h-15c-4.136 0-7.5-3.364-7.5-7.5v-41.12c0-4.136 3.364-7.5 7.5-7.5zm22.5-194.423c0 4.136-3.364 7.5-7.5 7.5h-15c-4.136 0-7.5-3.364-7.5-7.5v-41.12c0-4.136 3.364-7.5 7.5-7.5h15c4.136 0 7.5 3.364 7.5 7.5zm64.72 3.586c-.621 1.321-1.022 2.141-1.362 2.374-.239.164-1.682.98-6.578.98s-6.339-.817-6.578-.98c-.34-.233-.742-1.052-1.362-2.374-3.763-8.011-9.325-15.27-33.839-16.469v-15.177h83.56v15.177c-24.516 1.199-30.077 8.457-33.841 16.469zm78.84-3.586c0 4.136-3.364 7.5-7.5 7.5h-15c-4.136 0-7.5-3.364-7.5-7.5v-41.12c0-4.136 3.364-7.5 7.5-7.5h15c4.136 0 7.5 3.364 7.5 7.5z"/><path d="m342.78 248.5h15v15h-15z"/></g></g></svg>