<svg id="Capa_1" enable-background="new 0 0 512 512" height="512" viewBox="0 0 512 512" width="512" xmlns="http://www.w3.org/2000/svg"><g><g><g clip-rule="evenodd" fill-rule="evenodd"><path d="m37.5 368.5h83.5v-210h-83.5c-16.5 0-30 13.499-30 30v150c0 16.5 13.5 30 30 30z" fill="#d56a4e"/><path d="m121 368.5c0 8.25 6.751 15 15 15h240c8.249 0 15-6.751 15-15v-210c0-8.249-6.75-15-15-15h-240c-8.25 0-15 6.75-15 15zm30-15v-179.999h210v179.999z" fill="#e5ecf5"/><path d="m151 173.501h210v179.999h-210z" fill="#b4d8f2"/><path d="m391 368.5h83.5c16.5 0 30-13.5 30-30v-150c0-16.501-13.5-30-30-30h-83.5z" fill="#d56a4e"/><path d="m429.5 158.5h45v-15c0-8.25-6.75-15-15-15h-15.001c-8.25 0-14.999 6.75-14.999 15z" fill="#b0c5e0"/><path d="m37.5 158.5h45v-15c0-8.25-6.75-15-15-15h-15c-8.25 0-15 6.75-15 15z" fill="#b0c5e0"/><path d="m37.5 368.5h22.5c-16.5 0-30-13.5-30-30v-150c0-16.501 13.5-30 30-30h-22.5c-16.5 0-30 13.499-30 30v150c0 16.5 13.5 30 30 30z" fill="#ce3f29"/><path d="m151 173.501h22.5v179.999h-22.5z" fill="#6e91ef"/><path d="m121 368.5c0 8.25 6.751 15 15 15h22.5c-8.248 0-14.999-6.75-14.999-15v-210c0-8.25 6.75-15 14.999-15h-22.5c-8.25 0-15 6.75-15 15z" fill="#b0c5e0"/></g><g><path d="m338.501 241h-15v-15h15zm0-30h-15v-15h15z" fill="#fff"/></g></g><g><path d="m482 151.755v-8.255c0-12.407-10.094-22.5-22.5-22.5h-15.001c-12.406 0-22.499 10.093-22.499 22.5v7.5h-24.79c-3.096-8.729-11.432-15-21.209-15h-240.001c-9.777 0-18.114 6.271-21.21 15h-24.79v-7.5c0-12.407-10.094-22.5-22.5-22.5h-15c-12.406 0-22.5 10.093-22.5 22.5v8.255c-17.096 3.484-30 18.636-30 36.745v22.5h15v-22.5c0-12.407 10.094-22.5 22.5-22.5h76v195h-76c-12.406 0-22.5-10.093-22.5-22.5v-112.5h-15v112.5c0 20.678 16.822 37.5 37.5 37.5h77.29c3.096 8.729 11.433 15 21.21 15h97.5v-15h-97.5c-4.136 0-7.5-3.364-7.5-7.5v-210c0-4.136 3.364-7.5 7.5-7.5h240.001c4.135 0 7.499 3.364 7.499 7.5v210c0 4.136-3.364 7.5-7.499 7.5h-97.501v15h97.501c9.777 0 18.113-6.271 21.209-15h77.29c20.678 0 37.5-16.822 37.5-37.5v-150c0-18.109-12.904-33.261-30-36.745zm-429.5-15.755h15c4.136 0 7.5 3.364 7.5 7.5v7.5h-30v-7.5c0-4.136 3.364-7.5 7.5-7.5zm384.5 7.5c0-4.136 3.364-7.5 7.499-7.5h15.001c4.136 0 7.5 3.364 7.5 7.5v7.5h-30zm60 195c0 12.407-10.094 22.5-22.5 22.5h-76v-195h76c12.406 0 22.5 10.093 22.5 22.5z"/><path d="m421.5 282.25h15v15h-15z"/><path d="m459 229.75h15v15h-15z"/><path d="m459 267.25h15v15h-15z"/><path d="m421.5 244.75h15v15h-15z"/><path d="m56.75 237.25v18.75h-18.75v15h18.75v18.75h15v-18.75h18.75v-15h-18.75v-18.75z"/><path d="m248.5 376h15v15h-15z"/><path d="m368.5 166h-225v195h225zm-15 180h-195v-165h195z"/></g></g></svg>