<svg id="Capa_1" enable-background="new 0 0 512 512" height="512" viewBox="0 0 512 512" width="512" xmlns="http://www.w3.org/2000/svg"><g><g><g clip-rule="evenodd" fill-rule="evenodd"><path d="m57.25 37.5h315v377.001h-315z" fill="#b4d8f2"/><path d="m57.251 504.5h314.999c16.494 0 30-13.506 30-30v-437c0-16.493-13.5-30-30-30h-97.5l-15 30h112.5v377.001h-315v-377.001h127.5l-15-30h-112.499c-16.5 0-30 13.5-30 30v437c0 16.5 13.507 30 30 30zm149.999-45c0-8.284 6.716-15 15-15s15 6.716 15 15-6.716 15-15 15-15-6.716-15-15z" fill="#fff"/><path d="m439.749 74.999h45v30h-45z" fill="#fff"/><path d="m439.749 74.999h45v-44.999c0-12.373-10.125-22.5-22.5-22.5s-22.5 10.125-22.5 22.5zm0 354.502 22.5 52.499 22.5-52.499v-324.502h-45z" fill="#e5ecf5"/><path d="m184.75 37.5h75l15-30h-105z" fill="#eef4f9"/><ellipse cx="222.25" cy="459.5" fill="#eef4f9" rx="15" ry="15" transform="matrix(.987 -.16 .16 .987 -70.734 41.534)"/><path d="m57.251 504.5h22.5c-16.493 0-30-13.5-30-30v-437c0-16.5 13.5-30 30-30h-22.5c-16.5 0-30 13.5-30 30v437c0 16.5 13.507 30 30 30z" fill="#eef4f9"/><path d="m57.25 37.5h22.5v377.001h-22.5z" fill="#6e91ef"/><path d="m439.749 74.999h22.5v30h-22.5z" fill="#eef4f9"/><path d="m439.749 74.999h22.5v-44.999c0-8.284 4.537-15.559 11.249-19.464-3.314-1.928-7.158-3.036-11.249-3.036-12.375 0-22.5 10.125-22.5 22.5zm0 354.502 22.5 52.499v-377.001h-22.5z" fill="#b0c5e0"/></g><g><path d="m349.75 105h-15v-15h15zm0-30h-15v-15h15z" fill="#fff"/></g></g><g><path d="m199.75 459.5c0 12.407 10.094 22.5 22.5 22.5s22.5-10.093 22.5-22.5-10.094-22.5-22.5-22.5-22.5 10.093-22.5 22.5zm30 0c0 4.136-3.364 7.5-7.5 7.5s-7.5-3.364-7.5-7.5 3.364-7.5 7.5-7.5 7.5 3.364 7.5 7.5z"/><path d="m319.75 497h15v15h-15z"/><path d="m372.25 0h-314.999c-20.678 0-37.5 16.822-37.5 37.5v437c0 20.678 16.822 37.5 37.5 37.5h247.499v-15h-247.499c-12.406 0-22.5-10.093-22.5-22.5v-437c0-12.407 10.094-22.5 22.5-22.5h107.864l7.5 15h-122.865v392.001h330v-392.001h-107.865l7.5-15h92.865c12.406 0 22.5 10.093 22.5 22.5v437c0 12.407-10.094 22.5-22.5 22.5h-22.5v15h22.5c20.678 0 37.5-16.822 37.5-37.5v-437c0-20.678-16.822-37.5-37.5-37.5zm-7.5 407.001h-300v-362.001h300zm-109.635-377.001h-65.73l-7.5-15h80.73z"/><path d="m492.249 142.499v-112.499c0-16.542-13.458-30-30-30s-30 13.458-30 30v401.04l30 69.999 30-69.999v-273.541h-15v270.462l-15 35-15-35v-315.462h30v30zm-30-127.499c8.271 0 15 6.729 15 15v37.5h-30v-37.5c0-8.271 6.729-15 15-15zm-15 82.499v-15h30v15z"/></g></g></svg>