<svg id="Capa_1" enable-background="new 0 0 512 512" height="512" viewBox="0 0 512 512" width="512" xmlns="http://www.w3.org/2000/svg"><g><g><g clip-rule="evenodd" fill-rule="evenodd"><path d="m151.947 504.5h208.106c8.25 0 15.001-6.75 15.001-15.001 0-8.069-6.458-14.703-14.459-14.991-.18-.006-.361-.01-.542-.01h-208.106c-.181 0-.362.003-.542.01-8.001.288-14.459 6.922-14.459 14.991 0 8.251 6.75 15.001 15.001 15.001zm0-466.999h208.106c8.25 0 15.001-6.75 15.001-15.001s-6.751-15.001-15.001-15.001h-208.106c-8.249 0-15.001 6.75-15.001 15.001s6.75 15.001 15.001 15.001z" fill="#e5ecf5"/><path d="m151.947 474.498h208.106c.181 0 .362.003.542.01l36.784-44.346h-282.758l36.784 44.346c.18-.006.361-.01.542-.01zm-37.326-391.997h282.758l-37.326-45h-208.106z" fill="#f9ee92"/><path d="m114.621 430.162h282.758v-347.661h-282.758zm141.379-105.792c-37.577 0-68.039-30.462-68.039-68.039s30.462-68.039 68.039-68.039 68.039 30.462 68.039 68.039-30.462 68.039-68.039 68.039z" fill="#f9ee92"/><ellipse cx="256" cy="256.332" fill="#ecc87d" rx="68.039" ry="68.039" transform="matrix(.99 -.14 .14 .99 -33.365 38.364)"/><path d="m151.947 504.5h22.5c-8.251 0-15.001-6.75-15.001-15.001 0-8.069 6.458-14.703 14.459-14.991.16-.006.321-.01.482-.01h-22.44c-.181 0-.362.003-.542.01-8.001.288-14.459 6.922-14.459 14.991 0 8.251 6.75 15.001 15.001 15.001zm0-466.999h22.5c-8.251 0-15.001-6.75-15.001-15.001s6.751-15.001 15.001-15.001h-22.5c-8.249 0-15.001 6.75-15.001 15.001s6.75 15.001 15.001 15.001z" fill="#b0c5e0"/><path d="m151.947 474.498h21.95l-36.776-44.336h-22.5l36.784 44.346c.18-.006.361-.01.542-.01zm208.166 0c.161 0 .322.003.482.01l.008-.01zm-245.492-391.997h22.5l37.326-45h-22.5z" fill="#ecc87d"/><path d="m114.621 82.501h22.5v347.661h-22.5z" fill="#ecc87d"/><path d="m187.961 256.332c0 42.24 37.956 73.987 79.288 67.107-32.222-5.362-56.789-33.363-56.789-67.107s24.566-61.745 56.789-67.108c-41.332-6.879-79.288 24.867-79.288 67.108z" fill="#d99460"/></g><g><path d="m374.88 150.001h-15v-15h15zm0-30h-15v-15h15z" fill="#fff"/></g></g><g><path d="m404.879 79.795-32.127-38.732c5.914-4.058 9.802-10.864 9.802-18.562 0-12.407-10.094-22.501-22.501-22.501h-208.106c-12.407 0-22.5 10.094-22.5 22.501 0 7.698 3.888 14.504 9.802 18.562l-32.127 38.732v40.206h15v-30h267.758v332.661h-267.759v-287.662h-15v297.867l31.781 38.315c-5.718 4.084-9.456 10.77-9.456 18.316 0 12.407 10.094 22.501 22.5 22.501h81.554v-15h-81.553c-4.136 0-7.5-3.365-7.5-7.501s3.365-7.5 7.5-7.5h208.106c4.136 0 7.5 3.365 7.5 7.5 0 4.136-3.365 7.501-7.5 7.501h-81.553v15h81.553c12.407 0 22.5-10.094 22.5-22.501 0-7.546-3.738-14.232-9.456-18.316l31.781-38.315v-353.072zm-48.349-34.794 24.884 30h-250.828l24.884-30zm-204.583-30.001h208.106c4.136 0 7.5 3.365 7.5 7.501s-3.365 7.5-7.5 7.5h-208.106c-4.136 0-7.5-3.365-7.5-7.5-.001-4.136 3.364-7.501 7.5-7.501zm229.467 422.662-24.334 29.336h-202.16l-24.334-29.336z"/><path d="m248.5 497h15v15h-15z"/><path d="m331.539 256.332c0-41.652-33.887-75.539-75.539-75.539s-75.539 33.887-75.539 75.539 33.887 75.538 75.539 75.538 75.539-33.887 75.539-75.538zm-136.078 0c0-33.381 27.157-60.539 60.539-60.539s60.539 27.157 60.539 60.539-27.158 60.538-60.539 60.538-60.539-27.157-60.539-60.538z"/></g></g></svg>