<svg id="Capa_1" enable-background="new 0 0 512 512" height="512" viewBox="0 0 512 512" width="512" xmlns="http://www.w3.org/2000/svg"><g><g><g clip-rule="evenodd" fill-rule="evenodd"><circle cx="196.001" cy="459.5" fill="#ecc87d" r="15"/><circle cx="256" cy="459.5" fill="#ecc87d" r="15"/><circle cx="315.999" cy="459.5" fill="#ecc87d" r="15"/><path d="m315.999 444.5c8.284 0 15 6.716 15 15s-6.716 15-15 15-15-6.716-15-15 6.716-15 15-15zm-150.103 60h180.209c16.498 0 30-13.502 30-30v-437c0-16.498-13.5-30-30-30h-180.209c-16.5 0-30 13.5-30 30v437c0 16.5 13.502 30 30 30zm90.104-60c8.284 0 15 6.716 15 15s-6.716 15-15 15-15-6.716-15-15 6.716-15 15-15zm-59.999 0c8.284 0 15 6.716 15 15s-6.716 15-15 15-15-6.716-15-15 6.715-15 15-15zm134.999-118.434c0 41.421-33.579 75-75 75s-75-33.579-75-75 33.579-75 75-75 75 33.579 75 75zm0-185.132c0 41.421-33.579 75-75 75s-75-33.579-75-75 33.579-75 75-75 75 33.579 75 75z" fill="#a4a1a3"/><path d="m256 401.066c41.421 0 75-33.579 75-75s-33.579-75-75-75-75 33.579-75 75 33.579 75 75 75zm0-120c24.853 0 45 20.147 45 45s-20.147 45-45 45-45-20.147-45-45 20.147-45 45-45z" fill="#b0c5e0"/><circle cx="256" cy="326.066" fill="#e5ecf5" r="45"/><path d="m256 215.934c41.421 0 75-33.579 75-75s-33.579-75-75-75-75 33.579-75 75c0 41.422 33.579 75 75 75zm45-75c0 24.853-20.147 45-45 45s-45-20.147-45-45 20.147-45 45-45 45 20.147 45 45z" fill="#b0c5e0"/><circle cx="256" cy="140.934" fill="#e5ecf5" r="45"/><path d="m165.896 504.5h22.5c-16.498 0-30-13.5-30-30v-437c0-16.5 13.5-30 30-30h-22.5c-16.5 0-30 13.5-30 30v437c0 16.5 13.502 30 30 30z" fill="#7a7979"/><path d="m256 371.066c3.885 0 7.654-.492 11.25-1.418-19.409-4.995-33.75-22.614-33.75-43.582 0-20.969 14.341-38.587 33.75-43.582-3.595-.926-7.365-1.418-11.25-1.418-24.853 0-45 20.147-45 45s20.147 45 45 45z" fill="#b0c5e0"/><path d="m256 185.935c3.885 0 7.654-.492 11.25-1.418-19.409-4.995-33.75-22.614-33.75-43.582s14.341-38.587 33.75-43.582c-3.595-.925-7.365-1.418-11.25-1.418-24.853 0-45 20.147-45 45 0 24.852 20.147 45 45 45z" fill="#b0c5e0"/></g><g><path d="m343.62 52.5h-15v-15h15zm-30.001 0h-15v-15h15z" fill="#fff"/></g></g><g><path d="m143.396 474.5v-384.5h-15v384.5c0 20.678 16.822 37.5 37.5 37.5h105.208v-15h-105.208c-12.407 0-22.5-10.093-22.5-22.5z"/><path d="m346.104 0h-180.208c-20.678 0-37.5 16.822-37.5 37.5v37.5h15v-37.5c0-12.407 10.093-22.5 22.5-22.5h180.208c12.406 0 22.5 10.093 22.5 22.5v437c0 12.407-10.093 22.5-22.5 22.5h-30v15h30c20.677 0 37.5-16.822 37.5-37.5v-437c0-20.678-16.822-37.5-37.5-37.5z"/><path d="m286.105 497h15v15h-15z"/><path d="m173.5 459.5c0 12.406 10.094 22.5 22.5 22.5s22.5-10.094 22.5-22.5c0-12.407-10.094-22.5-22.5-22.5s-22.5 10.094-22.5 22.5zm30.001 0c0 4.136-3.364 7.5-7.5 7.5s-7.5-3.364-7.5-7.5 3.365-7.5 7.5-7.5 7.5 3.365 7.5 7.5z"/><path d="m256 437c-12.406 0-22.5 10.094-22.5 22.5s10.094 22.5 22.5 22.5 22.5-10.094 22.5-22.5-10.094-22.5-22.5-22.5zm0 30c-4.136 0-7.5-3.364-7.5-7.5s3.364-7.5 7.5-7.5 7.5 3.365 7.5 7.5-3.364 7.5-7.5 7.5z"/><path d="m338.499 459.5c0-12.407-10.094-22.5-22.5-22.5s-22.5 10.094-22.5 22.5 10.094 22.5 22.5 22.5 22.5-10.093 22.5-22.5zm-22.5 7.5c-4.136 0-7.5-3.364-7.5-7.5s3.364-7.5 7.5-7.5 7.5 3.365 7.5 7.5-3.364 7.5-7.5 7.5z"/><path d="m442.477 190.397-10.457 10.754c14.855 14.445 23.037 33.924 23.037 54.849s-8.181 40.404-23.037 54.849l10.457 10.754c17.785-17.293 27.58-40.591 27.58-65.603s-9.795-48.31-27.58-65.603z"/><path d="m411 218.492-9.793 11.362c7.565 6.52 11.904 16.05 11.904 26.146s-4.339 19.626-11.904 26.146l9.793 11.362c10.875-9.372 17.111-23.043 17.111-37.508s-6.236-28.136-17.111-37.508z"/><path d="m69.523 190.397c-17.785 17.293-27.58 40.592-27.58 65.603s9.795 48.31 27.58 65.603l10.457-10.754c-14.855-14.445-23.037-33.924-23.037-54.849s8.181-40.404 23.037-54.849z"/><path d="m110.792 229.854-9.792-11.362c-10.875 9.372-17.112 23.043-17.112 37.508s6.237 28.136 17.112 37.508l9.792-11.362c-7.565-6.52-11.904-16.05-11.904-26.146s4.339-19.626 11.904-26.146z"/><path d="m256 223.435c45.491 0 82.5-37.01 82.5-82.5s-37.009-82.5-82.5-82.5-82.5 37.009-82.5 82.5 37.009 82.5 82.5 82.5zm0-150.001c37.22 0 67.5 30.28 67.5 67.5s-30.28 67.5-67.5 67.5-67.5-30.281-67.5-67.5 30.28-67.5 67.5-67.5z"/><path d="m256 193.435c28.949 0 52.5-23.552 52.5-52.5s-23.552-52.5-52.5-52.5-52.5 23.551-52.5 52.5 23.551 52.5 52.5 52.5zm0-90.001c20.678 0 37.5 16.822 37.5 37.5s-16.823 37.5-37.5 37.5-37.5-16.823-37.5-37.5 16.822-37.5 37.5-37.5z"/><path d="m256 408.566c45.491 0 82.5-37.009 82.5-82.5s-37.009-82.5-82.5-82.5-82.5 37.01-82.5 82.5 37.009 82.5 82.5 82.5zm0-150c37.22 0 67.5 30.281 67.5 67.5s-30.28 67.5-67.5 67.5-67.5-30.28-67.5-67.5 30.28-67.5 67.5-67.5z"/><path d="m256 378.566c28.949 0 52.5-23.551 52.5-52.5s-23.552-52.5-52.5-52.5-52.5 23.552-52.5 52.5 23.551 52.5 52.5 52.5zm0-90c20.678 0 37.5 16.823 37.5 37.5s-16.823 37.5-37.5 37.5-37.5-16.822-37.5-37.5 16.822-37.5 37.5-37.5z"/></g></g></svg>