<svg id="Capa_1" enable-background="new 0 0 512 512" height="512" viewBox="0 0 512 512" width="512" xmlns="http://www.w3.org/2000/svg"><g><g><g clip-rule="evenodd" fill-rule="evenodd"><path d="m163.225 52.605c0 8.269 6.766 15.035 15.035 15.035s15.035-6.765 15.035-15.035v-15.035-15.035c0-8.27-6.766-15.035-15.035-15.035s-15.035 6.766-15.035 15.035v15.035z" fill="#d56a4e"/><path d="m316.14 52.605c0 8.269 6.766 15.035 15.035 15.035s15.035-6.766 15.035-15.035v-15.035-15.035c0-8.269-6.766-15.035-15.035-15.035s-15.035 6.766-15.035 15.035v15.035z" fill="#d56a4e"/><path d="m224.647 263.095h60.141 16.318c16.538 0 30.07-13.531 30.069-30.07-8.269 0-15.035-6.766-15.035-15.035v-15.035h-122.845v15.035c0 8.269-6.766 15.035-15.035 15.035 0 16.539 13.532 30.07 30.07 30.07z" fill="#d56a4e"/><path d="m163.225 217.99c0 8.269 6.766 15.035 15.035 15.035s15.035-6.766 15.035-15.035v-15.035-15.035c0-8.269-6.766-15.035-15.035-15.035s-15.035 6.766-15.035 15.035v15.035z" fill="#d56a4e"/><path d="m316.14 217.99c0 8.269 6.766 15.035 15.035 15.035s15.035-6.766 15.035-15.035v-15.035-15.035c0-8.269-6.766-15.035-15.035-15.035s-15.035 6.766-15.035 15.035v15.035z" fill="#d56a4e"/><path d="m316.14 187.92c0-8.269 6.766-15.035 15.035-15.035s15.035 6.766 15.035 15.035v15.035h30.071l-.001-165.385h-30.07v15.035c0 8.269-6.766 15.035-15.035 15.035s-15.035-6.766-15.035-15.035v-15.035h-122.845v15.035c0 8.27-6.766 15.035-15.035 15.035s-15.035-6.766-15.035-15.035v-15.035h-27.505v165.385h27.505v-15.035c0-8.269 6.765-15.035 15.035-15.035s15.035 6.766 15.035 15.035v15.035h122.845z" fill="#b4d8f2"/><path d="m376.28 37.57v165.385c16.539 0 30.07-13.531 30.07-30.07v-105.245c0-16.539-13.531-30.07-30.07-30.07z" fill="#a4a1a3"/><path d="m105.649 67.64v105.245c0 16.539 13.532 30.07 30.071 30.07v-165.385c-16.539 0-30.071 13.531-30.071 30.07z" fill="#a4a1a3"/><path d="m239.683 289.142c4.423 2.558 9.558 4.023 15.035 4.023s10.612-1.464 15.035-4.023c8.988-5.199 15.035-14.917 15.035-26.047h-60.141c0 11.13 6.048 20.848 15.036 26.047z" fill="#ce3f29"/><path d="m224.648 504.5h60.14v-128.809h-15.035-30.07-15.035z" fill="#d56a4e"/><path d="m239.683 375.691h30.07v-86.549c-4.423 2.559-9.558 4.023-15.035 4.023s-10.612-1.464-15.035-4.024z" fill="#ce3f29"/><path d="m135.72 37.57h22.5v165.385h-22.5z" fill="#6e91ef"/><path d="m224.648 375.691v128.809h22.499v-128.809h-7.464z" fill="#ce3f29"/></g><g><path d="m278.5 240.455h-15v-15h15zm-30 0h-15v-15h15z" fill="#fff"/></g></g><g><path d="m376.28 30.07h-22.57v-7.535c0-12.426-10.109-22.535-22.535-22.535s-22.535 10.109-22.535 22.535v7.535h-107.845v-7.535c0-12.426-10.109-22.535-22.535-22.535s-22.535 10.109-22.535 22.535v7.535h-20.005c-20.716 0-37.571 16.854-37.571 37.57v45.123h15v-45.123c0-9.817 6.302-18.185 15.071-21.284v147.813c-8.769-3.099-15.071-11.468-15.071-21.284v-45.122h-15v45.122c0 20.716 16.854 37.57 37.571 37.57h20.005v7.535c0 10.003 6.554 18.501 15.591 21.436 3.048 17.676 18.48 31.169 37.013 31.169h9.571c1.863 9.159 7.068 17.117 14.282 22.542v75.055h-15.035v143.808h75.141v-49.405h-15v34.405h-45.141v-113.809h45.141v34.404h15v-49.404h-15.035v-75.055c7.214-5.425 12.419-13.383 14.282-22.541h9.571c18.533 0 33.965-13.493 37.014-31.17 9.037-2.935 15.591-11.432 15.591-21.435v-7.535h22.57c20.716 0 37.57-16.854 37.57-37.57v-105.245c0-20.716-16.855-37.57-37.571-37.57zm-52.64-7.535c0-4.155 3.38-7.535 7.535-7.535s7.535 3.38 7.535 7.535v30.07c0 4.155-3.38 7.535-7.535 7.535s-7.535-3.38-7.535-7.535zm-152.915 0c0-4.155 3.38-7.535 7.535-7.535s7.535 3.38 7.535 7.535v30.07c0 4.155-3.38 7.535-7.535 7.535s-7.535-3.38-7.535-7.535zm15.07 195.455c0 4.155-3.38 7.535-7.535 7.535s-7.535-3.38-7.535-7.535v-30.07c0-4.155 3.38-7.535 7.535-7.535s7.535 3.38 7.535 7.535zm76.458 150.201h-15.07v-68.286c2.435.498 4.955.76 7.535.76s5.1-.262 7.536-.76v68.286zm-7.536-82.526c-9.817 0-18.185-6.302-21.284-15.07h42.569c-3.099 8.768-11.468 15.07-21.285 15.07zm46.388-30.07h-92.775c-10.399 0-19.173-7.071-21.779-16.657 8.334-3.31 14.244-11.449 14.244-20.948v-7.535h107.845v7.535c0 9.499 5.911 17.638 14.245 20.948-2.606 9.585-11.38 16.657-21.78 16.657zm37.605-37.605c0 4.155-3.38 7.535-7.535 7.535s-7.535-3.38-7.535-7.535v-30.07c0-4.155 3.38-7.535 7.535-7.535s7.535 3.38 7.535 7.535zm-7.535-52.605c-12.426 0-22.535 10.109-22.535 22.535v7.535h-107.845v-7.535c0-12.426-10.109-22.535-22.535-22.535s-22.535 10.109-22.535 22.535v7.535h-12.505v-150.385h12.505v7.535c0 12.426 10.109 22.535 22.535 22.535s22.535-10.109 22.535-22.535v-7.535h107.845v7.535c0 12.426 10.109 22.535 22.535 22.535s22.535-10.109 22.535-22.535v-7.535h15.07v150.385h-15.07v-7.535c0-12.426-10.109-22.535-22.535-22.535zm67.676 7.5c0 9.817-6.302 18.185-15.07 21.284v-147.813c8.769 3.099 15.07 11.468 15.07 21.284z"/><path d="m263.5 91.055h21.708v21.708h15v-36.708h-36.708z"/><path d="m226.792 91.055h21.708v-15h-36.708v36.708h15z"/><path d="m226.792 127.763h-15v36.707h36.708v-15h-21.708z"/><path d="m285.208 149.47h-21.708v15h36.708v-36.707h-15z"/><path d="m277.288 432.595h15v15h-15z"/><path d="m248.5 112.763h15v15h-15z"/></g></g></svg>