<svg id="Capa_1" enable-background="new 0 0 512 512" height="512" viewBox="0 0 512 512" width="512" xmlns="http://www.w3.org/2000/svg"><g><g><g clip-rule="evenodd" fill-rule="evenodd"><path d="m120.322 504.5h271.356c16.499 0 30-13.501 30-30v-254.986h-331.356v254.986c0 16.5 13.503 30 30 30zm135.678-62.841c-30.885-16.505-73.321-45.308-88.271-93.87-14.949-48.562 42.829-97.92 88.271-37.534 45.442-60.386 103.22-11.028 88.271 37.534-14.95 48.562-57.386 77.365-88.271 93.87z" fill="#f9ee92"/><path d="m167.729 347.789c14.95 48.561 57.386 77.364 88.271 93.87 30.885-16.505 73.321-45.308 88.271-93.87 14.949-48.562-42.829-97.92-88.271-37.534-45.442-60.385-103.22-11.027-88.271 37.534z" fill="#d56a4e"/><path d="m165.322 7.5h181.356v45h-181.356z" fill="#ecc87d"/><path d="m346.678 219.514h45v-167.014l-45-45zm-226.356 0h45v-212.014l-45 45z" fill="#f9ee92"/><path d="m120.322 504.5h22.5c-16.497 0-30-13.5-30-30v-254.986h-22.5v254.986c0 16.5 13.503 30 30 30z" fill="#ecc87d"/><path d="m346.678 219.514h45v-22.5h-45zm-226.356 0h45v-22.5h-45z" fill="#ecc87d"/><path d="m167.729 347.789c14.95 48.561 57.386 77.364 88.271 93.87 3.612-1.93 7.384-4.031 11.25-6.31-29.187-17.205-63.82-44.677-77.021-87.559-8.717-28.316 7.298-56.897 31.172-63.836-34.92-9.774-64.934 27.252-53.672 63.835z" fill="#ce3f29"/></g><g><path d="m399.178 287.014h-15v-15h15zm0-30h-15v-15h15z" fill="#fff"/></g></g><g><path d="m331.678 497h15v15h-15z"/><path d="m97.822 474.5v-202.487h-15v202.487c0 20.678 16.822 37.5 37.5 37.5h196.355v-15h-196.355c-12.406 0-22.5-10.093-22.5-22.5z"/><path d="m399.178 212.014v-162.62l-49.394-49.394h-187.568l-49.394 49.394v162.62h-30v45h15v-30h316.355v247.486c0 12.407-10.094 22.5-22.5 22.5h-30v15h30c20.678 0 37.5-16.822 37.5-37.5v-262.486zm-15 0h-30v-186.408l30 30zm-45-167.014h-166.357v-30h166.356v30zm-166.357 15h166.356v152.014h-166.356zm-44.999-4.394 29.999-29.999v186.406h-29.999z"/><path d="m323.754 280.141c-11.382-5.808-23.971-6.866-36.406-3.059-11.219 3.435-21.732 10.601-31.348 21.347-9.615-10.747-20.129-17.912-31.348-21.347-12.436-3.807-25.022-2.75-36.406 3.059-24.235 12.368-36.137 42.399-27.685 69.855 12.189 39.596 42.251 71.743 91.903 98.278l3.535 1.889 3.535-1.889c49.652-26.535 79.714-58.682 91.903-98.278 8.454-27.455-3.448-57.487-27.683-69.855zm13.349 65.442c-10.683 34.701-37.229 63.366-81.103 87.543-43.874-24.177-70.42-52.842-81.103-87.543-7.222-23.458 5.001-44.341 20.168-52.081 4.773-2.437 9.762-3.629 14.832-3.629 13.64 0 27.873 8.632 40.109 24.893l5.993 7.963 5.993-7.963c16.785-22.306 37.328-30.255 54.941-21.264 15.169 7.74 27.391 28.623 20.17 52.081z"/></g></g></svg>