<svg id="Capa_1" enable-background="new 0 0 511.956 511.956" height="512" viewBox="0 0 511.956 511.956" width="512" xmlns="http://www.w3.org/2000/svg"><g><g><g clip-rule="evenodd" fill-rule="evenodd"><path d="m438.94 504.456c25.794 0 46.704-20.91 46.704-46.704 0-24.287-18.539-44.241-42.237-46.49 7.068 15.125 11.802 32.088-8.918 32.088h-39.987c-9.674 29.867 12.523 61.106 44.438 61.106z" fill="#a4a1a3"/><path d="m95.644 77.298 151.744-7.299 11.334-47.627c-46.978-33.384-127.309-2.365-163.078 11.997z" fill="#f9ee92"/><path d="m204.403 305.89 71.6-71.601 10.825-10.825c9.082-9.082 9.082-23.943 0-33.025-9.08-9.08-23.937-9.082-33.019-.005-.002.002-.003.003-.005.005l-82.425 82.425c-9.082 9.082-9.082 23.943 0 33.025 9.082 9.083 23.942 9.083 33.024.001z" fill="#e5ecf5"/><path d="m141.623 253.948c18.276-55.144 58.326-98.768 129.681-125.833v-59.267l-203.925 9.81c-.513 57.451-.52 77.966-16.294 126.446l21.47 11.583z" fill="#d56a4e"/><path d="m275.477 457.752c0 25.793 20.91 46.704 46.704 46.704 31.915 0 54.112-31.239 44.438-61.106h-88.875c-1.47 4.536-2.267 9.376-2.267 14.402z" fill="#a4a1a3"/><path d="m205.422 504.456c31.915 0 54.112-31.239 44.437-61.106h-88.875c-9.674 29.867 12.523 61.106 44.438 61.106z" fill="#a4a1a3"/><path d="m41.959 457.752c0 25.793 20.91 46.704 46.704 46.704 31.915 0 54.112-31.239 44.437-61.106h-34.557c-8.421 0-15.313-7.472-15.313-16.605v-15.381c-23.233 2.692-41.271 22.432-41.271 46.388z" fill="#a4a1a3"/><path d="m244.738 393.534h189.751c36.846-78.207-10.578-87.23-76.068-105.41 0 0-76.073.838-104.54 69.825-4.24 10.276-7.424 22.063-9.143 35.585z" fill="#d56a4e"/><path d="m83.231 393.534h161.507c1.719-13.522 4.903-25.31 9.143-35.585 0 0-122.296 13.491-181.325-141.261-17.825 31.898-43.688 76.854-46.08 113.866-2.396 37.08 21.202 62.98 56.755 62.98zm20.785-59.16c0 12.897-10.455 23.352-23.352 23.352s-23.352-10.455-23.352-23.352 10.455-23.352 23.352-23.352 23.352 10.455 23.352 23.352z" fill="#f9ee92"/><path d="m171.379 272.865 82.425-82.425.005-.005c-4.869-15.084-8.055-31.932-9.358-50.644-54.778 27.206-86.985 66.353-102.828 114.157l-69.067-37.261c59.03 154.753 181.325 141.261 181.325 141.261 28.467-68.987 104.54-69.825 104.54-69.825-34.159-9.483-62.475-26.981-82.418-53.834l-71.6 71.601c-9.082 9.082-23.943 9.082-33.025 0-9.081-9.082-9.081-23.943.001-33.025z" fill="#f9ee92"/><ellipse cx="80.664" cy="334.374" fill="#e5ecf5" rx="23.352" ry="23.352" transform="matrix(.707 -.707 .707 .707 -212.812 154.974)"/><path d="m26.476 330.554c-2.397 37.08 21.201 62.981 56.754 62.98h22.296c-91.282-.254-47.35-109.25-23.197-153.881-3.413-7.211-6.68-14.857-9.773-22.966-17.825 31.899-43.688 76.855-46.08 113.867z" fill="#ecc87d"/><path d="m51.086 205.104 18.609 10.039c20.783-53.629 19.239-87.252 20.338-137.576l-22.653 1.09c-.514 57.452-.52 77.966-16.294 126.447z" fill="#ce3f29"/><path d="m95.644 77.298 22.5-1.082v-50.499c-8.588 3.104-16.23 6.134-22.5 8.652z" fill="#ecc87d"/><path d="m434.489 443.35c20.72 0 15.986-16.962 8.918-32.088-3.215-6.879-6.912-13.377-8.918-17.728h-351.258v33.211c0 9.133 6.892 16.605 15.313 16.605z" fill="#e5ecf5"/><path d="m105.73 393.534h-22.5v33.211c0 9.133 6.892 16.605 15.313 16.605h22.5c-8.421 0-15.313-7.472-15.313-16.605z" fill="#b0c5e0"/><path d="m41.959 457.752c0 25.793 20.91 46.704 46.704 46.704 3.879 0 7.647-.473 11.25-1.364-20.36-5.035-35.454-23.425-35.454-45.34 0-15.32 7.377-28.916 18.772-37.431v-8.957c-23.234 2.692-41.272 22.432-41.272 46.388z" fill="#7a7979"/><path d="m160.985 443.35c-9.675 29.867 12.522 61.106 44.437 61.106 3.909 0 7.673-.469 11.25-1.346-25.625-6.286-41.677-33.551-33.188-59.76-7.5 0-14.999 0-22.499 0z" fill="#7a7979"/><path d="m276.082 465.29c1.88 11.583 8.019 21.736 16.759 28.802 8.019 6.482 18.226 10.364 29.34 10.364 3.922 0 7.698-.472 11.286-1.355-20.378-5.022-35.49-23.421-35.49-45.349 0-5.026.797-9.866 2.267-14.402-7.5 0-15 0-22.5 0-1.469 4.537-2.267 9.376-2.267 14.402 0 2.567.207 5.085.605 7.538z" fill="#7a7979"/><path d="m394.503 443.35c-9.675 29.867 12.522 61.106 44.437 61.106 3.866 0 7.621-.47 11.214-1.355-25.604-6.303-41.637-33.555-33.152-59.751-7.499 0-14.999 0-22.499 0z" fill="#7a7979"/></g><g><path d="m417.078 349.136h-15v-15h15zm-30-15h-15.001v-15h15.001z" fill="#fff"/></g></g><g><path d="m111.516 334.374c0-17.012-13.84-30.852-30.852-30.852s-30.853 13.84-30.853 30.852 13.841 30.852 30.853 30.852 30.852-13.84 30.852-30.852zm-46.705 0c0-8.741 7.111-15.852 15.853-15.852 8.74 0 15.852 7.111 15.852 15.852s-7.111 15.852-15.852 15.852-15.853-7.111-15.853-15.852z"/><path d="m92.485 101.425h142.121v15h-142.121z" transform="matrix(.999 -.046 .046 .999 -4.795 7.568)"/><path d="m481.747 491.002c7.456-9.586 11.396-21.084 11.396-33.25 0-26.645-18.944-48.863-44.725-53.365-1.239-2.499-2.496-4.913-3.681-7.186-.705-1.353-1.36-2.61-1.945-3.76 13.29-29.255 15.734-49.666 7.959-65.859-9.599-19.991-33.76-32.998-83.396-44.895-34.73-8.324-62.059-24.393-81.349-47.794l6.125-6.125c5.809-5.809 9.008-13.557 9.007-21.816 0-8.259-3.199-16.006-9.008-21.815s-13.557-9.008-21.815-9.008c-4.242 0-8.346.85-12.125 2.457-2.789-10.693-4.747-22.169-5.841-34.286 6.887-3.253 14.08-6.315 21.612-9.172l4.84-1.835v-72.314l-21.808 1.049 10.194-42.841-4.122-2.929c-51.426-36.547-137.729-1.895-170.217 11.15l-4.705 1.89v40.852l-28.201 1.357-.08 9.023c-.503 56.416-.672 75.421-15.909 122.254l-1.936 5.95 20.275 10.938c-7.362 13.167-15.485 27.853-22.79 43.308l13.561 6.41c5.848-12.371 12.304-24.358 18.451-35.448 13.016 29.833 29.412 55.123 48.877 75.309 18.198 18.871 39.076 33.341 62.054 43.011 25.542 10.749 47.839 13.136 60.688 13.452-1.992 6.286-3.636 13.045-4.855 20.319h-155.048c-14.972 0-27.598-5.028-36.515-14.54-9.272-9.891-13.802-24.259-12.755-40.458.92-14.244 5.625-31.004 14.385-51.238l-13.765-5.957c-9.456 21.843-14.555 40.236-15.588 56.229-1.317 20.381 4.643 38.736 16.78 51.684 10.092 10.766 24.086 17.334 39.958 18.905v4.457c-23.942 5.841-41.271 27.389-41.271 52.637 0 29.888 24.315 54.204 54.204 54.204 17.523 0 33.468-8.106 43.747-22.241 8.219-11.302 11.71-25.281 9.999-38.865h9.23c-1.788 13.614 1.668 27.341 10.005 38.807 10.306 14.171 26.262 22.299 43.777 22.299s33.472-8.128 43.777-22.299c8.338-11.465 11.793-25.192 10.005-38.807h9.194c-1.788 13.614 1.667 27.341 10.005 38.806 10.306 14.172 26.262 22.3 43.777 22.3s33.472-8.127 43.777-22.299c8.338-11.465 11.794-25.192 10.006-38.807h9.193c-1.788 13.615 1.667 27.342 10.005 38.807 10.306 14.171 26.262 22.299 43.777 22.299 12.167 0 23.665-3.941 33.25-11.397l-9.209-11.84c-6.928 5.389-15.241 8.237-24.041 8.237-12.661 0-24.195-5.876-31.646-16.121-6.428-8.839-8.846-19.524-6.949-29.985h34.144c9.505 0 16.159-3.027 19.78-8.996 3.368-5.553 3.163-12.474 1.273-19.66 13.481 6.242 22.601 19.833 22.601 35.558 0 8.799-2.848 17.113-8.236 24.042zm-200.223-295.259c6.182 6.181 6.182 16.238.001 22.418l-82.425 82.426c-6.181 6.179-16.237 6.181-22.418 0-6.181-6.182-6.181-16.238 0-22.419l82.424-82.426c2.977-2.976 6.957-4.614 11.21-4.614 4.252.001 8.233 1.639 11.208 4.615zm-178.38-156.299c32.296-12.862 103.87-39.474 147.061-13.68l-8.807 37.014-138.253 6.65v-29.984zm-28.328 46.364 188.986-9.091v46.266c-33.368 13.272-61.12 30.822-82.544 52.211-19.215 19.185-33.913 42.026-43.773 68l-77.361-41.736c13.609-43.435 14.228-65.151 14.692-115.65zm113.448 252.63c-21.094-8.876-40.296-22.199-57.074-39.598-17.043-17.673-31.624-39.638-43.501-65.468l58.242 31.421 2.813-8.486c15.082-45.507 44.45-80.01 89.285-104.701 1.484 12.985 3.924 25.276 7.298 36.704l-79.251 79.252c-12.028 12.028-12.028 31.602.001 43.631 6.014 6.014 13.914 9.021 21.814 9.021s15.802-3.007 21.816-9.021l65.649-65.649c14.147 16.824 31.987 30.142 53.331 39.819-7.796 2.122-16.535 5.189-25.476 9.637-18.655 9.281-40.653 25.995-54.315 55.718-9.23.232-32.816-.574-60.632-12.28zm121.133-29.76c22.171-11.164 43.519-12.792 48.173-13.018 2.074.563 4.167 1.105 6.29 1.614 44.12 10.575 66.063 21.581 73.369 36.8 5.602 11.665 3.276 27.81-7.551 51.96h-176.18c6.634-35.997 25.404-62.001 55.899-77.356zm-189.119 172.215c-7.423 10.208-18.946 16.063-31.615 16.063-21.617 0-39.204-17.586-39.204-39.204 0-16.981 10.835-31.648 26.271-37.018v6.011c0 13.292 10.233 24.105 22.813 24.105h28.715c1.897 10.471-.532 21.177-6.98 30.043zm116.79-.059c-7.451 10.246-18.985 16.122-31.646 16.122s-24.195-5.876-31.646-16.122c-6.428-8.839-8.846-19.524-6.949-29.984h77.19c1.897 10.46-.521 21.146-6.949 29.984zm116.759.001c-7.451 10.245-18.985 16.121-31.646 16.121s-24.195-5.876-31.646-16.122c-6.428-8.839-8.846-19.524-6.948-29.984h77.191c1.895 10.461-.523 21.146-6.951 29.985zm87.617-46.759c-.521.858-2.621 1.774-6.955 1.774h-335.946c-4.234 0-7.813-4.169-7.813-9.105v-25.71h339.101c.506.984 1.035 2.005 1.605 3.099 3.561 6.831 13.018 24.979 10.008 29.942z"/></g></g></svg>