<svg id="Capa_1" enable-background="new 0 0 512 512" height="512" viewBox="0 0 512 512" width="512" xmlns="http://www.w3.org/2000/svg"><g><g><g clip-rule="evenodd" fill-rule="evenodd"><path d="m121 414.501h270v-377.001c0-16.497-13.5-30-30-30h-52.5l-15 30h-75l-15-30h-52.5c-16.5 0-30 13.5-30 30zm135-146.526c-27.907-14.914-66.253-40.94-79.762-84.821-13.508-43.881 38.7-88.481 79.762-33.916 41.061-54.565 93.27-9.965 79.762 33.916-13.509 43.88-51.854 69.907-79.762 84.821z" fill="#b4d8f2"/><path d="m151 504.5h210c16.498 0 30-13.502 30-30v-59.999h-270v59.999c0 16.5 13.502 30 30 30zm90-45c0-8.284 6.716-15 15-15s15 6.716 15 15-6.716 15-15 15-15-6.716-15-15z" fill="#e5ecf5"/><circle cx="256" cy="459.5" fill="#eef4f9" r="15"/><path d="m218.5 37.5h75l15-30h-105z" fill="#e5ecf5"/><path d="m143.5 37.5c0-16.5 13.5-30 30-30h-22.5c-16.5 0-30 13.5-30 30v377.001h22.5z" fill="#6e91ef"/><path d="m151 504.5h22.5c-16.498 0-30-13.5-30-30v-59.999h-22.5v59.999c0 16.5 13.502 30 30 30z" fill="#b0c5e0"/><path d="m256 267.975c27.907-14.914 66.253-40.94 79.762-84.821 13.508-43.881-38.7-88.481-79.762-33.916-41.062-54.565-93.27-9.965-79.762 33.916 13.509 43.88 51.855 69.907 79.762 84.821z" fill="#d56a4e"/><path d="m256 267.975c3.601-1.924 7.377-4.036 11.25-6.345-26.141-15.585-56.746-40.258-68.512-78.476-7.747-25.164 6.122-50.56 27.103-57.356-32.021-9.938-59.898 23.913-49.603 57.356 13.509 43.88 51.855 69.907 79.762 84.821z" fill="#ce3f29"/></g><g><path d="m361 82.5h-15v-15h15zm0-30h-15v-15h15z" fill="#fff"/></g></g><g><path d="m256 437c-12.407 0-22.5 10.094-22.5 22.5s10.093 22.5 22.5 22.5 22.5-10.094 22.5-22.5-10.093-22.5-22.5-22.5zm0 30c-4.136 0-7.5-3.364-7.5-7.5s3.365-7.5 7.5-7.5 7.5 3.364 7.5 7.5-3.364 7.5-7.5 7.5z"/><path d="m361 0h-210c-20.677 0-37.5 16.822-37.5 37.5v22.5h15v-22.5c0-12.406 10.093-22.5 22.5-22.5h47.866l14.999 30h84.271l14.999-30h47.865c12.406 0 22.5 10.094 22.5 22.5v369.501h-255v-332.001h-15v399.5c0 20.678 16.822 37.5 37.5 37.5h82.5v-15h-82.5c-12.406 0-22.5-10.094-22.5-22.5v-52.499h255v52.499c0 12.406-10.093 22.5-22.5 22.5h-82.5v15h82.5c20.677 0 37.5-16.822 37.5-37.5v-437c0-20.678-16.822-37.5-37.5-37.5zm-72.135 30h-65.73l-7.5-15h80.73z"/><path d="m248.5 497h15v15h-15z"/><path d="m342.93 185.361c7.74-25.141-3.171-52.646-25.379-63.979-10.456-5.337-22.016-6.308-33.437-2.812-10.056 3.079-19.483 9.423-28.114 18.901-8.631-9.479-18.059-15.822-28.114-18.901-11.42-3.496-22.981-2.525-33.437 2.812-22.208 11.333-33.119 38.838-25.379 63.979 11.074 35.97 38.352 65.156 83.395 89.228l3.535 1.89 3.535-1.89c45.042-24.07 72.321-53.257 83.395-89.228zm-86.93 74.077c-39.264-21.711-63.027-47.416-72.594-78.491-6.409-20.819 4.419-39.344 17.862-46.204 2.864-1.461 7.519-3.211 13.384-3.211 9.459 0 22.064 4.554 35.355 22.216l5.993 7.964 5.993-7.964c21.533-28.612 41.258-22.823 48.739-19.005 13.442 6.86 24.271 25.385 17.862 46.204-9.567 31.076-33.331 56.782-72.594 78.491z"/><path d="m218.5 297.975h75v15h-75z"/><path d="m218.5 327.975h75v15h-75z"/></g></g></svg>