<svg id="Capa_1" enable-background="new 0 0 512 512" height="512" viewBox="0 0 512 512" width="512" xmlns="http://www.w3.org/2000/svg"><g><g><g clip-rule="evenodd" fill-rule="evenodd"><path d="m76.468 7.5h30v437h-30z" fill="#f9ee92"/><path d="m143.5 155.874v-60h165v60zm-97.032 288.627h30v-437.001h-45c-8.25 0-15 6.752-15 15v452c.001-16.499 13.5-29.999 30-29.999zm60-.001h269.533v-437h-269.533z" fill="#d56a4e"/><path d="m46.468 504.5h329.532v-59.999h-329.532c-16.5 0-29.999 13.5-29.999 30 0 16.499 13.5 29.999 29.999 29.999z" fill="#e5ecf5"/><path d="m53.969 7.5h-22.5c-8.25 0-15 6.752-15 15v452c0-13.912 9.598-25.692 22.5-29.044v-422.956c0-8.247 6.75-15 15-15z" fill="#ce3f29"/><path d="m46.468 504.5h22.5c-16.5 0-29.999-13.5-29.999-30s13.499-30 29.999-30h-22.5c-16.5 0-29.999 13.5-29.999 30s13.5 30 29.999 30z" fill="#b0c5e0"/><path d="m143.5 95.874h165v60h-165z" fill="#e5ecf5"/><path d="m466 453.615c16.5 0 30-13.5 30-30v-335.23c0-8.25-6.75-15-15-15h-30c-8.25 0-15 6.75-15 15v335.231c0 16.5 13.5 29.999 30 29.999z" fill="#e5ecf5"/><path d="m451 73.385h30v-30c0-8.249-6.75-15-15-15-8.251 0-15.001 6.749-15.001 15v30z" fill="#d56a4e"/><path d="m466 453.615c3.973 0 7.771-.784 11.25-2.203-10.968-4.474-18.75-15.269-18.75-27.797v-335.23c0-8.25 6.75-15 15-15h-22.5c-8.25 0-15 6.75-15 15v335.231c0 16.5 13.5 29.999 30 29.999z" fill="#b0c5e0"/></g><g><path d="m473.5 170.885h-15v-15h15zm0-30.001h-15v-15h15zm-119.999-65.884h-15v-15h15zm0-30h-15v-15h15z" fill="#fff"/></g></g><g><path d="m308.501 497h15v15h-15z"/><path d="m368.5 497h-29.999v15h44.999v-45h-15z"/><path d="m8.5 22.5v44.999h15v-44.999c0-4.136 3.364-7.5 7.5-7.5h37.5v422.001h-22.5c-8.434 0-16.228 2.8-22.5 7.518v-362.02h-15v392.001c0 20.678 16.822 37.5 37.5 37.5h247.501v-15h-247.501c-12.406 0-22.5-10.094-22.5-22.5s10.093-22.499 22.5-22.499h337.5v-452.001h-352.5c-12.406 0-22.5 10.094-22.5 22.5zm75-7.5h15v422.001h-15zm285 422.001h-255.001v-422.001h255.001z"/><path d="m46 467h307.501v15h-307.501z"/><path d="m488.5 67.175v-23.79c0-12.406-10.093-22.5-22.5-22.5s-22.501 10.094-22.501 22.5v23.79c-8.729 3.096-15 11.433-15 21.21v7.5h-7.499c-12.406 0-22.5 10.094-22.5 22.5v112.299h15v-112.299c0-4.136 3.364-7.5 7.5-7.5h7.5v312.73c0 18.11 12.904 33.261 30 36.745v23.255h15v-23.255c17.096-3.484 30-18.635 30-36.745v-335.23c0-9.777-6.271-18.114-15-21.21zm-22.5-31.29c4.135 0 7.5 3.364 7.5 7.5v22.5h-15v-22.5c0-4.136 3.364-7.5 7.5-7.5zm-22.5 52.5c0-4.136 3.364-7.5 7.5-7.5h30c4.136 0 7.5 3.364 7.5 7.5v7.5h-45zm45 22.5v145.115h-45v-145.115zm-22.5 335.23c-12.407 0-22.5-10.094-22.5-22.5v-152.615h45v152.615c0 12.406-10.093 22.5-22.5 22.5z"/><path d="m316 163.374v-75h-180v75zm-165-60h150v45h-150z"/></g></g></svg>