<svg id="Capa_1" enable-background="new 0 0 512 512" height="512" viewBox="0 0 512 512" width="512" xmlns="http://www.w3.org/2000/svg"><g><g><g clip-rule="evenodd" fill-rule="evenodd"><path d="m398.714 473.17h60v-30h-60zm-345.428 0h59.999v-30h-59.999zm92.935-52.514h219.557v-34.83c-36.641-9.884-36.806-45.78-36.806-82.742h-145.945c0 36.962-.164 72.858-36.806 82.742z" fill="#ecc87d"/><path d="m383.714 504.5c8.251 0 15-7.049 15-15.665v-15.665h-285.428v15.666c0 8.616 6.749 15.665 15 15.665h255.428z" fill="#ecc87d"/><path d="m113.286 473.17h142.714 142.714v-30h60v-273.797c0-8.248-2.805-16.847-15-23.875l-65.071-37.5c0-56.481-46.282-100.499-102.85-100.499h-39.585c-56.568 0-102.851 44.017-102.851 100.499l-65.071 37.5c-12.194 7.027-15 15.627-15 23.875v273.797h60zm141.628-311.369-76.488-65.086c5.407-25.911 25.691-52.144 59.129-52.144h36.89c33.438 0 53.721 26.233 59.128 52.144zm1.086 258.855h-109.779v-34.83c36.641-9.884 36.806-45.78 36.806-82.742h72.973 72.973c0 36.962.164 72.858 36.806 82.742v34.83z" fill="#f9ee92"/><path d="m113.286 473.17h22.5v-262.862h-22.5zm65.14-376.454 76.488 65.086 78.66-65.086c-5.407-25.911-25.691-52.144-59.128-52.144h-36.89c-33.439-.001-53.723 26.232-59.13 52.144zm-98.824 42.261-11.316 6.521c-12.194 7.027-15 15.627-15 23.875v273.797h22.5v-291.27c0-4.464 1.044-8.687 3.816-12.923z" fill="#ecc87d"/><path d="m53.286 473.17h22.5v-30h-22.5zm92.935-52.514h22.5v-23.83c36.641-9.885 36.806-56.78 36.806-93.742h-22.5c0 36.962-.164 72.858-36.806 82.742z" fill="#d99460"/><path d="m135.786 473.17h-22.5v15.666c0 8.616 6.749 15.665 15 15.665h22.5c-8.251 0-15-7.049-15-15.665z" fill="#d99460"/></g><g><path d="m413.944 171.624-12.996-7.489 7.49-12.996 12.996 7.489zm-25.991-14.979-12.997-7.489 7.488-12.996 12.997 7.489z" fill="#fff"/></g></g><g><path d="m316.214 497h15v15h-15z"/><path d="m466.214 169.373c0-13.165-6.135-23.101-18.755-30.373l-61.412-35.391c-1.096-27.563-12.498-53.142-32.398-72.427-20.75-20.108-48.4-31.182-77.856-31.182h-39.585c-29.457 0-57.107 11.074-77.858 31.183-19.901 19.286-31.302 44.864-32.398 72.428l-61.411 35.389c-12.62 7.272-18.755 17.208-18.755 30.373v311.297h60v8.165c0 12.773 10.094 23.165 22.5 23.165h172.928v-15h-172.928c-4.136 0-7.5-3.663-7.5-8.165v-8.165h270.428v8.165c0 4.502-3.364 8.165-7.5 8.165h-37.5v15h37.5c12.406 0 22.5-10.392 22.5-23.165v-8.165h60zm-297.425-127.418c17.937-17.383 41.88-26.955 67.419-26.955h39.585c25.538 0 49.481 9.572 67.418 26.955 17.106 16.576 26.913 38.565 27.856 62.266l-107.567 77.75v-17.539l78.34-64.82-.924-4.428c-3.177-15.222-10.68-29.284-21.127-39.595-12.273-12.114-27.954-18.518-45.344-18.518h-36.89c-37.541 0-60.435 29.187-66.471 58.112l-.91 4.358 78.325 66.649v15.779l-107.568-77.75c.944-23.698 10.752-45.688 27.858-62.264zm79.711 371.201h-94.778v-21.844c34.206-12.524 36.622-47.626 36.792-80.729h57.986zm15-102.573h57.985c.171 33.104 2.587 68.205 36.793 80.729v21.844h-94.778zm-8.519-158.571-68.177-58.015c6.008-21.507 23.43-41.926 50.751-41.926h36.89c27.292 0 44.706 20.376 50.731 41.858zm-194.195 298.658h45v15h-45zm60 15v-255.362h-15v225.362h-45v-266.297c0-5.659 1.362-11.682 11.244-17.377l60.866-35.076 69.743 50.41v42.382h15v-31.54l30.86 22.306v95.105h-72.973v7.5c0 41.73-2.104 67.637-31.258 75.501l-5.547 1.496v48.076h109.779v37.514zm142.714 0v-37.514h109.778v-48.076l-5.547-1.496c-29.155-7.864-31.259-33.771-31.259-75.501v-7.5h-72.972v-95.105l30.86-22.306v31.54h15v-42.382l69.743-50.41 60.866 35.076c9.883 5.695 11.245 11.718 11.245 17.377v266.297h-45v-225.362h-15v255.362zm142.714 0v-15h45v15z"/></g></g></svg>