<svg id="Capa_1" enable-background="new 0 0 512 512" height="512" viewBox="0 0 512 512" width="512" xmlns="http://www.w3.org/2000/svg"><g><g><g clip-rule="evenodd" fill-rule="evenodd"><path d="m67.5 461.613h377c33 0 60-27 60-60v-55.598c0-8.25-6.75-15-15-15h-270.33l-23.844 44.999-23.844 44.999-23.844-44.999-23.844-44.999h-101.294c-8.25 0-15 6.75-15 15v55.598c0 33 27 60 60 60z" fill="#ecc87d"/><path d="m171.481 421.014c26.494-50 52.987-99.999 79.481-149.999h-158.962c26.494 50 52.988 99.999 79.481 149.999z" fill="#f9ee92"/><path d="m67.5 461.613h22.5c-33 0-60-27-60-60v-55.598c0-8.25 6.75-15 15-15h-22.5c-8.25 0-15 6.75-15 15v55.598c0 33 27 60 60 60z" fill="#d99460"/><path d="m171.481 421.014c3.75-7.077 7.5-14.154 11.25-21.231l-56.309-106.268h112.619l11.922-22.5h-158.963c26.494 50 52.988 99.999 79.481 149.999z" fill="#ecc87d"/><path d="m39.5 301.015c0 16.5 13.5 30 30 30h54.293l-31.793-60h-22.5c-16.5 0-30 13.5-30 30zm179.67 30h230.83c16.5 0 30-13.5 30-30s-13.5-30-30-30h-199.038z" fill="#d56a4e"/><path d="m69.5 211.015h373 47c8.25 0 15-6.75 15-15 0-76.403-31.763-145.628-120-145.628h-257c-88.237 0-120 69.225-120 145.628 0 8.25 6.75 15 15 15z" fill="#ecc87d"/><path d="m7.5 196.015c0 8.25 6.75 15 15 15h22.5c-8.25 0-15-6.75-15-15 0-76.403 31.763-145.628 120-145.628h-22.5c-88.237 0-120 69.225-120 145.628z" fill="#d99460"/><path d="m32 301.015c0-16.5 13.5-30 30-30h22.5c-23.219 0-42.355 37.5-22.5 37.5h49.87l11.922 22.5h-61.792c-16.499 0-30-13.5-30-30zm418 7.5c12.527 0 23.325-7.782 27.799-18.75 7.93 19.44-6.435 41.25-27.799 41.25h-230.83l11.923-22.5z" fill="#ce3f29"/><path d="m450 271.015c16.5 0 30-13.5 30-30s-13.5-30-30-30h-380.5c-16.5 0-30 13.5-30 30s13.5 30 30 30z" fill="#d56a4e"/><path d="m32 241.016c0-16.5 13.5-30 30-30h22.5c-25.73 0-41.699 37.5-22.5 37.5h387.999c12.527 0 23.325-7.782 27.799-18.75 7.93 19.44-6.434 41.25-27.799 41.25-124.333 0-263.666 0-387.999 0-16.5 0-30-13.5-30-30z" fill="#ce3f29"/></g><g><path d="m452 110.387h-15v-15h15zm-30-15h-15v-15h15z" fill="#fff"/></g></g><g><path d="m377.001 454.112h15v15h-15z"/><path d="m489.5 323.516h-9.521c4.719-6.272 7.521-14.064 7.521-22.5 0-12.254-5.909-23.153-15.027-30 9.117-6.847 15.027-17.746 15.027-30 0-8.436-2.802-16.228-7.521-22.5h9.522c12.406 0 22.499-10.094 22.499-22.5 0-43.013-9.781-79.596-28.285-105.792-22.187-31.41-55.567-47.336-99.215-47.336h-257c-40.291 0-71.949 13.671-94.096 40.633l11.592 9.521c19.159-23.327 46.918-35.154 82.504-35.154h257c38.492 0 67.751 13.791 86.963 40.989 16.707 23.652 25.537 57.242 25.537 97.139 0 4.136-3.364 7.5-7.499 7.5h-467.002c-4.135 0-7.499-3.364-7.499-7.5 0-36.733 7.566-68.403 21.881-91.587l-12.764-7.881c-15.777 25.554-24.117 59.949-24.117 99.468 0 12.406 10.093 22.5 22.499 22.5h9.521c-4.719 6.272-7.521 14.064-7.521 22.499 0 12.254 5.909 23.153 15.027 30.001-9.118 6.847-15.027 17.746-15.027 30 0 8.436 2.802 16.228 7.521 22.5h-9.52c-12.406 0-22.5 10.094-22.5 22.5v55.598c0 37.219 30.28 67.499 67.5 67.499h294.501v-15h-294.501c-28.948 0-52.5-23.551-52.5-52.499v-55.598c0-4.136 3.364-7.5 7.5-7.5h96.779l15.896 29.999h-65.675v15h73.623l28.358 53.519 28.358-53.519h242.661v-15h-234.712l15.896-29.999h265.816c4.136 0 7.5 3.364 7.5 7.5v55.598c0 28.948-23.552 52.499-52.5 52.499h-37.499v15h37.499c37.22 0 67.5-30.28 67.5-67.499v-55.598c0-12.407-10.094-22.5-22.5-22.5zm-450-82.501c0-12.406 10.094-22.499 22.501-22.499h387.998c12.407 0 22.501 10.094 22.501 22.5s-10.094 22.5-22.501 22.5h-387.998c-12.407 0-22.501-10.094-22.501-22.501zm22.501 82.501c-12.407 0-22.501-10.094-22.501-22.5s10.094-22.5 22.501-22.5h25.485l23.844 45zm42.461-45h134.039l-67.02 126.48zm127.17 45 23.844-45h194.522c12.407 0 22.501 10.094 22.501 22.5s-10.094 22.5-22.501 22.5z"/><path d="m293.499 93.201h15v15h-15z"/><path d="m293.499 153.201h15v15h-15z"/><path d="m338.499 123.201h15v15h-15z"/><path d="m203.501 153.201h15v15h-15z"/><path d="m158.501 123.201h15v15h-15z"/><path d="m248.499 123.201h15.001v15h-15.001z"/><path d="m203.501 93.201h15v15h-15z"/></g></g></svg>