<svg id="Capa_1" enable-background="new 0 0 512.043 512.043" height="512" viewBox="0 0 512.043 512.043" width="512" xmlns="http://www.w3.org/2000/svg"><g><g><g clip-rule="evenodd" fill-rule="evenodd"><path d="m156.757 504.543h173.938l10.481-103.13h-194.9z" fill="#d56a4e"/><path d="m146.276 401.413h194.9l4.546-44.732h-203.992z" fill="#f9ee92"/><path d="m141.73 356.681h203.992l2.983-29.353h-209.958z" fill="#d56a4e"/><path d="m138.747 327.328h209.958l8.786-86.446h-227.529z" fill="#f9ee92"/><path d="m129.962 240.882h227.529l7.45-73.309h-242.43z" fill="#d56a4e"/><path d="m367.971 167.573c8.2 0 14.911-6.71 14.911-14.911 0-8.2-6.709-14.911-14.911-14.911-82.83 0-165.66 0-248.491 0-8.201 0-14.91 6.71-14.91 14.911s6.711 14.911 14.91 14.911z" fill="#d56a4e"/><path d="m329.783 90.493 74.689-56.155-17.922-23.835-85.116 63.995-6.428 63.254h29.974z" fill="#e5ecf5"/><path d="m146.276 401.413 10.481 103.13h22.5l-10.481-103.13z" fill="#ce3f29"/><path d="m146.276 401.413h22.5l-4.546-44.732h-22.5z" fill="#ecc87d"/><path d="m141.73 356.681h22.5l-2.983-29.353h-22.5z" fill="#ce3f29"/><path d="m129.962 240.882 8.785 86.446h22.5l-8.786-86.446z" fill="#ecc87d"/><path d="m122.511 167.573 7.451 73.309h22.499l-7.45-73.309z" fill="#ce3f29"/><path d="m141.98 167.573c-8.2 0-14.911-6.71-14.911-14.911 0-8.2 6.71-14.911 14.911-14.911h-22.5c-8.201 0-14.91 6.71-14.91 14.911s6.711 14.911 14.91 14.911z" fill="#ce3f29"/><path d="m297.292 115.252-2.286 22.5h29.974l2.287-22.5z" fill="#b0c5e0"/></g><g><path d="m332.084 205.251h-15v-15h15zm-30 0h-15v-15h15z" fill="#fff"/></g></g><g><path d="m263.196 497.043h15v15h-15z"/><path d="m367.971 130.252h-34.69l3.632-35.736 78.061-58.69-26.936-35.826-93.733 70.476-6.076 59.776h-116.249v15h195.991c4.087 0 7.411 3.324 7.411 7.411 0 4.086-3.324 7.41-7.411 7.41h-248.49c-4.087 0-7.411-3.324-7.411-7.41 0-4.087 3.324-7.411 7.411-7.411h37.499v-15h-37.499c-12.357 0-22.411 10.054-22.411 22.411 0 11.069 8.068 20.283 18.632 22.085l34.28 337.295h98.215v-15h-84.662l-8.957-88.13h178.298l-8.957 88.13h-30.723v15h44.275l34.28-337.295c10.563-1.802 18.632-11.016 18.632-22.085-.001-12.357-10.054-22.411-22.412-22.411zm-59.407-51.731 76.499-57.517 8.906 11.847-71.316 53.62-4.449 43.781h-14.897zm-161.516 256.307h193.356l-1.459 14.354h-190.438zm-1.524-15-7.261-71.446h210.927l-7.261 71.446zm-8.786-86.446-5.926-58.309h225.828l-5.926 58.309zm16.315 160.531-3.021-29.731h187.39l-3.021 29.731z"/></g></g></svg>