<svg id="Capa_1" enable-background="new 0 0 512 512" height="512" viewBox="0 0 512 512" width="512" xmlns="http://www.w3.org/2000/svg"><g><g clip-rule="evenodd" fill-rule="evenodd"><path d="m70.6 321.8c6.2 27.7 12.1 38.7 31.5 43.4l34.8-79.1c-18.4-1.1-36.9-1.3-55.4-.5-21.3 1.1-13.6 24.3-10.9 36.2zm60 46 35.1-79.5c6.3.7 12.6 1.4 18.9 2.2 22.4 2.8 17.9 23 11.5 37.1-9.6 21-19.7 38.6-65.5 40.2zm185.3-40.2c6.5 14.3 13.2 27 31.3 34.2l33.4-76.1c-17.8.9-35.6 2.5-53.2 4.9-22.3 2.8-17.8 23-11.5 37zm71.4 40.3c-4.6 0-8.8-.2-12.8-.5l36.4-82.4c6.6 0 13.1.2 19.7.5 21.2 1.2 13.6 24.3 10.9 36.2-8.2 36.4-15.7 44.1-54.2 46.2z" fill="#b4d8f2"/><path d="m124.7 367.9c2 0 4 0 5.8-.1l35.1-79.5c-9.6-1-19.2-1.8-28.9-2.3l-34.7 79.1c6.1 1.5 13.5 2.3 22.7 2.8zm222.5-6.1c7.1 2.8 16 4.8 27.2 5.6l36.4-82.4c-10.1-.1-20.1.2-30.2.7z" fill="#6e91ef"/><path d="m122.9 400.6c99.5-.2 104.8-66 118.7-89 5.9-12 22.9-12 28.8 0 13.8 23 19.1 88.8 118.7 89 115-6 62.2-93.4 111.1-112l3.5-27.2c-82.1-13.9-166.6-7.1-247.6 9.8-74.8-15.6-152.6-22.6-228.7-12.6-6.3.8-12.7 1.8-19 2.9l3.5 27.2c48.9 18.5-3.9 105.9 111 111.9zm73.2-73c-9.5 21-19.6 38.6-65.5 40.2-1.9.1-3.8.1-5.8.1-36.6-2-45.6-8-54.2-46.2-2.7-11.9-10.4-35 10.9-36.2 34.4-1.5 68.9.5 103.1 5.1 22.3 2.8 17.8 23 11.5 37zm151.1 34.2c-18.1-7.2-24.8-19.9-31.3-34.2-6.4-14.1-10.9-34.2 11.5-37.1 34.1-4.5 68.7-6.6 103.1-5.1 21.2 1.2 13.6 24.3 10.9 36.2-8.2 36.3-15.7 44-54.2 46.2-13.1.1-27.6-1.1-40-6z" fill="#d56a4e"/><path d="m122.9 400.6c-91.7-33.2-45.7-109.4-90.6-127.2l-1.9-15.2c-7.4.9-14.8 2-22.1 3.3l3.5 27.2c49 18.5-3.8 105.9 111.1 111.9z" fill="#ce3f29"/><path d="m31.5 258c19.2-2.4 38.5-3.7 57.8-4l96.7-108 22 22c5.4 5.4 14.2 5.4 19.6 0s5.4-14.2 0-19.6l-32.6-32.6c-5.8-5.8-15.4-5.8-21.2 0zm294.5-112 96.7 108c19.3.4 38.6 1.6 57.8 4l-142.2-142.2c-5.8-5.8-15.4-5.8-21.2 0l-32.6 32.6c-5.4 5.4-5.4 14.2 0 19.6s14.2 5.4 19.6 0z" fill="#d56a4e"/><path d="m31.5 258c19.2-2.4 38.5-3.7 57.8-4l20.2-22.5c-17.7-.2-35.3.2-52.9 1.5zm371-26.5c17.7-.2 35.3.2 52.9 1.5l25 25c-19.2-2.4-38.5-3.7-57.8-4z" fill="#ce3f29"/></g></g><g><path d="m504.9 254c-6.9-1.2-13.9-2.2-20.9-3.1l-53.4-53.4-10.6 10.6 40.3 40.3c-11.2-.9-22.6-1.6-34.2-1.8l-99.7-111.5-27.6 27.6c-1.2 1.2-2.8 1.8-4.5 1.8s-3.3-.7-4.5-1.8c-2.5-2.5-2.5-6.5 0-9l32.6-32.6c2.9-2.9 7.7-2.9 10.6 0l55.2 55.2 10.6-10.6-55.2-55.2c-8.8-8.8-23-8.8-31.8 0l-32.6 32.6c-8.3 8.3-8.3 21.9 0 30.2 4 4 9.4 6.2 15.1 6.2s11.1-2.2 15.1-6.2l16.4-16.4 80.1 89.5c-46.8.4-96.5 6.1-149.8 17.1-53.3-11-103-16.7-149.8-17.1l80.1-89.5 16.4 16.4c8.3 8.3 21.9 8.3 30.2 0s8.3-21.9 0-30.2l-32.6-32.6c-4.2-4.2-9.9-6.6-15.9-6.6s-11.7 2.3-15.9 6.6l-140.6 140.4c-7 .9-14 1.9-20.9 3.1l-7.1 1.2 5 38.8 4.2 1.6c14.4 5.4 17.7 18.1 22 38.2 3.3 15.6 7.1 33.3 19.9 47.6 14.5 16.2 37.8 24.9 71.4 26.7h.4c30.3-.1 55.3-6.2 74.3-18.2l-8-12.7c-16.5 10.4-38.8 15.8-66.1 15.9-29.3-1.6-49.2-8.7-60.8-21.7-10.1-11.4-13.3-26.3-16.4-40.7-4-18.6-8.1-37.8-27.1-47.3l-2-15.8c71.6-11.1 149.4-7.5 237.8 10.9l1.5.3 1.5-.3c88.3-18.4 166.2-22 237.8-10.9l-2 15.8c-19.1 9.5-23.2 28.7-27.1 47.3-3.1 14.4-6.3 29.4-16.4 40.7-11.6 13-31.5 20.1-60.8 21.7-34.1-.1-59.3-8-77-24.1-14.9-13.6-21.9-30.8-27.5-44.6-2.6-6.3-4.8-11.8-7.5-16.3-4-7.9-12-12.9-21-12.9-8.9 0-16.9 4.9-21 12.9-2.7 4.5-4.9 10-7.5 16.3-5.6 13.8-12.5 31-27.4 44.6l10.1 11.1c17.4-15.9 25.4-35.6 31.2-50.1 2.4-5.9 6.9-15.1 6.9-15.1 1.5-3 4.3-4.8 7.6-4.8s6.2 1.8 7.6 4.8c0 0 4.5 9.2 6.9 15.1 11.8 29.2 31.5 77.9 118.5 78.1 55.3-1.1 85.5-27.8 91.8-74.3 4.3-20.1 7.7-32.8 22-38.2l4.2-1.6 5-38.8zm-325.9-132.9c1.4-1.4 3.3-2.2 5.3-2.2s3.9.8 5.3 2.2l32.6 32.6c2.5 2.5 2.5 6.5 0 9s-6.5 2.5-9 0l-27.6-27.6-99.7 111.4c-11.6.3-23 .9-34.2 1.8z"/><path d="m331.9 362c12.7 9 30.2 13.3 55.3 13.4h.2.2c41.1-2.3 52-11.5 61.1-52 .2-1 .5-2.1.8-3.3 2.5-10.2 5.8-24.2-1.3-33.8-3.7-5-9.5-7.8-17.3-8.3-32.8-1.4-67.9.3-104.3 5.1-12.1 1.5-17.7 7.4-20.3 12-6.1 10.9-1.8 25.3 2.9 35.6 5.2 11.7 11 22.9 22.7 31.3zm25.6-4.8 28.2-64.2c4.6-.2 9.1-.3 13.7-.4l-29.5 66.8c-4.6-.5-8.7-1.2-12.4-2.2zm78.7-62c3 4 .4 14.9-1.2 21.4-.3 1.3-.6 2.4-.8 3.5-7.6 33.8-12.9 38.4-47 40.3-.4 0-.9 0-1.3 0l29.9-67.8c4.9.1 9.7.2 14.4.4 3 .2 5 .9 6 2.2zm-116.8 7.3c1.3-2.4 4.4-3.9 9.1-4.5 13.7-1.8 27.2-3.2 40.4-4.1l-25.4 57.7c-1-.6-2-1.2-2.9-1.9-8.7-6.2-13.2-15.1-17.8-25.2-4.4-9.7-5.7-17.9-3.4-22z"/><path d="m205.7 295.2c-2.6-4.6-8.2-10.5-20.2-12-36.5-4.8-71.6-6.5-104.5-5.1-7.7.4-13.5 3.2-17.2 8.3-7.2 9.7-3.8 23.6-1.3 33.8.3 1.2.6 2.3.8 3.3 9.1 40.5 19.9 49.7 61.1 52 25 0 43.2-4.4 55.8-13.4 11.7-8.4 17.5-19.6 22.8-31.2 4.5-10.4 8.8-24.9 2.7-35.7zm-80.8 65.2c-4.6-.3-8.6-.6-12.2-1l28.8-65.6c4.3.3 8.7.6 13.1 1l-29 65.6c-.2 0-.4 0-.7 0zm-47-40.3c-.2-1.1-.5-2.3-.8-3.5-1.6-6.5-4.2-17.3-1.2-21.4 1-1.3 3-2 5.9-2.2 14.2-.6 28.8-.6 43.8 0l-27.7 63.1c-11.2-4.7-15.2-14.3-20-36zm111.3 4.4c-4.6 10.1-9.1 19-17.8 25.2-6.9 4.9-16.4 8.1-28.9 9.6l27.8-63c4.4.5 8.8 1 13.3 1.6 4.7.6 7.7 2.1 9.1 4.5 2.2 4.2.9 12.4-3.5 22.1z"/><path d="m401.9 179.4h15v15h-15z" transform="matrix(.707 -.707 .707 .707 -12.281 344.155)"/></g></svg>