<svg id="Capa_1" enable-background="new 0 0 512 512" height="512" viewBox="0 0 512 512" width="512" xmlns="http://www.w3.org/2000/svg"><g><g><g><g clip-rule="evenodd" fill-rule="evenodd"><path d="m474.5 268.94c0-120.674-97.826-218.5-218.5-218.5s-218.5 97.825-218.5 218.5c0 22.617 3.437 44.432 9.815 64.949-6.754 4.561-10.761 12.702-9.623 21.29l5.607 42.319c-22.718-37.509-35.799-81.505-35.799-128.558 0-137.243 111.257-248.5 248.5-248.5s248.5 111.257 248.5 248.5c0 47.053-13.081 91.049-35.799 128.557l5.607-42.318c1.138-8.588-2.87-16.729-9.624-21.289 6.379-20.519 9.816-42.333 9.816-64.95z" fill="#fff"/><path d="m367.28 488.456-32.936-4.364c-24.152-3.2-41.294-25.579-38.094-49.732l16.583-125.154c3.2-24.153 25.58-41.295 49.732-38.095l32.935 4.364z" fill="#e5ecf5"/><path d="m389.236 491.365-21.956-2.909 28.221-212.981 21.957 2.909c12.076 1.6 20.648 12.789 19.047 24.866l-3.2 24.153-16.002 120.762-3.2 24.152c-1.601 12.078-12.79 20.648-24.867 19.048z" fill="#b0c5e0"/><path d="m439.26 451.075-21.957-2.909 16.002-120.762 21.957 2.909c3.487.462 6.682 1.724 9.424 3.576 6.754 4.561 10.761 12.702 9.623 21.29l-5.607 42.318-4.576 34.531c-1.6 12.075-12.79 20.647-24.866 19.047z" fill="#eef4f9"/><path d="m177.655 484.092-32.935 4.365-28.22-212.981 32.935-4.364c24.152-3.2 46.532 13.942 49.732 38.095l16.583 125.153c3.2 24.152-13.942 46.531-38.095 49.732z" fill="#e5ecf5"/><path d="m97.898 472.318-3.2-24.152-16.002-120.763-3.2-24.153c-1.6-12.076 6.971-23.266 19.047-24.866l21.957-2.909 28.221 212.981-21.957 2.909c-12.076 1.6-23.266-6.97-24.866-19.047z" fill="#b0c5e0"/><path d="m47.875 432.028-4.575-34.531-5.607-42.319c-1.138-8.588 2.869-16.729 9.623-21.29 2.742-1.852 5.937-3.114 9.424-3.576l21.957-2.909 16.002 120.762-21.957 2.909c-12.077 1.601-23.267-6.972-24.867-19.046z" fill="#eef4f9"/></g><g><path d="m361.294 348.719-14.867-1.99 1.991-14.867 14.867 1.99zm3.982-29.734-14.867-1.99 1.991-14.867 14.867 1.99z" fill="#fff"/></g></g></g><g><path d="m512 268.94c0-65.487-24.721-127.803-69.61-175.466l-10.92 10.283c42.258 44.87 65.53 103.534 65.53 165.183 0 28.787-5.126 57.165-15.009 83.837.121-6.658-1.995-13.131-6.124-18.521-.804-1.05-1.673-2.031-2.59-2.952 5.787-20.197 8.723-41.15 8.723-62.365 0-60.367-23.508-117.121-66.194-159.807s-99.439-66.192-159.806-66.192-117.121 23.508-159.806 66.193-66.194 99.44-66.194 159.807c0 21.213 2.937 42.167 8.723 62.365-.917.921-1.786 1.902-2.59 2.952-4.129 5.39-6.245 11.864-6.124 18.522-9.883-26.673-15.009-55.052-15.009-83.839 0-64.374 25.068-124.895 70.587-170.413 45.519-45.519 106.039-70.587 170.413-70.587 61.647 0 120.31 23.272 165.182 65.529l10.283-10.92c-47.666-44.888-109.981-69.609-175.465-69.609-68.38 0-132.667 26.629-181.019 74.98-48.352 48.353-74.981 112.64-74.981 181.02 0 46.27 12.471 91.55 36.066 131.066l4.374 33.007c1.037 7.825 5.078 14.793 11.378 19.62 5.244 4.017 11.513 6.137 17.98 6.137 1.303 0 2.615-.086 3.927-.261l14.522-1.924 2.215 16.718c1.973 14.892 14.739 25.757 29.373 25.757 1.292 0 2.599-.085 3.914-.26l54.891-7.274c13.667-1.811 25.839-8.872 34.273-19.883s12.082-24.602 10.271-38.269l-16.583-125.153c-3.752-28.313-29.844-48.305-58.152-44.544l-54.893 7.272c-16.207 2.147-27.644 17.08-25.497 33.286l2.215 16.719-14.521 1.924c-1.226.162-2.427.407-3.605.713-4.743-17.745-7.148-36.089-7.148-54.651 0-116.346 94.654-211 211-211s211 94.654 211 211c0 18.563-2.405 36.907-7.149 54.652-1.178-.307-2.38-.551-3.605-.713l-14.522-1.924 2.215-16.719c2.147-16.206-9.291-31.139-25.498-33.286l-54.891-7.272c-13.667-1.812-27.258 1.836-38.269 10.271s-18.073 20.606-19.884 34.273l-16.583 125.153c-3.752 28.313 16.23 54.4 44.544 58.152l54.892 7.273c1.315.175 2.621.26 3.914.26 14.631 0 27.398-10.866 29.372-25.757l2.215-16.718 14.522 1.924c1.313.175 2.624.261 3.928.261 6.467-.001 12.736-2.12 17.98-6.137 6.3-4.826 10.341-11.795 11.378-19.62l4.374-33.009c23.596-39.515 36.067-84.795 36.067-131.064zm-416.472 16.879 14.522-1.924 14.756 111.363 14.87-1.971-14.756-111.362 25.501-3.379c20.121-2.657 38.647 11.531 41.312 31.646l16.583 125.153c1.285 9.695-1.311 19.347-7.309 27.177s-14.641 12.85-24.336 14.135l-25.5 3.379-5.583-42.137-14.87 1.971 5.583 42.137-14.521 1.925c-8.001 1.063-15.385-4.591-16.446-12.599l-22.403-169.068c-1.061-8.007 4.59-15.385 12.597-16.446zm-37.804 51.929 14.522-1.924 14.031 105.893-14.522 1.924c-3.855.509-7.695-.525-10.815-2.915s-5.12-5.828-5.63-9.683l-10.183-76.85c-.511-3.854.524-7.695 2.914-10.814 2.39-3.121 5.829-5.121 9.683-5.631zm277.606 138.91c-20.114-2.666-34.31-21.199-31.645-41.313l16.583-125.153c1.285-9.695 6.304-18.339 14.135-24.336 7.83-5.998 17.479-8.593 27.178-7.31l25.5 3.379-26.25 198.111zm71.337-5.325c-1.061 8.007-8.437 13.656-16.446 12.599l-14.522-1.925 26.25-198.111 14.521 1.924c8.007 1.062 13.659 8.439 12.598 16.446zm50.023-40.291c-.511 3.854-2.51 7.293-5.63 9.684-3.12 2.389-6.961 3.42-10.815 2.914l-14.522-1.924 14.031-105.893 14.522 1.924c3.854.511 7.292 2.511 9.683 5.631 2.39 3.119 3.425 6.96 2.914 10.814z"/><path d="m127.696 409.078h15v15h-15z" transform="matrix(.991 -.131 .131 .991 -53.545 21.367)"/></g></g></svg>