<svg id="Capa_1" enable-background="new 0 0 512 512" height="512" viewBox="0 0 512 512" width="512" xmlns="http://www.w3.org/2000/svg"><g><g><g clip-rule="evenodd" fill-rule="evenodd"><path d="m22.5 387.321h196l7.5 15.857h60l7.5-15.857h196v-292.642c0-8.245-6.75-15-15-15h-437c-8.25 0-15 6.75-15 15zm30-30v-247.642h407v247.642z" fill="#a4a1a3"/><path d="m52.5 357.321h407v-247.642h-407zm56.65-44.999v-157.644h166.2v157.643h-166.2z" fill="#b4d8f2"/><path d="m37.5 432.321h437c16.499 0 30-13.501 30-30v-15h-211l-7.5 15.857h-60l-7.5-15.857h-211v15c0 16.5 13.501 30 30 30z" fill="#a4a1a3"/><path d="m109.15 312.322h166.2v-157.644h-166.2zm39.864-109.407h32.732l17.038 38.67h21.701c8.248 0 15 6.75 15 15v15h-55.099z" fill="#fff"/><path d="m149.014 202.915 31.371 68.67h55.099v-15c0-8.25-6.751-15-15-15h-21.701l-17.038-38.67z" fill="#ecc87d"/><path d="m52.5 109.679h22.5v247.642h-22.5z" fill="#6e91ef"/><path d="m37.5 432.321h22.5c-16.499 0-30-13.5-30-30v-15h-22.5v15c0 16.5 13.501 30 30 30z" fill="#7a7979"/><path d="m22.5 387.321h22.5v-292.642c0-8.25 6.75-15 15-15h-22.5c-8.25 0-15 6.75-15 15z" fill="#7a7979"/></g><g><path d="m437 177.179h-15v-15h15zm0-30h-15v-15h15z" fill="#fff"/></g></g><g><path d="m422 424.821h15v15h-15z"/><path d="m497 379.82v-285.141c0-12.406-10.094-22.5-22.5-22.5h-437c-12.407 0-22.5 10.094-22.5 22.5v285.141h-15v22.501c0 20.678 16.822 37.5 37.5 37.5h369.5v-15h-369.5c-12.407 0-22.5-10.094-22.5-22.5v-7.501h198.751l7.5 15.857h69.498l7.5-15.857h198.751v7.501c0 12.406-10.094 22.5-22.5 22.5h-22.5v15h22.5c20.678 0 37.5-16.822 37.5-37.5v-22.501zm-208.249 0-7.5 15.857h-50.502l-7.5-15.857h-193.249v-285.141c0-4.136 3.364-7.5 7.5-7.5h437c4.136 0 7.5 3.364 7.5 7.5v285.141z"/><path d="m45 147.179h15v-30h392v232.642h-392v-187.642h-15v202.642h422v-262.642h-422z"/><path d="m101.65 147.179v172.643h181.2v-172.643zm166.2 157.642h-151.2v-142.642h151.2z"/><path d="m156.515 237.382 19.051 41.703h67.419v-22.5c0-12.406-10.093-22.5-22.5-22.5h-16.81l-17.038-38.67h-45.123v83.67h15v-41.703zm20.34-26.967 17.038 38.67h26.592c4.136 0 7.5 3.364 7.5 7.5v7.5h-42.78l-24.518-53.67z"/><path d="m342.85 248.5h15v15h-15z"/><path d="m297.85 278.499h105.001v15h-105.001z"/><path d="m297.85 218.5h105.001v15h-105.001z"/><path d="m297.85 248.5h30v15h-30z"/><path d="m297.85 173.501h52.5v15h-52.5z"/><path d="m372.85 248.5h30.001v15h-30.001z"/></g></g></svg>