<svg id="Capa_1" enable-background="new 0 0 512.09 512.09" height="512" viewBox="0 0 512.09 512.09" width="512" xmlns="http://www.w3.org/2000/svg"><g><g><g clip-rule="evenodd" fill-rule="evenodd"><path d="m108.694 343.823 147.351 62.95 147.351-62.95v-122.084l-147.351 62.951-147.351-62.951z" fill="#a4a1a3"/><path d="m26.833 430.517h42.1l-7.017-84.201h-28.066z" fill="#7a7979"/><path d="m242.012 183.459c0-7.751 6.283-14.033 14.033-14.033s14.033 6.282 14.033 14.033c0 7.75-6.283 14.033-14.033 14.033-7.755 0-14.033-6.287-14.033-14.033zm14.033 101.231 147.351-62.951 89.604-38.28-236.955-101.231-236.955 101.231z" fill="#a4a1a3"/><path d="m242.033 184.245c.408 7.385 6.525 13.247 14.012 13.247 7.75 0 14.033-6.283 14.033-14.033 0-7.751-6.283-14.033-14.033-14.033s-14.033 6.282-14.033 14.033c0 .264.007.526.021.786z" fill="#eef4f9"/><path d="m108.694 221.739v122.084l22.5 9.612v-99.584l124.851 53.339 147.351-62.951v-22.5l-147.351 62.951z" fill="#7a7979"/></g><g><path d="m354.086 164.891-13.794-5.894 5.893-13.793 13.794 5.894zm-27.588-11.786-13.794-5.894 5.893-13.793 13.794 5.894z" fill="#fff"/></g></g><g><path d="m339.543 360.398h15v14.999h-15z" transform="matrix(.92 -.393 .393 .92 -116.631 165.922)"/><path d="m512.09 183.458-256.045-109.385-111.265 47.534 5.893 13.793 105.372-45.017 217.865 93.075-217.865 93.076-177.043-75.635 157.322-8.822c3.331 7.594 10.912 12.916 19.72 12.916 11.873 0 21.533-9.66 21.533-21.534 0-11.873-9.66-21.533-21.533-21.533-9.661 0-17.854 6.396-20.573 15.176l-187.553 10.517-9.738-4.16 98.698-42.166-5.893-13.793-130.985 55.958 40.383 17.252v138.105h-13.435l-8.266 99.201h58.4l-8.266-99.201h-13.433v-131.696l45.811 19.571v122.084l154.852 66.155 73.253-31.295-5.893-13.793-67.36 28.777-139.852-59.747v-105.773l139.852 59.747 139.852-59.747v105.773l-31.109 13.29 5.893 13.793 40.217-17.181v-122.083zm-256.045-6.533c3.603 0 6.533 2.931 6.533 6.533s-2.931 6.534-6.533 6.534-6.533-2.932-6.533-6.534 2.93-6.533 6.533-6.533zm-221.062 246.092 5.768-69.201h14.264l5.768 69.201z"/></g></g></svg>