<svg id="Capa_1" enable-background="new 0 0 512 512" height="512" viewBox="0 0 512 512" width="512" xmlns="http://www.w3.org/2000/svg"><g><g><g clip-rule="evenodd" fill-rule="evenodd"><path d="m148.665 166.383 107.335-62.883 107.335 62.883-68.399 46.816v29.202h-77.872v-29.202zm-57.196-158.883c-8.25 0-15 6.752-15 15v452c0-16.5 13.499-30 29.999-30h329.532v-437z" fill="#f9ee92"/><path d="m106.468 504.5h329.532v-59.999h-329.532c-16.5 0-29.999 13.5-29.999 30 0 16.499 13.499 29.999 29.999 29.999z" fill="#e5ecf5"/><path d="m113.968 7.5h-22.5c-8.25 0-15 6.752-15 15v452c0-13.912 9.598-25.692 22.5-29.044v-422.956c0-8.247 6.75-15 15-15z" fill="#ecc87d"/><path d="m106.468 504.5h22.5c-16.5 0-29.999-13.5-29.999-30s13.499-30 29.999-30h-22.5c-16.5 0-29.999 13.5-29.999 30s13.499 30 29.999 30z" fill="#b0c5e0"/><path d="m217.064 242.401h77.872v-58.404c0-10.707-8.761-19.468-19.468-19.468h-38.937c-10.707 0-19.468 8.76-19.468 19.468v58.404z" fill="#a4a1a3"/><path d="m148.665 166.383 68.399 46.816v-29.202c0-10.707 8.76-19.468 19.468-19.468h38.937c10.707 0 19.468 8.76 19.468 19.468v29.202l47.572-32.561 20.827-14.256-107.336-62.882z" fill="#a4a1a3"/></g><g><path d="m413.5 75h-15v-15h15zm0-30h-15v-15h15z" fill="#fff"/></g></g><g><path d="m91 0c-12.407 0-22.5 10.094-22.5 22.5v44.999h15v-44.999c0-4.136 3.365-7.5 7.5-7.5h337.5v422.001h-322.501c-8.434 0-16.228 2.8-22.5 7.518v-362.02h-15v392.001c0 20.678 16.822 37.5 37.5 37.5h247.501v-15h-247.501c-12.406 0-22.5-10.094-22.5-22.5s10.093-22.499 22.5-22.499h337.501v-452.001z"/><path d="m368.5 497h15v15h-15z"/><path d="m428.5 497h-30v15h45v-45h-15z"/><path d="m106 467h307.501v15h-307.501z"/><path d="m350.008 249.901v-65.308l27.324-18.703-121.332-71.082-121.332 71.083 74.896 51.263v32.748h92.873v-32.747l32.572-22.294v55.041h14.999zm-62.572-15h-62.873v-50.904c0-6.6 5.369-11.968 11.968-11.968h38.937c6.6 0 11.968 5.368 11.968 11.968zm-11.968-77.872h-38.937c-14.87 0-26.968 12.098-26.968 26.968v14.98l-46.901-32.102 93.338-54.683 93.338 54.683-46.902 32.102v-14.98c0-14.87-12.098-26.968-26.968-26.968z"/><path d="m196 287.4h120v15h-120z"/><path d="m196 347.4h120v15h-120z"/><path d="m181 317.4h149.999v15h-149.999z"/></g></g></svg>