<svg id="Capa_1" enable-background="new 0 0 512 512" height="512" viewBox="0 0 512 512" width="512" xmlns="http://www.w3.org/2000/svg"><g><g><g clip-rule="evenodd" fill-rule="evenodd"><path d="m256 259.325 55.282-45.463 16.833-81.128c39.657-36.878 30.864-15.48 38.093-69.833-27.312-18.331-80.939-10.039-110.208 0-29.269-10.039-82.897-18.331-110.208 0 7.23 54.354-1.564 32.955 38.093 69.833l16.833 81.128z" fill="#f9ee92"/><path d="m115 445.282c6.872 28.683 63.544 42.921 87.894 30.12l25.465-238.808-27.641-22.732-19.718 19.718z" fill="#f9ee92"/><path d="m202.894 475.402c6.876 13.89 18.08 29.098 53.106 29.098s46.23-15.208 53.106-29.098l-25.465-238.808-27.641 22.731-27.641-22.732z" fill="#f9ee92"/><path d="m309.106 475.402c24.35 12.801 81.022-1.437 87.894-30.12l-66-211.702-19.718-19.718-27.641 22.732z" fill="#f9ee92"/><path d="m168.305 54.156c-8.492 1.7-16.205 4.511-22.513 8.745 7.23 54.354-1.564 32.955 38.093 69.833l16.833 81.128 29.015 23.862-23.409-114.301c-39.516-36.747-30.927-15.64-38.019-69.267z" fill="#ecc87d"/><path d="m115 445.282c1.917 8.001 7.711 14.876 15.596 20.356l72.903-232.059 9.565-9.565-12.346-10.153-19.718 19.718z" fill="#ecc87d"/></g><g><path d="m330.104 97.118h-15v-15h15zm-30.001 0h-15v-15h15z" fill="#fff"/></g></g><g><path d="m373.316 385.869h15v15h-15z" transform="matrix(.955 -.298 .298 .955 -99.827 131.18)"/><path d="m394.672 412.617-14.32 4.465 8.813 28.268c-2.646 7.41-10.515 14.502-21.945 19.686-16.92 7.674-38.328 9.714-51.119 5.232l-24.573-230.448 19.263-15.842 13.6 13.599 42.568 136.545 14.32-4.465-43.669-140.073-18.162-18.163 15.523-74.812c7.912-7.277 13.775-12.118 18.134-15.719 15.056-12.433 15.606-14.445 18.137-37.083.583-5.212 1.308-11.698 2.401-19.917l.614-4.619-3.869-2.598c-12.299-8.255-28.683-11.185-42.991-11.911v-44.762h-15v44.71c-18.557.753-38.361 4.359-56.397 10.28-18.036-5.921-37.84-9.527-56.397-10.28v-44.71h-15v44.764c-14.305.726-30.692 3.655-42.991 11.91l-3.869 2.598.614 4.619c1.093 8.219 1.819 14.705 2.401 19.917 2.531 22.639 3.081 24.651 18.136 37.083 4.36 3.601 10.223 8.441 18.135 15.719l6.405 30.868 14.687-3.047-7.378-35.561-1.75-1.628c-9.129-8.489-15.729-13.938-20.547-17.918-6.071-5.013-8.582-7.145-9.753-9.58-1.379-2.867-1.964-8.102-3.027-17.604-.469-4.198-1.03-9.214-1.8-15.302 23.524-12.125 67.903-7.749 99.702 3.156l2.432.836 2.433-.835c31.798-10.906 76.178-15.281 99.702-3.156-.77 6.088-1.331 11.104-1.8 15.302-1.063 9.502-1.647 14.736-3.027 17.603-1.172 2.437-3.683 4.568-9.754 9.582-4.819 3.979-11.418 9.429-20.546 17.917l-1.75 1.628-16.782 80.879-48.476 39.865-48.476-39.866-6.356-30.631-14.687 3.047 6.07 29.256-18.162 18.163-67.164 215.438.481 2.008c3.062 12.778 14.027 24.024 30.877 31.667 20.081 9.107 44.285 11.354 60.915 6.159 8.557 14.251 23.05 27.144 56.502 27.144s47.945-12.893 56.501-27.145c16.631 5.195 40.834 2.948 60.915-6.159 16.85-7.643 27.816-18.889 30.877-31.667l.481-2.008zm-249.892 52.418c-11.43-5.184-19.298-12.275-21.945-19.686l64.774-207.773 13.6-13.599 19.263 15.842-24.574 230.449c-12.79 4.483-34.198 2.442-51.118-5.233zm111.22 31.965c-29.763 0-39.404-11.549-45.412-23.019l23.753-222.758 21.659 17.812 21.659-17.812 23.753 222.758c-6.008 11.47-15.649 23.019-45.412 23.019z"/></g></g></svg>