<svg id="Capa_1" enable-background="new 0 0 512 512" height="512" viewBox="0 0 512 512" width="512" xmlns="http://www.w3.org/2000/svg"><g><g><g clip-rule="evenodd" fill-rule="evenodd"><path d="m83.5 504.5h345c8.247 0 15.322-6.759 15-15l-15-383.143h-73.644v30c0 8.25-6.75 15-15 15s-15-6.75-15-15v-30h-137.712v30c0 8.25-6.75 15-15 15s-15-6.75-15-15v-30h-73.644l-15 383.143c-.323 8.244 6.753 15 15 15zm112.5-97.822v-105h-37.5l7.5-52.5c2.334-16.334 13.5-30 30-30h120c16.5 0 27.667 13.669 30 30l7.5 52.5h-37.5v105z" fill="#b4d8f2"/><path d="m157.144 136.356c0 8.25 6.75 15 15 15s15-6.75 15-15v-30c0-37.812 31.044-68.856 68.856-68.856s68.856 31.044 68.856 68.856v30c0 8.25 6.75 15 15 15s15-6.75 15-15v-30c0-54.371-44.485-98.856-98.856-98.856s-98.856 44.485-98.856 98.856z" fill="#b4d8f2"/><path d="m196 406.678h120v-105h37.499l-7.5-52.5c-2.333-16.33-13.5-30-30-30h-30c0 16.568-13.431 30-30 30-16.568 0-30-13.431-30-30h-30c-16.5 0-27.666 13.666-30 30l-7.5 52.5h37.501z" fill="#d56a4e"/><path d="m226 219.178c0 16.568 13.431 30 30 30s30-13.431 30-30z" fill="#ce3f29"/><path d="m83.5 504.5h22.5c-8.247 0-15.323-6.756-15-15l15-383.143h-22.5l-15 383.143c-.323 8.244 6.753 15 15 15z" fill="#6e91ef"/><path d="m157.144 136.356c0 8.25 6.75 15 15 15s15-6.75 15-15v-22.5c0 8.25-6.75 15-15 15s-15-6.75-15-15zm167.712-22.499v22.5c0 8.25 6.75 15 15 15s15-6.75 15-15v-22.5c0 8.25-6.75 15-15 15s-15-6.75-15-15z" fill="#6e91ef"/></g><g><path d="m393.918 181.615-.587-14.987 14.988-.588.587 14.989zm-1.174-29.976-.587-14.989 14.988-.587.587 14.988z" fill="#fff"/></g></g><g><path d="m368.5 497h15v15h-15z"/><path d="m77.907 494.604c-.754-.784-2.005-2.451-1.913-4.811l12.74-325.41-14.988-.586-12.74 325.41c-.23 5.862 1.933 11.472 6.089 15.794 4.277 4.448 10.257 6.999 16.405 6.999h270v-15h-270c-2.09 0-4.128-.873-5.593-2.396z"/><path d="m435.712 98.856h-73.624c-3.861-55.158-49.964-98.856-106.088-98.856-56.123 0-102.227 43.698-106.088 98.856h-73.624l-1.956 49.961 14.988.586 1.392-35.547h58.932v22.5c0 12.406 10.094 22.5 22.5 22.5s22.5-10.094 22.5-22.5v-22.5h122.713v22.5c0 12.406 10.094 22.5 22.5 22.5s22.5-10.094 22.5-22.5v-22.5h58.932l14.718 375.937c.092 2.358-1.159 4.026-1.914 4.811-1.464 1.523-3.502 2.396-5.592 2.396h-29.999v15h29.998c6.147 0 12.127-2.551 16.404-6.999 4.156-4.322 6.319-9.932 6.09-15.794zm-240.594 0c3.713-30.304 29.59-53.856 60.882-53.856s57.169 23.552 60.882 53.856zm152.238 37.5c0 4.136-3.364 7.5-7.5 7.5s-7.5-3.364-7.5-7.5v-30c0-42.103-34.252-76.356-76.356-76.356-42.103 0-76.356 34.253-76.356 76.356v30c0 4.136-3.364 7.5-7.5 7.5s-7.5-3.364-7.5-7.5v-30c0-50.374 40.982-91.356 91.356-91.356s91.356 40.982 91.356 91.356z"/><path d="m315.999 211.678h-119.999c-18.97 0-34.359 14.984-37.424 36.439l-8.723 61.061h38.647v105h135v-105h38.646l-8.723-61.061c-3.064-21.455-18.453-36.439-37.424-36.439zm-38.789 15c-3.096 8.729-11.433 15-21.21 15s-18.114-6.271-21.21-15zm46.29 67.5v-22.5h-15v127.5h-105v-127.5h-15v22.5h-21.352l6.277-43.939c1.676-11.728 9.306-23.561 22.575-23.561h23.255c3.484 17.096 18.635 30 36.745 30s33.261-12.904 36.745-30h23.254c13.271 0 20.9 11.833 22.575 23.561l6.277 43.939z"/></g></g></svg>