<svg id="Capa_1" enable-background="new 0 0 512.051 512.051" height="512" viewBox="0 0 512.051 512.051" width="512" xmlns="http://www.w3.org/2000/svg"><g><g><g clip-rule="evenodd" fill-rule="evenodd"><path d="m76.931 495.758c69.763 26.559 84.834-13.027 15.071-39.586-69.764-26.56-84.835 13.027-15.071 39.586z" fill="#e5ecf5"/><path d="m420.867 380.607c-72.527 17.67-62.499 58.825 10.027 41.154s62.499-58.825-10.027-41.154z" fill="#e5ecf5"/><path d="m305.67 201.19c9.043 37.111 46.804 60.077 83.916 51.036 37.111-9.043 61.901-47.298 51.035-83.917l-1.341-4.52c-25.723-44.445-65.136-20.997-85.813-19.278-14.572 1.212-29.432-24.766 5.42-53.233-13.262-1.735-59.76 2.902-63.208 57.828z" fill="#f9ee92"/><path d="m139.015 332.68c35.698 13.59 76.024-4.497 89.615-40.196l16.395-50.435c3.414-54.929-42.145-65.316-55.521-65.244 31.039 32.583 13.061 56.51-1.247 53.494-20.302-4.279-56.491-32.45-87.545 8.448l-1.893 4.318c-15.338 34.982 4.498 76.025 40.196 89.615z" fill="#f9ee92"/><path d="m100.713 238.747c31.054-40.898 67.243-12.728 87.545-8.448 14.308 3.016 32.286-20.911 1.247-53.494 13.375-.072 58.934 10.316 55.521 65.244l24.96-76.784-117.448-44.713z" fill="#fff"/><path d="m358.888 91.279c-34.852 28.467-19.992 54.445-5.42 53.233 20.676-1.719 60.09-25.168 85.813 19.278l-36.714-123.726-122.099 29.75 15.211 79.293c3.448-54.927 49.946-59.564 63.209-57.828z" fill="#fff"/><path d="m100.713 238.747c10.303-13.569 21.171-19.535 31.837-21.294l39.27-89.56-19.281-7.34-22.446 51.191z" fill="#eef4f9"/><path d="m98.819 243.066c-15.339 34.982 4.498 76.024 40.196 89.615 11.805 4.494 24.115 5.524 35.798 3.599-4.464-.74-8.916-1.931-13.299-3.599-35.698-13.59-55.534-54.633-40.196-89.615l1.893-4.318 9.337-21.294c-10.666 1.758-21.534 7.725-31.836 21.293z" fill="#ecc87d"/><path d="m64.912 448.501c-45.271-7.549-47.506 24.596 12.018 47.257 22.624 8.613 39.496 10.27 49.588 7.67-7.788-1.298-16.849-3.772-27.088-7.67-47.139-17.946-55.545-41.84-34.518-47.257z" fill="#b0c5e0"/><path d="m280.468 69.813 15.211 79.294c1.145-18.242 7.039-30.936 14.886-39.693-2.867-14.946-5.734-29.892-8.601-44.838z" fill="#eef4f9"/><path d="m305.67 201.19c8.628 35.413 43.407 57.945 78.817 52.078-26.658-4.418-49.544-24.28-56.318-52.078l-17.605-91.776c-7.847 8.757-13.74 21.451-14.886 39.692z" fill="#ecc87d"/><path d="m420.867 380.607c-65.435 15.942-63.671 51.001-9.438 44.728-26.048-4.084-24.153-24.126 11.033-38.177 5.994-2.393 12.953-4.613 20.904-6.55 7.092-1.728 13.587-2.894 19.466-3.574-9.984-1.566-24.073-.787-41.965 3.573z" fill="#b0c5e0"/></g><g><path d="m182.353 312.876-14.271-4.615 4.615-14.272 14.271 4.615zm24.231-28.545-14.271-4.615 4.615-14.272 14.271 4.615zm193.184-96.436-2.814-14.733 14.733-2.815 2.814 14.733zm-32.282-9.105-2.814-14.733 14.734-2.815 2.814 14.734z" fill="#fff"/></g></g><g><path d="m487.561 386.152c-3.851-15.801-27.532-21.236-61.148-14.461l-6.067-24.901-14.574 3.551 6.067 24.902c-32.964 9.45-51.491 25.172-47.641 40.973 2.76 11.323 15.699 17.325 35.181 17.325 9.642 0 20.887-1.471 33.291-4.493 37.47-9.132 59.016-25.97 54.891-42.896zm-58.441 28.322c-35.511 8.653-49.518 1.597-50.348-1.81-.77-3.161 7.103-14.333 36.62-22.841l3.201 13.136 14.574-3.551-3.201-13.137c30.118-6.024 42.251.271 43.021 3.433.831 3.406-8.358 16.116-43.867 24.77z"/><path d="m400.233 319.205h15.001v15h-15.001z" transform="matrix(.972 -.237 .237 .972 -65.747 105.8)"/><path d="m195.929 145.098 64.717 24.639-12.726 39.147c-2.811-7.195-6.846-13.611-12.119-19.192-15.346-16.24-37.045-20.439-46.338-20.386l-17.372.094 11.982 12.579c15.608 16.385 17.074 29.564 13.242 36.437-1.801 3.228-4.888 5.1-7.512 4.545-3.622-.764-8.365-2.623-13.387-4.593-10.604-4.158-23.773-9.349-37.911-8.983-6.486.161-12.654 1.51-18.488 4.009l36.521-83.29 25.372 9.658 5.336-14.018-38.712-14.738-56.584 129.048c-7.83 17.86-7.844 37.954-.037 56.579 7.31 17.441 20.784 31.702 37.56 40.037l-41.865 109.965c-32.51-10.906-56.686-8.458-62.474 6.742-6.198 16.281 13.086 35.668 49.129 49.39 16.009 6.096 30.534 9.284 42.209 9.284.795 0 1.577-.015 2.345-.044 17.537-.678 23.179-8.721 24.981-13.454 5.786-15.2-10.641-33.104-42.173-46.581l41.862-109.96c6.691 1.83 13.46 2.716 20.152 2.715 31.022-.002 60.323-18.903 72-49.574l43.685-134.356-78.057-29.717zm-66.149 348.118c-1.248 3.275-16.021 8.537-50.181-4.467-34.157-13.005-41.693-26.759-40.446-30.035.639-1.678 4.823-3.876 13.341-3.876 6.921 0 16.713 1.462 29.775 5.821l-4.811 12.638 14.018 5.336 4.811-12.638c28.228 12.115 34.65 24.18 33.493 27.221zm91.777-203.232c-12.216 31.812-48.008 47.819-79.873 35.688-16.134-6.143-29.232-18.841-35.938-34.838-6.204-14.8-6.225-30.695-.06-44.757l1.505-3.433c21.009-27.054 43.704-18.173 63.749-10.313 5.619 2.203 10.927 4.284 15.77 5.306 9.126 1.922 18.656-2.865 23.705-11.917 2.462-4.413 8.021-18.053-2.818-37.367 5.829 2.391 12.042 6.074 17.301 11.64 9.318 9.861 13.574 23.558 12.68 40.706z"/><path d="m383.987 260.929 11.132 45.69 14.574-3.551-11.134-45.697c17.681-6.183 32.824-18.655 42.249-35.052 10.063-17.509 12.551-37.447 7.003-56.144l-40.085-135.087-135.968 33.129 26.547 138.387.078.362c8.56 35.13 40.111 58.742 74.765 58.742 3.587 0 7.208-.259 10.839-.779zm13.421-211.888 25.871 87.187c-5.477-3.206-11.428-5.312-17.844-6.278-13.962-2.105-27.696 1.391-38.734 4.196-5.229 1.329-10.166 2.584-13.855 2.892-2.658.21-5.503-2.018-6.887-5.445-2.947-7.295.147-20.19 17.673-34.506l13.456-10.991-17.228-2.254c-9.239-1.21-31.269.259-48.515 14.462-5.926 4.882-10.727 10.745-14.412 17.533l-7.755-40.427zm-84.407 150.549-9.764-50.898c1.246-17.124 7.173-30.184 17.645-38.81 5.91-4.867 12.535-7.75 18.616-9.396-13.159 17.815-9.34 32.041-7.447 36.726 3.883 9.61 12.732 15.561 22.039 14.774 4.932-.41 10.457-1.814 16.307-3.302 20.865-5.303 44.488-11.291 61.967 18.161l1.068 3.599c4.368 14.72 2.37 30.488-5.627 44.401-8.645 15.039-23.221 26.008-39.993 30.094-33.128 8.078-66.649-12.264-74.811-45.349z"/><g fill="#f9ee92"><path d="m188.241 14.745h15.001v50.727h-15.001z" transform="matrix(.827 -.562 .562 .827 11.328 117.018)"/><path d="m227.675.483h15v50.727h-15z" transform="matrix(.997 -.074 .074 .997 -1.264 17.365)"/><path d="m161.223 46.813h14.999v50.728h-14.999z" transform="matrix(.435 -.901 .901 .435 30.343 192.709)"/></g></g></g></svg>