<svg id="Capa_1" enable-background="new 0 0 512.07 512.07" height="512" viewBox="0 0 512.07 512.07" width="512" xmlns="http://www.w3.org/2000/svg"><g><g><g clip-rule="evenodd" fill-rule="evenodd"><path d="m207.604 120.035c0 46.131 27.769 85.769 67.5 103.13h90c39.731-17.361 67.5-56.999 67.5-103.13 0-62.132-50.368-112.5-112.5-112.5s-112.5 50.368-112.5 112.5z" fill="#f9ee92"/><path d="m207.604 120.035c0 46.131 27.769 85.769 67.5 103.13h22.5c-39.731-17.361-67.5-56.999-67.5-103.13 0-58.335 44.4-106.297 101.25-111.942-66.143-6.566-123.75 45.211-123.75 111.942z" fill="#ecc87d"/><path d="m275.103 223.165h90v31.869h-90z" fill="#e5ecf5"/><path d="m297.603 285.034h45.001l22.499-30h-90z" fill="#e5ecf5"/><path d="m275.103 223.165h22.5v31.869h-22.5z" fill="#b0c5e0"/><path d="m297.603 285.034h22.5l-22.5-30h-22.5z" fill="#b0c5e0"/><path d="m329.401 384.431c16.389-.143 30.344-13.845 29.741-29.999l-.566-15.151-147.439-14.85-65.307 65.307 62.185 62.185 204.424-15.219 82.685-80.066c25.698-24.883-6.341-56.929-31.635-31.635l-58.541 57.555z" fill="#f5d9ab"/><path d="m148.54 366.116h34.709v136.466h-34.709z" fill="#ecc87d" transform="matrix(.707 -.707 .707 .707 -258.541 244.523)"/><path d="m20.527 504.534 156.093-.003 17.457-17.457-78.095-78.095z" fill="#ecc87d"/><path d="m226.415 470.325-96.496-96.496-24.544 24.543 15 15 24.543-24.543z" fill="#d99460"/><path d="m20.527 504.534h29.985l80.47-80.555-15-15z" fill="#d99460"/><path d="m238.391 327.177-27.255-2.746-65.308 65.308 15 15z" fill="#f0b582"/></g><g><path d="m380.104 67.535h-15v-15h15zm-30-15h-15v-15h15z" fill="#fff"/></g></g><g><path d="m511.075 328.902c-2.651-9.896-10.446-17.69-20.342-20.342-11.226-3.013-23.269.873-33.043 10.648l-55.851 55.851h-39.947c5.229-6.744 7.901-14.86 7.589-23.247l-.819-21.914-159.776-16.092-63.537 63.537-16.158-16.158-35.532 35.532 10.775 10.775-104.434 104.544 74.857-.003v-15l-38.67.001 78.852-78.935 68.703 68.703-10.229 10.229-53.656.001v15l59.869-.001 14.623-14.623 7.916 7.916 35.532-35.532-12.423-12.423 194.074-14.448 80.978-80.978c9.775-9.775 13.656-21.818 10.649-33.041zm-308.81 155.209-87.394-87.394 14.319-14.319 87.394 87.394zm287.554-132.776-77.039 77.04-201.405 14.995-55.42-55.42 58.507-58.507 139.698 14.07.331 8.859c.211 5.63-1.967 11.111-6.131 15.434-4.394 4.562-10.449 7.197-16.643 7.253h-83.859v15h83.66v.001c.086 0 .171 0 .257-.001h76.277l60.245-60.245c5.969-5.969 12.56-8.372 18.553-6.766 4.736 1.269 8.467 4.999 9.735 9.735 1.607 5.995-.796 12.584-6.766 18.552z"/><path d="m89.857 497.033h15v15h-15z"/><path d="m267.604 227.961v29.573l26.25 34.999h52.5l26.25-34.999v-29.573c41.165-20.038 67.5-61.871 67.5-107.927 0-66.168-53.832-120-120-120s-120 53.832-120 120c0 46.057 26.334 87.889 67.5 107.927zm15 2.704h75v16.87h-75zm48.75-114.111v99.11h-22.5v-99.11zm7.5 160.98h-37.5l-11.25-14.999h60zm-18.75-262.499c57.897 0 105 47.103 105 105 0 41.248-24.148 78.609-61.635 95.63h-17.115v-99.11h14.999v-15h-82.499v15h15v99.11h-17.115c-37.488-17.021-61.635-54.382-61.635-95.63 0-57.898 47.102-105 105-105z"/><g fill="#f9ee92"><path d="m452.231 71.786h38.244v15h-38.244z" transform="matrix(.981 -.196 .196 .981 -6.396 93.967)"/><path d="m140.104 112.535h45v15h-45z"/><path d="m463.853 141.663h15v38.244h-15z" transform="matrix(.196 -.981 .981 .196 221.253 591.453)"/><path d="m455.104 112.535h45v15h-45z"/><path d="m149.732 153.285h38.243v15h-38.243z" transform="matrix(.981 -.196 .196 .981 -28.25 36.232)"/><path d="m161.353 60.164h15v38.243h-15z" transform="matrix(.196 -.981 .981 .196 57.993 229.311)"/></g></g></g></svg>