<svg id="Capa_1" enable-background="new 0 0 512 512" height="512" viewBox="0 0 512 512" width="512" xmlns="http://www.w3.org/2000/svg"><g><g><g clip-rule="evenodd" fill-rule="evenodd"><path d="m37.5 241.052h437v189.635h-437zm-15 219.636h467c8.249 0 15-6.751 15-15v-298.5c0-8.249-6.75-15-15-15h-467c-8.25 0-15 6.75-15 15v298.5c0 8.25 6.752 15 15 15zm112.499-259.068c-8.284 0-14.999-6.715-14.999-15 0-8.284 6.715-15 14.999-15s15 6.716 15 15c-.001 8.285-6.716 15-15 15zm59.998 0c-8.284 0-15-6.715-15-15 0-8.284 6.716-15 15-15s14.999 6.716 14.999 15c.001 8.285-6.715 15-14.999 15zm99.063 9.43v-48.86h48.86 48.86 48.86v48.86h-48.86-48.86zm-234.06-24.43c0-8.284 6.716-15 14.999-15 8.284 0 15 6.716 15 15s-6.715 15-15 15c-8.283 0-14.999-6.715-14.999-15z" fill="#a4a1a3"/><circle cx="75" cy="186.62" fill="#f9ee92" r="15"/><path d="m294.06 162.191h146.58v48.86h-146.58z" fill="#f9ee92"/><path d="m67.5 335.87c0 24.853 20.147 45 45 45s45-20.147 45-45-20.147-45-45-45-45 20.147-45 45zm287 0c0 24.853 20.147 45 45 45s45-20.147 45-45-20.147-45-45-45-45 20.147-45 45z" fill="#a4a1a3"/><path d="m37.5 430.688h437v-189.636h-437zm75-139.818c24.853 0 45 20.147 45 45s-20.147 45-45 45-45-20.147-45-45 20.147-45 45-45zm74.999 0h137.003v90h-137.003zm167.001 45c0-24.853 20.147-45 45-45s45 20.147 45 45-20.147 45-45 45-45-20.147-45-45z" fill="#e5ecf5"/><path d="m187.499 380.87h137.003v-90h-137.003zm44.771-60h47.589c8.284 0 15 6.716 15 15 0 8.198-6.762 15.103-15.023 15h-47.589c-8.284 0-15-6.716-15-15 0-8.198 6.762-15.103 15.023-15z" fill="#b4d8f2"/><path d="m232.247 350.87h47.589c8.261.103 15.023-6.802 15.023-15 0-8.284-6.716-15-15-15h-47.589c-8.261-.103-15.023 6.802-15.023 15 0 8.284 6.716 15 15 15z" fill="#6e91ef"/><path d="m106 132.188h30v-50.876h240v50.877h30v-65.877c0-8.25-6.75-15-15-15h-270c-8.25 0-15 6.75-15 15z" fill="#a4a1a3"/><circle cx="134.999" cy="186.62" fill="#f9ee92" r="15"/><circle cx="194.997" cy="186.62" fill="#f9ee92" r="15"/><path d="m67.5 335.87c0 29.571 27.99 50.855 56.25 43.582-19.409-4.996-33.75-22.614-33.75-43.582s14.341-38.586 33.75-43.582c-28.26-7.274-56.25 14.011-56.25 43.582zm287 0c0 29.571 27.99 50.855 56.25 43.582-19.409-4.996-33.75-22.614-33.75-43.582s14.341-38.586 33.75-43.582c-28.259-7.274-56.25 14.011-56.25 43.582z" fill="#7a7979"/><path d="m22.5 460.688h22.5c-8.248 0-15-6.75-15-15v-298.5c0-8.25 6.75-15 15-15h-22.5c-8.25 0-15 6.75-15 15v298.5c0 8.25 6.752 15 15 15z" fill="#7a7979"/><path d="m37.5 241.052h22.5v189.635h-22.5z" fill="#b0c5e0"/><path d="m106 132.188h30v-22.5h-30zm270-22.499v22.5h30v-22.5z" fill="#7a7979"/><path d="m294.06 211.05h22.5v-48.86h-22.5zm97.72 0h22.5v-48.86h-22.5zm-48.86 0h22.5v-48.86h-22.5z" fill="#ecc87d"/></g><g><path d="m482 199.688h-15v-15h15zm0-30h-15v-15h15z" fill="#fff"/></g></g><g><path d="m429.5 453.188h15v15h-15z"/><path d="m489.5 124.688h-76v-58.375c0-12.406-10.093-22.5-22.5-22.5h-270c-12.406 0-22.5 10.094-22.5 22.5v58.376h-76c-12.406 0-22.5 10.094-22.5 22.5v22.499h15v-22.499c0-4.136 3.364-7.5 7.5-7.5h467c4.136 0 7.5 3.364 7.5 7.5v298.499c0 4.136-3.364 7.5-7.5 7.5h-30v15h30c12.406 0 22.5-10.094 22.5-22.5v-298.5c0-12.406-10.094-22.5-22.5-22.5zm-376-58.375c0-4.136 3.364-7.5 7.5-7.5h270c4.135 0 7.5 3.364 7.5 7.5v58.376h-15v-50.877h-255v50.877h-15zm255 58.375h-225v-35.876h225z"/><path d="m15 445.688v-261h-15v261c0 12.406 10.094 22.5 22.5 22.5h392v-15h-392c-4.136 0-7.5-3.365-7.5-7.5z"/><path d="m157.498 186.62c0-12.406-10.093-22.5-22.5-22.5s-22.5 10.094-22.5 22.5 10.093 22.5 22.5 22.5 22.5-10.094 22.5-22.5zm-29.999 0c0-4.136 3.364-7.5 7.5-7.5s7.5 3.364 7.5 7.5-3.364 7.5-7.5 7.5-7.5-3.364-7.5-7.5z"/><path d="m217.497 186.62c0-12.406-10.093-22.5-22.5-22.5s-22.5 10.094-22.5 22.5 10.093 22.5 22.5 22.5 22.5-10.094 22.5-22.5zm-29.999 0c0-4.136 3.364-7.5 7.5-7.5s7.5 3.364 7.5 7.5-3.364 7.5-7.5 7.5-7.5-3.364-7.5-7.5z"/><path d="m97.5 186.62c0-12.406-10.093-22.5-22.5-22.5s-22.5 10.094-22.5 22.5 10.093 22.5 22.5 22.5 22.5-10.094 22.5-22.5zm-30 0c0-4.136 3.364-7.5 7.5-7.5s7.5 3.364 7.5 7.5-3.364 7.5-7.5 7.5-7.5-3.364-7.5-7.5z"/><path d="m30 438.188h452v-204.635h-452zm15-189.635h422v174.635h-422z"/><path d="m112.5 283.37c-28.948 0-52.5 23.552-52.5 52.5s23.551 52.499 52.5 52.499 52.5-23.551 52.5-52.499-23.552-52.5-52.5-52.5zm0 89.999c-20.677 0-37.5-16.822-37.5-37.499 0-20.678 16.822-37.5 37.5-37.5s37.5 16.822 37.5 37.5c0 20.677-16.823 37.499-37.5 37.499z"/><path d="m179.999 388.37h152.003v-105h-152.003zm15-90h122.003v75h-122.003z"/><path d="m399.5 283.37c-28.948 0-52.5 23.552-52.5 52.5s23.551 52.499 52.5 52.499 52.5-23.551 52.5-52.499-23.551-52.5-52.5-52.5zm0 89.999c-20.677 0-37.5-16.822-37.5-37.499 0-20.678 16.822-37.5 37.5-37.5s37.5 16.822 37.5 37.5c0 20.677-16.822 37.499-37.5 37.499z"/><path d="m279.859 313.37h-47.549c-5.924-.068-11.546 2.23-15.822 6.453-4.284 4.23-6.741 10.08-6.741 16.047 0 12.406 10.094 22.5 22.5 22.5l47.496-.001c.093.001.186.002.279.002 5.846 0 11.376-2.286 15.597-6.456 4.284-4.23 6.74-10.078 6.74-16.045 0-12.406-10.093-22.5-22.5-22.5zm5.22 27.873c-1.413 1.396-3.204 2.146-5.242 2.127h-47.589c-4.136 0-7.5-3.364-7.5-7.5 0-1.983.832-3.942 2.281-5.374 1.391-1.374 3.185-2.127 5.06-2.127h.088l47.684.001c4.136 0 7.5 3.364 7.5 7.5-.002 1.984-.833 3.942-2.282 5.373z"/><path d="m286.56 154.69v63.859h161.58v-63.859zm97.72 15v33.859h-33.86v-33.859zm-82.72 0h33.86v33.859h-33.86zm131.58 33.86h-33.86v-33.86h33.86z"/></g></g></svg>