<svg id="Capa_1" enable-background="new 0 0 511.992 511.992" height="512" viewBox="0 0 511.992 511.992" width="512" xmlns="http://www.w3.org/2000/svg"><g><g><g clip-rule="evenodd" fill-rule="evenodd"><path d="m204.002 214.645c16.5 0 30-13.5 30-30v-82.434c0-16.5-13.5-30-30-30s-30 13.5-30 30v82.434c0 16.5 13.5 30 30 30z" fill="#f5d9ab"/><path d="m234.002 184.645c0 16.5 13.5 30 30 30s30-13.5 30-30v-82.434c0-16.5-13.5-30-30-30s-30 13.5-30 30z" fill="#f5d9ab"/><path d="m294.002 184.645c0 16.5 13.5 30 30 30s30-13.5 30-29.272v-83.162c0-16.5-13.5-30-30-30s-30 13.5-30 30z" fill="#f5d9ab"/><path d="m173.997 409.248h225.048v47.06h-225.048z" fill="#f9ee92"/><path d="m188.997 456.308h195.049v48.184h-195.049z" fill="#f5d9ab"/><path d="m188.997 409.248h195.049v-68.4l29.957-59.368v-82.499l41.803-155.571c9.202-34.246-43.095-56.345-57.482-7.749l-44.322 149.712c0 15.772-13.5 29.272-30 29.272s-30-13.5-30-30c0 16.5-13.5 30-30 30s-30-13.5-30-30c0 16.5-13.5 30-30 30s-30-13.5-30-30l-69.71-84.514c-17.858-21.65-66.941-3.706-42.426 42.427l62.544 117.694 64.587 80.596z" fill="#f5d9ab"/><path d="m173.997 409.248h22.5v47.06h-22.5z" fill="#ecc87d"/><path d="m188.997 456.308h22.5v48.184h-22.5z" fill="#f0b582"/><path d="m188.997 409.248h22.5v-75.9l-72.087-88.096-55.045-102.694c-14.116-26.338-3.962-43.547 10.558-49.355-21.125-8.951-54.035 9.879-33.058 49.355l62.544 117.694 64.587 80.596v68.4zm251.099-399.273c-14.326-6.42-33.827-1.149-41.772 25.686l-44.322 149.712c0 11.97-7.777 22.629-18.738 27.073 25.153 0 35.508-7.718 41.238-27.073l44.322-149.712c4.106-13.869 11.301-21.972 19.272-25.686z" fill="#f0b582"/><path d="m215.251 212.441c-10.968-4.474-18.75-15.269-18.75-27.796v-82.434c0-12.527 7.782-23.323 18.75-27.796-19.442-7.931-41.249 6.429-41.249 27.796v82.434c0 21.367 21.808 35.727 41.249 27.796zm120.001 0c-10.968-4.474-18.75-15.269-18.75-27.796v-82.434c0-12.527 7.782-23.323 18.75-27.796-19.442-7.931-41.25 6.429-41.25 27.796v82.434c0 21.367 21.808 35.727 41.25 27.796zm-60.001 0c-10.968-4.474-18.75-15.269-18.75-27.796v-82.434c0-12.527 7.782-23.323 18.75-27.796-19.442-7.931-41.25 6.429-41.25 27.796v82.434c.001 21.367 21.809 35.727 41.25 27.796z" fill="#f0b582"/></g><g><path d="m372.699 258.981h-15v-15h15zm-30 0h-15v-15h15z" fill="#fff"/></g></g><g><path d="m459.181 17.09c-4.689-7.58-12.332-13.326-20.969-15.765-17.251-4.87-38.493 3.2-47.08 32.206l-29.63 100.087v-31.407c0-20.678-16.823-37.5-37.501-37.5-12.254 0-23.153 5.909-30 15.026-6.847-9.117-17.746-15.026-30-15.026s-23.152 5.909-30 15.026c-6.847-9.117-17.746-15.026-30-15.026-20.678 0-37.5 16.822-37.5 37.5v61.554l-56.424-68.407c-11.067-13.415-31.798-15.865-47.194-5.575-13.398 8.953-22.441 28.443-7.641 56.295l27.752 52.222 13.246-7.039-27.751-52.223c-8.713-16.396-7.719-29.803 2.729-36.784 8.924-5.964 21.165-4.774 27.289 2.649l68.114 82.579c1.405 18.665 16.521 33.561 35.284 34.601 32.802 18.721 52.873 32.913 53.333 75.376l14.999-.162c-.466-43.087-18.634-62.23-47.421-80.233 4.361-2.54 8.17-5.927 11.188-9.945 6.847 9.117 17.746 15.026 30 15.026s23.153-5.909 30-15.026c6.847 9.117 17.746 15.026 30 15.026 19.919 0 36.799-16.172 37.469-35.577l44.045-148.779c6.065-20.486 18.756-24.813 28.622-22.028 9.612 2.714 17.935 12.645 14.426 25.702l-42.061 156.528v81.704l-29.957 59.367v62.685h-180.051v-63.534l-65.795-82.102-27.421-51.602-13.246 7.039 28.082 52.844 63.38 79.09v58.265h-15v62.061h15v48.184h120.049v-15h-105.049v-33.184h180.049v33.184h-30v15h45v-48.184h15v-62.061h-15v-59.114l29.957-59.367v-83.294l41.547-154.616c2.659-9.897 1.285-19.935-3.869-28.266zm-255.179 190.055c-12.407 0-22.5-10.094-22.5-22.5v-82.434c0-12.406 10.093-22.5 22.5-22.5s22.5 10.094 22.5 22.5v82.434c0 12.406-10.094 22.5-22.5 22.5zm60 0c-12.406 0-22.5-10.094-22.5-22.5v-82.434c0-12.406 10.093-22.5 22.5-22.5s22.5 10.094 22.5 22.5v82.434c0 12.406-10.094 22.5-22.5 22.5zm82.501-21.772c0 11.802-10.304 21.771-22.501 21.771-12.406 0-22.5-10.094-22.5-22.5v-82.434c0-12.406 10.094-22.5 22.5-22.5 12.407 0 22.501 10.094 22.501 22.5zm45.043 263.435h-210.049v-32.061h210.049z"/><path d="m316.546 496.992h15v15h-15z"/></g></g></svg>