<svg id="Capa_1" enable-background="new 0 0 512 512" height="512" viewBox="0 0 512 512" width="512" xmlns="http://www.w3.org/2000/svg"><g><g><g clip-rule="evenodd" fill-rule="evenodd"><path d="m7.5 373.683c0 8.25 6.75 15 15 15h294.5v-30h-249.5c0-16.569-13.431-30-30-30v-225c16.569 0 30-13.431 30-30h377c0 16.569 13.431 30 30 30v225c-16.569 0-30 13.431-30 30h-37.5v30h82.5c8.249 0 15-6.751 15-15v-315c0-8.25-6.75-15-15-15h-467c-8.25 0-15 6.75-15 15z" fill="#ecc87d"/><path d="m67.5 358.683h249.5v-29.994c-18.217-13.683-30-35.468-30-60.005 0-41.421 33.579-75 75-75s75 33.579 75 75c0 24.537-11.783 46.322-30 60.003v29.996h37.5c0-16.569 13.431-30 30-30v-225c-16.569 0-30-13.431-30-30h-377c0 16.569-13.431 30-30 30v225c16.569 0 30 13.431 30 30z" fill="#f9ee92"/><path d="m67.5 358.683h22.5c0-20.936-12.266-39.017-30-47.445v-190.11c17.735-8.428 30-26.508 30-47.445h-22.5c0 16.569-13.431 30-30 30v225c16.569 0 30 13.431 30 30z" fill="#ecc87d"/><circle cx="362" cy="268.683" fill="#f9ee92" r="45"/><path d="m287 268.683c0 41.539 33.696 75 75 75s75-33.461 75-75c0-41.421-33.579-75-75-75s-75 33.579-75 75zm75 45c-24.862 0-45-20.138-45-45s20.138-45 45-45 45 20.138 45 45-20.138 45-45 45z" fill="#f9ee92"/><path d="m317 463.683 44.999-22.5.001-97.5c-16.884 0-32.465-5.579-45-14.997z" fill="#d56a4e"/><path d="m362 366.183v-22.5c-16.884 0-32.465-5.579-45-14.997v26.502c13.465 7.021 28.769 10.995 45 10.995z" fill="#ce3f29"/><path d="m362 441.183 45.001 22.5v-134.994c-12.535 9.415-28.116 14.994-45 14.994z" fill="#d56a4e"/><path d="m407 355.188v-26.5c-12.535 9.415-28.116 14.994-45 14.994v22.5c16.231.001 31.535-3.973 45-10.994z" fill="#ce3f29"/><path d="m373.25 312.267c-19.414-4.993-33.75-22.606-33.75-43.583s14.336-38.591 33.75-43.584c-28.268-7.268-56.25 14-56.25 43.584s27.982 50.851 56.25 43.583z" fill="#ecc87d"/></g><g><path d="m452 171.183h-15v-15h15zm0-30h-15v-15h15z" fill="#fff"/></g></g><g><path d="m362 321.183c28.948 0 52.5-23.552 52.5-52.5s-23.552-52.5-52.5-52.5-52.5 23.552-52.5 52.5 23.552 52.5 52.5 52.5zm0-90c20.678 0 37.5 16.822 37.5 37.5s-16.822 37.5-37.5 37.5-37.5-16.822-37.5-37.5 16.822-37.5 37.5-37.5z"/><path d="m106 141.182h269.998v15h-269.998z"/><path d="m390.999 141.182h15.001v15h-15.001z"/><path d="m218.5 111.182h75v15h-75z"/><path d="m467 351.183h15v15h-15z"/><path d="m30 351.183h15v15h-15z"/><path d="m467 66.182h15v15.001h-15z"/><path d="m30 66.182h15v15.001h-15z"/><path d="m249.5 381.183h15.001v15h-15.001z"/><path d="m489.5 36.183h-467c-12.406 0-22.5 10.094-22.5 22.5v315c0 12.406 10.094 22.5 22.5 22.5h212v-15h-212c-4.136 0-7.5-3.364-7.5-7.5v-315c0-4.136 3.364-7.5 7.5-7.5h467c4.136 0 7.5 3.364 7.5 7.5v315c0 4.136-3.364 7.5-7.5 7.5h-75v-15h37.5v-7.5c0-12.406 10.094-22.5 22.5-22.5h7.5v-240h-7.5c-12.406 0-22.5-10.094-22.5-22.5v-7.5h-392v7.5c0 12.406-10.094 22.5-22.5 22.5h-7.5v112.5h15v-98.254c14.671-2.99 26.256-14.575 29.246-29.246h363.508c2.99 14.671 14.575 26.256 29.246 29.246v211.508c-14.671 2.99-26.256 14.575-29.246 29.246h-23.254v-18.908c18.312-15.144 30-38.028 30-63.592 0-45.49-37.01-82.5-82.5-82.5s-82.5 37.01-82.5 82.5c0 25.563 11.688 48.447 30 63.592v18.908h-235.254c-2.99-14.671-14.575-26.256-29.246-29.246v-98.254h-15v112.5h7.5c12.406 0 22.5 10.094 22.5 22.5v7.5h249.5v15h-29.999v15h29.999v79.635l52.5-26.25 52.5 26.25v-79.635h75c12.406 0 22.5-10.094 22.5-22.5v-315c0-12.407-10.094-22.5-22.5-22.5zm-195 232.5c0-37.22 30.28-67.5 67.5-67.5s67.5 30.28 67.5 67.5-30.28 67.5-67.5 67.5-67.5-30.281-67.5-67.5zm30 73.447c9.15 4.691 19.279 7.725 30 8.697v85.722l-30 15zm45 94.418v-85.722c10.721-.971 20.85-4.005 30-8.697v109.418z"/></g></g></svg>