<svg id="Capa_1" enable-background="new 0 0 512 512" height="512" viewBox="0 0 512 512" width="512" xmlns="http://www.w3.org/2000/svg"><g><g><g clip-rule="evenodd" fill-rule="evenodd"><path d="m30.563 192.251c16.5 0 30-13.5 30-30v-60.001c0-16.5-13.503-30-30-30-14.323 15.953-23.063 37.006-23.063 60.001s8.74 44.047 23.063 60z" fill="#b4d8f2"/><path d="m150 357.25h90v-225c0-49.5-40.5-90-90-90h-52.5c-26.505 0-50.43 11.611-66.938 29.999 16.497 0 30 13.5 30 30v60.001c0 16.5-13.5 30-30 30 16.508 18.388 40.433 30 66.937 30h52.501zm0 67.499c0 24.751 20.25 45 45 45s45-20.255 45-45v-30h-90z" fill="#eef4f9"/><path d="m30.563 192.251c6.607 0 12.731-2.166 17.702-5.82-11.453-15.106-18.265-33.893-18.265-54.18s6.812-39.074 18.264-54.18c-4.971-3.655-11.096-5.821-17.701-5.821-14.323 15.953-23.063 37.006-23.063 60.001s8.74 44.047 23.063 60z" fill="#6e91ef"/><path d="m150 424.749c0 24.751 20.25 45 45 45 3.881 0 7.651-.498 11.249-1.433-19.352-5.028-33.75-22.697-33.75-43.567v-30h-22.499z" fill="#b0c5e0"/><path d="m48.264 186.431c-4.971 3.654-11.095 5.82-17.702 5.82 16.508 18.388 40.433 30 66.937 30h22.501c-29.222 0-55.274-14.106-71.736-35.82z" fill="#b0c5e0"/><path d="m120 42.251h-22.5c-26.505 0-50.43 11.611-66.938 29.999 6.606 0 12.73 2.166 17.701 5.821 16.462-21.714 42.514-35.82 71.737-35.82z" fill="#b0c5e0"/><path d="m150 357.25h22.5v-142.5c0-8.04-6.226-30-30-30h-22.5c16.5 0 30 13.5 30 30z" fill="#b0c5e0"/><path d="m481.437 192.251c-16.5 0-30-13.5-30-30v-60.001c0-16.5 13.503-30 30-30 14.322 15.953 23.062 37.006 23.062 60.001.001 22.995-8.739 44.047-23.062 60z" fill="#717f99"/><path d="m362 357.25h-90v-225c0-49.5 40.5-90 90-90h52.5c26.505 0 50.429 11.611 66.938 29.999-16.497 0-30 13.5-30 30v60.001c0 16.5 13.5 30 30 30-16.508 18.388-40.433 30-66.937 30h-52.501zm0 67.499c0 24.751-20.25 45-45 45s-45-20.255-45-45v-30h90z" fill="#eef4f9"/><path d="m362 394.75h-90v-37.5h90zm-212 0h90v-37.5h-90z" fill="#b4d8f2"/><path d="m481.437 192.251c-16.5 0-30-13.5-30-30v-60.001c0-16.5 13.503-30 30-30 14.322 15.953 23.062 37.006 23.062 60.001.001 22.995-8.739 44.047-23.062 60z" fill="#b4d8f2"/><path d="m294.5 357.25h-22.5v-225c0-49.5 40.5-90 90-90h22.5c-49.5 0-90 40.5-90 90zm33.75 111.066c-3.599.935-7.369 1.433-11.25 1.433-24.75 0-45-20.255-45-45v-30h22.5v30c0 20.866 14.397 38.538 33.75 43.567z" fill="#b0c5e0"/><path d="m294.5 394.75h-22.5v-37.5h22.5zm-144.5 0h22.5v-37.5h-22.5z" fill="#6e91ef"/></g><g><path d="m414.5 79.75h-15v-15h15zm-30 0h-15v-15h15zm-242 0h-15v-15h15zm-30 0h-15v-15h15z" fill="#fff"/></g></g><g><path d="m150 34.751h-52.5c-53.762 0-97.5 43.738-97.5 97.5s43.738 97.5 97.5 97.5h45v194.998c0 28.948 23.552 52.5 52.5 52.5s52.5-23.552 52.5-52.5v-292.499c0-53.761-43.738-97.499-97.5-97.499zm7.5 329.999h75v22.5h-75zm37.5 97.499c-20.678 0-37.5-16.822-37.5-37.5v-22.499h75v22.499c0 20.678-16.822 37.5-37.5 37.5zm37.5-112.499h-75v-127.499c0-20.678-16.822-37.5-37.5-37.5v15c9.778 0 18.119 6.27 21.215 15h-43.715c-19.551 0-37.525-6.85-51.678-18.258 13.092-5.857 22.241-18.997 22.241-34.242v-22.499h-15v22.499c0 11.333-8.423 20.73-19.337 22.273-11.695-14.241-18.726-32.45-18.726-52.273s7.032-38.032 18.727-52.274c10.913 1.543 19.336 10.941 19.336 22.273v22.499h15v-22.499c0-15.245-9.149-28.384-22.24-34.242 14.153-11.407 32.126-18.257 51.677-18.257h52.5c45.49 0 82.5 37.009 82.5 82.499z"/><path d="m354.5 289.751h15v15h-15z"/><path d="m414.5 34.751h-52.5c-53.762 0-97.5 43.738-97.5 97.499v292.499c0 28.948 23.552 52.5 52.5 52.5s52.5-23.552 52.5-52.5v-104.998h-15v29.999h-75v-217.5c0-45.49 37.01-82.499 82.5-82.499h52.5c19.551 0 37.524 6.85 51.677 18.257-13.091 5.857-22.24 18.997-22.24 34.242v60.001c0 15.245 9.149 28.385 22.241 34.242-14.153 11.408-32.127 18.258-51.678 18.258h-43.715c3.096-8.73 11.437-15 21.215-15v-15c-20.678 0-37.5 16.822-37.5 37.5v52.5h15v-45h45c53.762 0 97.5-43.738 97.5-97.5s-43.738-97.5-97.5-97.5zm-97.5 427.498c-20.678 0-37.5-16.822-37.5-37.5v-22.499h75v22.499c0 20.678-16.822 37.5-37.5 37.5zm37.5-97.499v22.5h-75v-22.5zm123.774-180.226c-10.914-1.543-19.337-10.941-19.337-22.273v-60.001c0-11.332 8.423-20.73 19.336-22.273 11.695 14.242 18.727 32.451 18.727 52.274s-7.031 38.032-18.726 52.273z"/></g></g></svg>