<svg id="Capa_1" enable-background="new 0 0 511.627 511.627" height="512" viewBox="0 0 511.627 511.627" width="512" xmlns="http://www.w3.org/2000/svg"><g><g><g clip-rule="evenodd" fill-rule="evenodd"><path d="m68.17 303.577c31.78 103.231 121.99 164.459 187.644 199.546 65.654-35.086 155.864-96.315 187.644-199.546 17.776-57.744-12.821-116.018-60.144-133.694-51.133-19.1-97.594 14.165-127.5 53.906-29.906-39.741-76.367-73.006-127.5-53.906-47.323 17.677-77.921 75.95-60.144 133.694zm157.643 4.085c0-16.569 13.431-30 30-30s30 13.431 30 30c0 9.354-4.282 17.708-10.992 23.21l10.768 59.067h-59.777l10.798-59.228c-6.597-5.503-10.797-13.785-10.797-23.049z" fill="#d56a4e"/><path d="m128.314 169.883c13.834-5.168 29.098-6.865 45-4.067v-30.816c0-45.286 37.214-82.5 82.5-82.5s82.5 37.214 82.5 82.5v30.817c15.902-2.799 31.165-1.101 45 4.067v-34.884c0-70.125-57.375-127.5-127.5-127.5s-127.5 57.375-127.5 127.5z" fill="#f9ee92"/><path d="m225.813 389.939h59.777l-10.768-59.067c6.71-5.502 10.992-13.855 10.992-23.21 0-16.569-13.431-30-30-30s-30 13.431-30 30c0 9.264 4.199 17.546 10.798 23.048z" fill="#ce3f29"/><path d="m128.314 169.883c13.834-5.168 29.098-6.865 45-4.067v-30.816c0-45.286 37.214-82.5 82.5-82.5s82.5 37.215 82.5 82.5v30.817c15.902-2.799 31.165-1.101 45 4.067v-22.5c-7.154-2.672-14.691-4.416-22.5-5.091v-7.293c0-57.704-47.295-105-105-105s-105 47.296-105 105v7.292c-7.809.675-15.346 2.419-22.5 5.091z" fill="#ecc87d"/><path d="m68.17 303.577c31.78 103.231 121.99 164.459 187.644 199.546 3.677-1.965 7.434-4.016 11.25-6.148-64.328-35.933-146.394-95.948-176.394-193.398-18.095-58.781 15.335-129.752 78.917-138.468-13.228-1.792-27.07-.532-41.273 4.774-47.323 17.677-77.921 75.95-60.144 133.694z" fill="#ce3f29"/></g><g><path d="m398.313 224.446h-15v-15h15zm-30-14.999h-15v-15h15z" fill="#fff"/></g></g><g><path d="m446.894 223.72c-10.35-24.922-28.423-44.962-50.892-56.428-1.714-.875-3.447-1.675-5.188-2.439v-29.853c0-74.439-60.561-135-135-135s-135 60.561-135 135v29.853c-1.741.764-3.475 1.564-5.189 2.439-22.468 11.466-40.542 31.506-50.891 56.428-10.738 25.856-12.063 55.001-3.731 82.064 14.521 47.168 42.498 90.432 83.155 128.589 29.276 27.477 64.643 52.128 108.122 75.364l3.535 1.89 3.535-1.89c44.524-23.794 80.593-49.112 110.267-77.401l-10.351-10.857c-27.895 26.594-61.765 50.539-103.452 73.128-40.684-22.046-73.881-45.352-101.392-71.171-38.732-36.352-65.34-77.42-79.084-122.065-7.305-23.729-6.151-49.263 3.249-71.898 8.984-21.634 24.559-38.972 43.856-48.819 18.668-9.526 39.371-11.244 59.869-4.967 24.07 7.37 46.783 25.071 67.509 52.613l5.993 7.964 5.993-7.964c20.726-27.542 43.439-45.243 67.508-52.613 20.5-6.278 41.203-4.56 59.869 4.967 19.297 9.848 34.873 27.186 43.857 48.819 9.4 22.636 10.553 48.17 3.249 71.898-12.216 39.681-34.624 76.609-66.602 109.761l10.796 10.414c33.628-34.862 57.228-73.81 70.142-115.761 8.331-27.064 7.005-56.209-3.732-82.065zm-101.081-66.412v-22.308c0-23.905-9.399-46.47-26.464-63.535-17.066-17.067-39.63-26.465-63.536-26.465-20.906 0-41.327 7.441-57.502 20.953l9.616 11.512c13.483-11.263 30.489-17.465 47.886-17.465 19.899 0 38.696 7.838 52.929 22.071 14.232 14.232 22.071 33.029 22.071 52.929v24.749c-1.964.477-3.929.993-5.891 1.594-24.794 7.592-48.007 24.492-69.109 50.294-21.103-25.802-44.315-42.702-69.109-50.294-1.962-.601-3.926-1.117-5.891-1.594v-24.749c0-17.399 6.202-34.405 17.464-47.886l-11.511-9.617c-13.511 16.173-20.953 36.595-20.953 57.503v22.308c-10.15-.844-20.213-.039-30 2.409v-24.717c0-66.168 53.832-120 120-120s120 53.832 120 120v24.717c-9.786-2.448-19.85-3.253-30-2.409z"/><path d="m294.581 397.438-11.646-63.877c6.643-6.942 10.378-16.158 10.378-25.899 0-20.678-16.822-37.5-37.5-37.5s-37.5 16.822-37.5 37.5c0 9.634 3.667 18.778 10.19 25.7l-11.681 64.076zm-38.768-112.276c12.407 0 22.5 10.094 22.5 22.5 0 6.767-3.006 13.113-8.248 17.41l-3.415 2.8 9.948 54.566h-41.795l9.969-54.686-3.359-2.802c-5.148-4.294-8.101-10.596-8.101-17.289.001-12.405 10.095-22.499 22.501-22.499z"/></g></g></svg>