<svg id="Capa_1" enable-background="new 0 0 512 512" height="512" viewBox="0 0 512 512" width="512" xmlns="http://www.w3.org/2000/svg"><g><g><g clip-rule="evenodd" fill-rule="evenodd"><path d="m22.5 504.5h90v-30h15v-157.499h-105zm75-67.5h-45v-89.999h45z" fill="#e5ecf5"/><path d="m127.5 317.001v-30h-120v30zm257 0v-30h120v30z" fill="#f9ee92"/><path d="m22.5 287.001h105v-59.999h-75z" fill="#ecc87d"/><path d="m127.5 474.499h30v-30h37.5v-97.5h-15v-30h152v30h-15v97.5h37.5v30h30.421v-292.496h-257.421zm143.5-194.999v-30h61v30zm-91 0v-30h61v30z" fill="#e5ecf5"/><path d="m332 346.999v-30h-152v30zm22.5 127.5v-30h-197v30h-45v30h287v-30z" fill="#f9ee92"/><path d="m195 346.999h122.001v97.5h-122.001z" fill="#b4d8f2"/><path d="m105 152.002h301.999v30h-301.999z" fill="#f9ee92"/><path d="m105 152.002h302l-151-82.499z" fill="#ecc87d"/><path d="m256 7.5h60v30h-60z" fill="#f9ee92"/><path d="m459.499 437h-45v-89.999h45zm-406.998 0h45v-89.999h-45zm127.499-157.5h61v-30h-61zm91 0h61v-30h-61z" fill="#b4d8f2"/><path d="m489.5 504.5h-90v-30h-15v-157.499h105zm-75.001-67.5h45v-89.999h-45z" fill="#e5ecf5"/><path d="m489.5 287.001h-105v-59.999h75z" fill="#ecc87d"/><path d="m22.5 317.001h22.5v187.498h-22.5z" fill="#b0c5e0"/><path d="m7.5 287.001h22.5v30h-22.5z" fill="#ecc87d"/><path d="m127.5 182.003h22.5v292.497h-22.5z" fill="#b0c5e0"/><path d="m22.5 287.001h22.5l29.999-59.999h-22.499z" fill="#d99460"/><path d="m195 444.499h22.5v-97.5h-22.5zm61 0h22.5v-97.5h-22.5z" fill="#6e91ef"/><path d="m112.5 504.5h22.5v-30h-22.5zm89.999-187.5h-22.499v30h22.5v-30zm-44.999 157.499h22.5v-30h-22.5z" fill="#ecc87d"/><path d="m105 152.002h22.5v30h-22.5z" fill="#ecc87d"/><path d="m105 152.002h37.5l132.25-72.255-18.75-10.244z" fill="#d99460"/><path d="m459.499 437h-45v-22.5h45zm-279.499-157.5h22.5v-30h-22.5zm91 0h22.5v-30h-22.5zm-218.499 157.5h45v-22.5h-45z" fill="#6e91ef"/></g><g><path d="m362 219.502h-15v-15h15zm-30 0h-15v-15h15z" fill="#fff"/></g></g><g><path d="m512 324.501v-45h-17.865l-30-59.999h-71.714v-29.999h22.079v-41.949l-151-82.499v-20.054h60v-45.001h-75v65.055l-65.013 35.52 7.191 13.164 65.322-35.69 121.63 66.453h-243.26l43.143-23.57-7.191-13.164-72.822 39.786v41.949h22.5v29.999h-72.136l-30 59.999h-17.864v45h15v172.499h-15v15h233.5v-15h-113.5v-15.001h272v15.001h-113.5v15h233.5v-15h-15v-172.499zm-248.5-309.501h45v15.001h-45zm233.5 294.501h-104.579v-15h104.579zm-42.135-74.999 22.5 44.999h-84.943v-44.999zm-342.365-75h287v15.001h-287zm264.921 30.001v277.496h-15.421v-30h-37.5v-82.5h15v-44.999h-167v44.999h15v82.5h-37.5v30h-15v-277.496zm-113.921 247.496v-82.5h46v82.5zm-76-97.5v-14.999h137v14.999zm61 15v82.5h-46v-82.5zm98.5 97.5v15h-182v-15zm-289.865-217.497h62.865v44.999h-85.365zm-42.135 59.999h105v15h-105zm15 202.499v-172.499h90v142.498h-15v30.001zm452 0h-75v-30.001h-14.578v-142.498h89.578z"/><path d="m466.999 339.501h-60v104.999h60zm-15 89.999h-30v-74.999h30z"/><path d="m105 339.501h-60v104.999h60zm-15 89.999h-30v-74.999h30z"/><path d="m248.5 497h15v15h-15z"/><path d="m248.5 242.001h-76v44.999h76zm-15 29.999h-46v-14.999h46z"/><path d="m339.5 242.001h-76v44.999h76zm-15 29.999h-46v-14.999h46z"/></g></g></svg>