<svg id="Capa_1" enable-background="new 0 0 512 512" height="512" viewBox="0 0 512 512" width="512" xmlns="http://www.w3.org/2000/svg"><g><g><g clip-rule="evenodd" fill-rule="evenodd"><path d="m132.305 343.966 123.695 47.972 123.696-47.972c27.572-47.423-23.394-79.577-86.124-55.708-.007.003 2.985 30.27 3.257 33.029l-40.829 25.652-40.829-25.653 3.261-33.027c-62.731-23.872-113.7 8.283-86.127 55.707z" fill="#d56a4e"/><path d="m74.76 504.5h362.481v-83.512c0-47.179-12.045-64.57-57.545-77.022l-123.696 47.972-123.696-47.972c-45.5 12.453-57.545 29.844-57.545 77.022v83.512z" fill="#d56a4e"/><path d="m215.171 321.286 40.829 25.653 40.829-25.653-3.261-33.027c-11.618 5.214-24.303 8.283-37.568 8.283-13.266 0-25.951-3.069-37.568-8.283z" fill="#f5d9ab"/><path d="m256 296.542c48.076 0 100.299-45.467 100.299-92.799v-60.006h-200.598v60.006c0 47.394 53.089 92.799 100.299 92.799z" fill="#f5d9ab"/><path d="m155.701 113.737h200.599v-5.938c0-55.164-45.135-100.299-100.299-100.299-55.166 0-100.3 45.134-100.3 100.3z" fill="#b4d8f2"/><path d="m140.7 203.743h15v-60.006h-15c-8.25 0-15 6.75-15 15v30.007c.001 8.249 6.751 14.999 15 14.999zm215.598 0h15c8.25 0 15-6.75 15-15v-30.007c0-8.196-6.663-14.912-14.839-14.999l-15.159-.001z" fill="#f0b582"/><path d="m155.701 113.737h200.599v30h-200.599z" fill="#b4d8f2"/><path d="m416.299 143.737v-15c0-8.25-6.752-15-15-15h-44.999v30c19.999-.001 39.999 0 59.999 0z" fill="#b4d8f2"/><path d="m74.76 504.5h22.5v-83.512c0-42.513 9.785-60.837 45.011-73.157l-9.966-3.865c-45.5 12.453-57.545 29.844-57.545 77.022z" fill="#ce3f29"/><path d="m132.305 343.966 20.09 7.792c-21.24-37.789 2.851-66.218 40.772-70.307-50.102-7.839-84.607 21.674-60.862 62.515z" fill="#ce3f29"/><path d="m215.171 321.286 21.704 13.637 3.461-39.806c-7.614-1.385-14.95-3.737-21.904-6.858z" fill="#f0b582"/><path d="m256 296.542c3.761 0 7.547-.279 11.333-.814-44.03-6.307-89.132-48.301-89.132-91.985v-60.006h-22.5v60.006c0 47.394 53.089 92.799 100.299 92.799z" fill="#f0b582"/><path d="m155.701 113.737h22.5v-5.937c0-51.364 39.13-94.023 89.05-99.66-59.136-6.682-111.55 39.922-111.55 99.66z" fill="#6e91ef"/><path d="m155.701 113.737h22.5v30h-22.5z" fill="#6e91ef"/></g><g><path d="m311.216 67.5h-15v-15h15zm-30-15h-15v-15h15z" fill="#fff"/></g></g><g><path d="m248.5 497h15v15h-15z"/><path d="m390.39 339.308c7.356-17.513 5.604-34.304-5.212-47.046-11.801-13.9-32.157-20.587-55.599-19.425 18.687-17.607 31.307-40.288 33.771-61.594h7.949c12.406 0 22.499-10.094 22.499-22.5v-30.007c0-2.629-.457-5.152-1.29-7.499h31.291v-22.5c0-12.407-10.094-22.501-22.5-22.501h-37.519c-.839-58.722-48.861-106.236-107.779-106.236-25.714 0-50.658 9.298-70.237 26.181l9.795 11.359c16.858-14.535 38.323-22.54 60.442-22.54 50.648 0 91.941 40.785 92.779 91.236h-185.544c.368-21.565 8.313-42.419 22.505-58.878l-11.359-9.795c-16.883 19.578-26.181 44.521-26.181 70.236v28.437h-7.5c-12.407 0-22.5 10.094-22.5 22.5v30.007c0 12.406 10.093 22.5 22.5 22.5h7.95c2.464 21.306 15.085 43.986 33.771 61.593-23.442-1.163-43.797 5.524-55.599 19.425-10.817 12.741-12.569 29.532-5.213 47.046-41.407 13.25-54.35 33.563-54.35 81.681v91.012h166.24v-15h-76.242v-45.506h-15v45.506h-59.998v-76.012c0-23.258 3.064-37.34 10.247-47.084 7.028-9.534 18.908-16.183 39.428-22.038l54.809 21.256.712 39.963 14.997-.268-.603-33.837 54.15 21 54.54-21.152.611 34.256 14.998-.268-.709-39.767 54.625-21.185c20.52 5.855 32.4 12.503 39.428 22.038 7.183 9.745 10.247 23.826 10.247 47.084v76.014h-59.999v-45.506h-15v45.506h-76.241v15h166.24v-91.012c0-48.118-12.943-68.43-54.35-81.68zm-101.481-21.904-32.909 20.677-32.91-20.677 1.837-18.606c9.9 3.356 20.343 5.244 31.072 5.244s21.172-1.888 31.072-5.244zm-17.909-196.167v15h-30v-15zm77.8 14.999h-62.8v-15h62.8zm-122.8-14.999v15h-62.799v-15zm152.798 37.499v30.007c0 4.136-3.364 7.5-7.499 7.5h-7.499v-45.006h7.518c4.126.011 7.48 3.37 7.48 7.499zm30.001-29.999v7.5h-37.462c-.013 0-.026-.001-.038-.001v.001h-7.499v-15.001h37.499c4.136 0 7.5 3.366 7.5 7.501zm-275.599 60.006v-30.007c0-4.136 3.365-7.5 7.5-7.5h7.5v45.007h-7.5c-4.135 0-7.5-3.364-7.5-7.5zm57.275 71.002c-16.823-16.874-27.274-38.332-27.274-56.002v-52.506h185.599v52.506c0 17.67-10.451 39.129-27.274 56.002-9.195 9.223-19.449 16.417-30.26 21.371-.122.046-.243.087-.364.133l.011.03c-11.229 5.089-23.051 7.763-34.913 7.763s-23.684-2.674-34.912-7.763l.011-.03c-.122-.047-.245-.088-.367-.134-10.809-4.954-21.062-12.147-30.257-21.37zm65.525 124.149-118.458-45.94c-7.397-13.988-7.169-26.697.715-35.983 12.907-15.204 42.029-18.508 72.134-8.6l-3.14 31.799 48.749 30.626 48.749-30.628-3.14-31.798c30.103-9.904 59.224-6.604 72.134 8.6 7.884 9.286 8.111 21.995.714 35.983z"/></g></g></svg>