<svg id="Capa_1" enable-background="new 0 0 512 512" height="512" viewBox="0 0 512 512" width="512" xmlns="http://www.w3.org/2000/svg"><g><g><g clip-rule="evenodd" fill-rule="evenodd"><path d="m149.758 459.247v45.253h212.483v-45.253l60-7.5v-30.759c0-49.261-17.273-59.113-57.545-77.022l-41.535-18.47c-15.186 19.687-39.614 32.457-67.161 32.457s-51.974-12.77-67.161-32.457l-41.535 18.47c-40.125 17.844-57.545 27.672-57.545 77.022v30.759zm106.242 11.018c-13.989-7.476-33.211-20.523-39.982-42.518-6.771-21.997 19.4-44.353 39.982-17.001 20.583-27.352 46.754-4.995 39.982 17.001-6.771 21.995-25.993 35.042-39.982 42.518z" fill="#f9ee92"/><path d="m188.839 325.495c15.186 19.687 39.614 32.457 67.161 32.457s51.974-12.77 67.161-32.457l-26.332-11.709-5.193-34.842c-11.049 4.842-23.074 7.679-35.636 7.679s-24.588-2.838-35.637-7.68l-5.193 34.842zm173.402 179.005h60v-52.753l-60 7.5zm-272.482 0h59.999v-45.253l-59.999-7.5z" fill="#f5d9ab"/><path d="m147.304 343.966 41.535-18.47 26.332-11.709 5.193-34.842c-36.004-15.777-61.632-52.834-61.632-82.314v-57.708c31.152 0 79.93-7.636 97.268-28.685 17.338 21.049 66.116 28.685 97.268 28.685v57.708c0 29.48-25.628 66.537-61.632 82.314l5.193 34.842 26.332 11.709 41.535 18.47c7.195 3.199 13.591 6.162 19.254 9.098v-233.247c0-61.774-50.542-112.317-112.317-112.317h-35.963c-61.775 0-112.317 50.543-112.317 112.317v235.773c6.755-3.781 14.692-7.507 23.951-11.624z" fill="#ecc87d"/><path d="m158.732 196.629c0 45.96 51.489 89.994 97.268 89.994s97.268-44.034 97.268-89.994v-57.708c-31.152 0-79.93-7.636-97.268-28.685-17.338 21.049-66.116 28.685-97.268 28.685z" fill="#f5d9ab"/><path d="m256 470.265c13.989-7.476 33.211-20.523 39.982-42.518 6.771-21.997-19.4-44.353-39.982-17.001-20.583-27.352-46.754-4.995-39.982 17.001 6.771 21.995 25.993 35.042 39.982 42.518z" fill="#d56a4e"/><path d="m188.839 325.495c5.05 6.546 11.122 12.327 17.991 17.128l30.841-13.838 4.512-43.305c-7.584-1.255-14.894-3.502-21.819-6.537l-5.193 34.842zm-99.08 179.005h22.5v-49.94l-22.5-2.813z" fill="#f0b582"/><path d="m158.732 196.629c0 45.96 51.489 89.994 97.268 89.994 3.722 0 7.483-.296 11.25-.856-42.562-6.323-86.018-46.917-86.018-89.138v-58.869c-8.002.794-15.674 1.161-22.5 1.161z" fill="#f0b582"/><path d="m144.763 345.099c-38.318 17.148-55.004 27.594-55.004 75.889v30.759l22.5 2.813v-33.572c0-29.501 13.033-57.852 32.504-75.889z" fill="#ecc87d"/><path d="m258.17 7.5h-22.5c-61.775 0-112.317 50.543-112.317 112.317v235.773c6.399-3.582 13.86-7.114 22.5-10.977v-224.796c-.001-61.774 50.542-112.317 112.317-112.317z" fill="#d99460"/></g><g><path d="m331.633 67.5h-15v-15h15zm-30-15h-15v-15h15z" fill="#fff"/></g></g><g><path d="m248.5 497h15v15h-15z"/><path d="m415.429 367.216c-5.88-7.163-13.582-12.887-23.979-18.62v-228.779c0-66.067-53.75-119.817-119.817-119.817h-35.963c-34.329 0-67.116 14.9-89.954 40.88l11.266 9.904c19.991-22.741 48.671-35.784 78.688-35.784h35.963c57.797 0 104.817 47.021 104.817 104.817v221.251c-2.76-1.285-5.654-2.598-8.706-3.956l-64.104-28.507-3.774-25.33c35.484-17.902 60.903-54.827 60.903-86.648v-65.208h-7.5c-34.836 0-77.444-8.915-91.479-25.953l-5.79-7.026-5.789 7.027c-14.034 17.038-56.643 25.953-91.479 25.953h-7.5v65.208c0 31.821 25.419 68.746 60.902 86.648l-3.775 25.33-64.104 28.507c-4.842 2.153-9.285 4.195-13.403 6.188v-223.484c0-20.668 6.085-40.7 17.598-57.93l-12.473-8.334c-13.166 19.706-20.125 42.619-20.125 66.264v231.48c-8.068 4.862-14.323 9.878-19.281 15.918-10.032 12.223-14.313 28.304-14.313 53.772v91.013h151.242v-15h-76.242v-83.006h-15v36.757l-44.999-5.625v-24.138c0-21.995 3.16-34.817 10.907-44.256 7.774-9.472 20.824-16.415 42.186-25.914l36.348-16.163c17.183 19.379 42.653 30.797 69.301 30.797s52.118-11.418 69.301-30.797l36.348 16.163c21.361 9.499 34.411 16.442 42.186 25.914 7.747 9.438 10.907 22.261 10.907 44.256v24.137l-45 5.625v-36.757h-15v83.007h-76.243v15h151.241v-91.012c0-25.468-4.28-41.55-14.312-53.772zm-273.171 98.652v31.132h-44.999v-36.757zm23.974-269.239v-50.347c27.052-.968 68.382-7.203 89.768-25.435 21.387 18.231 62.718 24.467 89.769 25.435v50.347c0 17.078-10.109 37.826-26.384 54.149-18.224 18.278-40.734 28.345-63.385 28.345s-45.161-10.066-63.384-28.345c-16.274-16.322-26.384-37.071-26.384-54.149zm89.768 153.823c-20.715 0-40.55-8.186-54.772-22.257l20.754-9.229 4.432-29.738c9.44 3.134 19.38 4.896 29.587 4.896s20.147-1.762 29.587-4.896l4.432 29.738 20.754 9.229c-14.224 14.072-34.059 22.257-54.774 22.257zm113.741 146.548v-31.132l45-5.625v36.757z"/><path d="m256 478.769 3.535-1.889c23.166-12.38 37.841-28.168 43.615-46.926 4.407-14.315-1.868-30.009-14.597-36.504-8.588-4.385-21.026-4.569-32.554 6.091-11.526-10.658-23.964-10.473-32.554-6.091-12.729 6.495-19.004 22.188-14.597 36.504 5.774 18.758 20.449 34.546 43.615 46.926zm-32.814-53.229c-2.518-8.178 1.623-15.944 7.079-18.729 1.577-.805 3.224-1.2 4.908-1.2 4.879 0 10.077 3.323 14.834 9.645l5.993 7.964 5.993-7.964c6.398-8.505 13.597-11.579 19.742-8.444 5.456 2.785 9.597 10.552 7.079 18.729-4.351 14.133-15.102 25.987-32.814 36.152-17.713-10.166-28.464-22.02-32.814-36.153z"/></g></g></svg>