<svg id="Capa_1" enable-background="new 0 0 512 512" height="512" viewBox="0 0 512 512" width="512" xmlns="http://www.w3.org/2000/svg"><g><g><g clip-rule="evenodd" fill-rule="evenodd"><path d="m66.29 295.864c0 86.688 74.354 130.088 148.803 130.198 78.06 0 149.374-45.845 149.374-130.198v-130.018h-298.177z" fill="#fff"/><path d="m354.232 347.323c44.645 6.48 91.479-17.373 91.479-66.935v-67.342h-81.243v34.214h46.89v33.128c0 26.152-25.668 35.41-48.023 33.566-1.558 12.104-4.676 23.227-9.103 33.369z" fill="#fff"/><path d="m66.29 295.864c0 86.688 74.354 130.088 148.803 130.198h.572c3.666-.005 7.333-.117 10.99-.332-70.622-4.141-137.865-47.427-137.865-129.866v-130.018h-22.5z" fill="#eef4f9"/><path d="m37.5 471.681h437c16.497 0 30-13.531 30-30.065v-15.554h-497v15.554c0 16.536 13.504 30.065 30 30.065z" fill="#ecc87d"/><path d="m37.5 471.681h22.5c-16.497 0-30-13.529-30-30.065v-15.554h-22.5v15.554c0 16.536 13.504 30.065 30 30.065z" fill="#d99460"/></g><g><path d="m341.968 233.442h-15v-15.032h15zm0-30.064h-15v-15.032h15z" fill="#fff"/></g></g><g><path d="m414.5 464.181h15v15h-15z"/><path d="m290.031 418.562c11.772-5.142 22.683-11.546 32.445-19.124 15.819-12.28 27.983-27.115 36.299-44.043 3.316.306 6.624.474 9.907.474 22.938 0 44.692-7.38 60.239-20.833 15.89-13.751 24.289-32.647 24.289-54.648v-74.841h-81.243v-47.201h-268.177v15h253.177v122.519c0 84.256-73.315 122.656-141.477 122.697h-.206c-97.215-.042-141.494-63.623-141.494-122.699v-122.517h15v-15h-30v137.518c0 42.625 17.114 78.44 49.491 103.573 9.762 7.578 20.672 13.983 32.445 19.125h-140.726v23.055c0 20.713 16.822 37.564 37.5 37.564h362v-15h-362c-12.406 0-22.5-10.122-22.5-22.564v-8.055h482v8.055c0 12.442-10.094 22.564-22.5 22.564h-29.999v15h29.999c20.678 0 37.5-16.852 37.5-37.564v-23.055zm148.179-198.015v59.841c0 17.516-6.606 32.49-19.104 43.306-13.701 11.856-33.483 17.975-54.276 17.09 2.094-6.148 3.723-12.529 4.9-19.116 14.791-.174 28.33-4.803 37.142-12.915 7.841-7.218 11.985-17.026 11.985-28.364v-40.627h-46.89v-19.214h66.243zm-66.243 34.214h31.89v25.627c0 7.135-2.403 12.965-7.145 17.328-5.669 5.218-14.896 8.403-25.127 8.892.247-3.531.382-7.111.382-10.744z"/><g fill="#b4d8f2"><path d="m207.879 32.819h15v15h-15z"/><path d="m252.878 32.819h15v60h-15z"/><path d="m252.878 107.819h15v15h-15z"/><path d="m207.879 62.819h15v60h-15z"/><path d="m162.879 32.819h15v60h-15z"/><path d="m162.879 107.819h15v15h-15z"/></g></g></g></svg>